<svg xmlns="http://www.w3.org/2000/svg" xmlns:xlink="http://www.w3.org/1999/xlink" width="500" zoomAndPan="magnify" viewBox="0 0 375 374.999991" height="500" preserveAspectRatio="xMidYMid meet" version="1.0"><defs><clipPath id="fad2dd9100"><path d="M 27 43 L 359 43 L 359 337.226562 L 27 337.226562 Z M 27 43 " clip-rule="nonzero"/></clipPath><clipPath id="8da649be45"><path d="M 29 53 L 358 53 L 358 337.226562 L 29 337.226562 Z M 29 53 " clip-rule="nonzero"/></clipPath><clipPath id="9d217b58c1"><path d="M 28 82 L 301 82 L 301 337.226562 L 28 337.226562 Z M 28 82 " clip-rule="nonzero"/></clipPath><clipPath id="733032eb44"><path d="M 23 40.226562 L 362.273438 40.226562 L 362.273438 337.226562 L 23 337.226562 Z M 23 40.226562 " clip-rule="nonzero"/></clipPath></defs><g clip-path="url(#fad2dd9100)"><path fill="#ffffff" d="M 358.949219 314.042969 L 357.753906 337.191406 L 273.382812 337.191406 L 274.878906 314.042969 Z M 339.578125 212.570312 C 339.578125 212.570312 341.726562 174.761719 309.898438 135.597656 C 317.191406 99.40625 307.410156 50.921875 298.125 43.785156 C 280.589844 44.808594 243.960938 57.628906 223.617188 89.886719 C 203.019531 82.558594 173.953125 80.625 144.632812 87.929688 C 144.632812 87.929688 109.925781 51.519531 69.238281 43.785156 C 49.492188 58.171875 55.679688 128.28125 55.476562 137.089844 C 41.714844 161.597656 -10.34375 236.496094 75.222656 289.019531 C 63.851562 318.226562 59.328125 336.789062 59.328125 336.789062 L 270.289062 337.195312 C 270.289062 337.195312 274.191406 296.125 278.378906 275.796875 C 282.570312 255.472656 286.464844 221.386719 295.421875 217.394531 C 304.378906 213.402344 311.378906 222.875 311.378906 222.875 C 311.378906 222.875 321.503906 198.066406 329.40625 220.183594 C 327.136719 211.816406 339.578125 212.570312 339.578125 212.570312 Z M 339.578125 212.570312 " fill-opacity="1" fill-rule="nonzero"/></g><path fill="#efb07d" d="M 283.855469 244.097656 C 290.4375 210.917969 303.898438 214.207031 311.378906 222.875 C 312.574219 212.710938 323.347656 209.421875 329.628906 217.496094 C 353.863281 193.582031 357.753906 264.53125 357.753906 264.53125 L 357.753906 310.457031 C 357.753906 310.457031 352.324219 328.09375 315.121094 328.09375 C 282.660156 328.09375 273.382812 313.746094 273.382812 313.746094 C 273.382812 313.746094 277.269531 277.277344 283.855469 244.097656 Z M 145.679688 88.363281 C 138.5 77.628906 92.277344 40.226562 69.835938 43.824219 C 44.40625 73.121094 56.671875 137.089844 56.671875 137.089844 C 56.671875 137.089844 35.671875 165.152344 33.171875 192.269531 C 33.980469 212.265625 88.398438 247.292969 150.617188 195.261719 C 209.742188 145.816406 162.136719 85.375 162.136719 85.375 C 162.136719 85.375 154.058594 85.945312 145.679688 88.363281 Z M 293.046875 61.164062 L 273.382812 101.019531 C 273.382812 101.019531 290.957031 115.566406 295.582031 128.121094 C 300.207031 116.164062 301.441406 85.671875 293.046875 61.164062 Z M 293.046875 61.164062 " fill-opacity="1" fill-rule="nonzero"/><g clip-path="url(#8da649be45)"><path fill="#ef5454" d="M 357.753906 337.191406 C 357.753906 337.191406 357.753906 337.191406 321.402344 337.191406 C 349.675781 334.636719 353.121094 258.453125 353.121094 258.453125 Z M 90.980469 101.019531 C 90.980469 101.019531 75.421875 68.734375 72.828125 61.164062 C 66.246094 77.105469 65.164062 116.960938 70.292969 128.121094 C 80.382812 115.832031 90.980469 101.019531 90.980469 101.019531 Z M 270.453125 337.191406 C 273.78125 316.363281 278.351562 287.695312 282.03125 264.589844 C 282.011719 264.59375 281.996094 264.601562 281.976562 264.609375 L 285.742188 223.121094 C 285.503906 223.414062 285.195312 223.8125 284.824219 224.347656 C 281.976562 228.464844 275.523438 240.324219 270.308594 268.507812 C 248.945312 274.859375 220.808594 279.234375 183.769531 279.488281 C 40.152344 278.503906 30.371094 215.582031 30.371094 215.582031 C 30.371094 215.582031 27.777344 224.066406 33.289062 237.925781 C 31.683594 236.570312 30.460938 235.492188 29.789062 234.832031 C 34.019531 266.617188 75.421875 291.125 75.421875 291.125 L 59.328125 337.195312 C 59.328125 337.195312 76.21875 337.195312 94.570312 337.195312 C 105.738281 300.765625 119.238281 301.722656 119.238281 301.722656 C 147.351562 307.871094 174.347656 309.527344 183.769531 309.527344 C 193.1875 309.527344 220.1875 307.871094 248.300781 301.722656 C 248.300781 301.722656 255.203125 301.238281 263.21875 314.28125 C 260.308594 332.84375 259.371094 337.175781 259.371094 337.175781 Z M 222.851562 89.886719 L 239.410156 94.640625 C 239.410156 94.640625 245.589844 72.410156 272.617188 53.632812 C 253.769531 58.769531 233.425781 72.375 222.851562 89.886719 Z M 93.605469 53.632812 C 120.632812 72.410156 126.8125 94.640625 126.8125 94.640625 L 143.371094 89.886719 C 132.796875 72.375 112.453125 58.769531 93.605469 53.632812 Z M 194.695312 228.765625 C 194.695312 228.765625 181.132812 231.875 169.566406 228.421875 C 171.160156 241.707031 190.707031 242.902344 194.695312 228.765625 Z M 194.695312 228.765625 " fill-opacity="0.298" fill-rule="nonzero"/></g><g clip-path="url(#9d217b58c1)"><path fill="#ffffff" d="M 58.75 82.511719 C 58.75 82.511719 55.714844 124.152344 69.957031 144.070312 C 54.878906 155.019531 29.027344 190.609375 29.761719 219.585938 C 24.066406 200.757812 32.230469 168.566406 54.773438 139.777344 C 52.484375 122.738281 54.773438 99.296875 58.75 82.511719 Z M 278.964844 297.824219 C 287.042969 237.960938 300.839844 219.636719 300.839844 219.636719 C 278.132812 213.511719 276.871094 271.199219 278.964844 297.824219 Z M 45.949219 258.453125 C 45.949219 258.453125 73.726562 283.851562 90.78125 286.542969 C 83.898438 295.210938 69.957031 337.195312 69.957031 337.195312 L 57.570312 337.195312 L 73.726562 290.128906 C 73.726562 290.128906 46.585938 276.703125 45.949219 258.453125 Z M 45.949219 258.453125 " fill-opacity="1" fill-rule="nonzero"/></g><g clip-path="url(#733032eb44)"><path fill="#2b0806" d="M 362.238281 337.191406 C 358.425781 337.191406 353.414062 337.191406 353.414062 337.191406 C 353.339844 322.636719 355.902344 247.394531 348.261719 222.042969 C 344.21875 208.621094 331.609375 215.039062 329.894531 226.207031 C 328.753906 220.601562 327.457031 214.570312 321.722656 215.167969 C 314.636719 215.902344 311.734375 228.414062 311.734375 228.414062 C 311.734375 228.414062 306.046875 219.296875 300.839844 219.636719 C 292.621094 220.175781 287.207031 232.242188 283.265625 257.933594 C 281.046875 272.375 275.347656 337.191406 275.347656 337.191406 L 268.007812 337.191406 C 268.007812 337.191406 272.042969 292.515625 273.335938 282.835938 L 273.375 282.558594 L 274.417969 275.015625 C 276.78125 258.425781 279.414062 243.386719 281.949219 233.867188 C 288.554688 209.101562 303.539062 206.492188 310.296875 218.386719 C 313.761719 205.632812 328.804688 203.507812 330.390625 214.730469 C 330.886719 212.382812 333.226562 209.5625 336.519531 208.390625 C 335.210938 189.257812 326.832031 166.1875 306.632812 138.582031 C 311.046875 129.316406 315.757812 85.714844 297.21875 47.410156 C 287.84375 47.414062 256.433594 55.078125 226.117188 88.011719 C 231.265625 89.792969 236.109375 91.972656 240.175781 94.640625 C 238.910156 94.691406 211.21875 86.835938 183.527344 86.835938 C 155.835938 86.835938 128.144531 94.691406 126.882812 94.640625 C 130.949219 91.972656 135.792969 89.792969 140.941406 88.011719 C 110.625 55.078125 79.210938 47.414062 69.835938 47.410156 C 51.296875 85.714844 56.007812 129.316406 60.421875 138.582031 C -12.738281 238.585938 69.101562 279.101562 80.757812 288.1875 C 74.175781 301.636719 62.058594 337.191406 62.058594 337.191406 L 53.929688 337.191406 C 53.929688 337.191406 61.792969 312.414062 71.367188 290.296875 C -1.667969 247.394531 21.96875 177.140625 51.886719 139.777344 C 42.910156 86.875 61.460938 41.433594 68.640625 40.226562 C 116.21875 49.320312 140.53125 77.644531 146.894531 86.15625 C 155.4375 83.757812 169.480469 80.265625 183.527344 80.265625 C 197.558594 80.261719 211.59375 83.753906 220.164062 86.15625 C 226.527344 77.644531 250.835938 49.320312 298.417969 40.226562 C 305.597656 41.433594 324.144531 86.875 315.171875 139.777344 C 329.367188 157.507812 342.136719 182.644531 343.847656 208.75 C 346.308594 209.835938 348.902344 211.96875 351.453125 215.605469 C 356.210938 222.398438 356.933594 231.160156 359.175781 248.8125 C 361.246094 265.105469 362.238281 327.570312 362.238281 337.191406 Z M 293.046875 61.164062 C 293.046875 61.164062 279.40625 80.457031 269.375 101 C 276.101562 105.402344 289.929688 119.75 295.582031 128.121094 C 298.242188 123.335938 284.425781 103.058594 277.390625 99.125 C 284.710938 91.351562 293.046875 61.164062 293.046875 61.164062 Z M 72.828125 61.164062 C 72.828125 61.164062 86.46875 80.457031 96.496094 101 C 89.773438 105.402344 75.945312 119.75 70.292969 128.121094 C 67.632812 123.335938 81.449219 103.058594 88.484375 99.125 C 81.160156 91.351562 72.828125 61.164062 72.828125 61.164062 Z M 110.890625 157.765625 C 95.660156 161.355469 85.339844 176.542969 82.195312 189.132812 C 81.714844 191.050781 82.746094 192.574219 84.882812 193.109375 C 88.339844 193.972656 94.628906 192.214844 95.554688 188.507812 C 96.761719 183.671875 98.816406 179.28125 101.664062 175.457031 C 103.808594 172.582031 107.996094 167.601562 111.945312 166.617188 C 115.121094 165.824219 118.15625 171.011719 119.785156 173.796875 L 120.167969 174.449219 C 122.964844 179.160156 125.222656 184.621094 126.878906 190.675781 C 127.460938 192.800781 129.546875 193.640625 131.855469 193.640625 C 132.824219 193.640625 133.828125 193.492188 134.777344 193.234375 C 138.652344 192.175781 140.867188 189.65625 140.171875 187.109375 C 134.070312 164.835938 123.949219 154.6875 110.890625 157.765625 Z M 283.664062 187.109375 C 277.566406 164.832031 267.441406 154.6875 254.382812 157.765625 C 239.152344 161.355469 228.832031 176.542969 225.691406 189.132812 C 225.398438 190.296875 225.671875 191.359375 226.453125 192.117188 C 228.097656 193.703125 231.382812 193.492188 233.699219 192.828125 C 236.578125 192.003906 238.578125 190.386719 239.046875 188.507812 C 240.257812 183.667969 242.3125 179.277344 245.15625 175.457031 C 247.300781 172.582031 251.492188 167.601562 255.4375 166.617188 C 258.613281 165.828125 261.648438 171.011719 263.277344 173.796875 L 263.664062 174.449219 C 266.457031 179.160156 268.714844 184.617188 270.375 190.675781 C 270.742188 192.027344 271.816406 192.996094 273.398438 193.414062 C 274.003906 193.570312 274.664062 193.644531 275.351562 193.644531 C 277.921875 193.644531 280.851562 192.601562 282.476562 190.960938 C 283.609375 189.816406 284.03125 188.449219 283.664062 187.109375 Z M 205.015625 193.8125 C 203.398438 194.675781 202.632812 197.441406 204.210938 200.40625 C 205.132812 202.128906 204.152344 203.910156 203.484375 204.816406 C 201.742188 207.1875 198.609375 208.636719 196.203125 208.183594 C 192.0625 207.410156 189.566406 202.539062 187.851562 198.386719 C 187.054688 196.449219 185.375 195.242188 183.472656 195.242188 C 181.570312 195.242188 179.894531 196.449219 179.09375 198.386719 C 177.691406 201.792969 175.078125 208.140625 170.746094 208.949219 C 168.90625 209.296875 166.609375 208.402344 164.78125 206.644531 C 162.070312 203.921875 162.882812 200.367188 163.175781 199.402344 C 163.203125 199.328125 163.226562 199.253906 163.257812 199.152344 L 163.886719 197.472656 L 163.570312 197.472656 C 163.65625 195.71875 162.957031 194.214844 161.695312 193.707031 C 160.617188 193.269531 159.03125 193.605469 157.828125 195.859375 C 155.59375 200.050781 155.46875 205.039062 157.496094 209.203125 C 159.378906 213.066406 162.921875 215.722656 167.222656 216.484375 C 173.386719 217.582031 178.984375 214.976562 183.472656 208.953125 C 187.296875 214.082031 191.917969 216.726562 197.011719 216.726562 C 197.902344 216.726562 198.808594 216.644531 199.726562 216.484375 C 204.023438 215.722656 207.570312 213.066406 209.453125 209.203125 C 211.480469 205.039062 211.355469 200.050781 209.121094 195.859375 C 207.824219 193.425781 206.097656 193.238281 205.015625 193.8125 Z M 205.015625 193.8125 " fill-opacity="1" fill-rule="nonzero"/></g><path fill="#ef5454" d="M 320.253906 254.058594 C 318.015625 251.550781 309.070312 244.734375 303.316406 255.851562 C 297.566406 266.972656 313.261719 278.089844 320.253906 278.089844 C 327.246094 278.089844 342.941406 266.972656 337.191406 255.851562 C 331.4375 244.734375 322.492188 251.550781 320.253906 254.058594 Z M 325.742188 235.328125 C 325.742188 231.9375 323.796875 229.183594 321.402344 229.183594 C 319.003906 229.183594 317.058594 231.9375 317.058594 235.328125 C 317.058594 238.722656 319.003906 241.472656 321.402344 241.472656 C 323.796875 241.472656 325.742188 238.722656 325.742188 235.328125 Z M 339.203125 232.878906 C 336.769531 232.507812 334.335938 234.773438 333.765625 237.933594 C 333.195312 241.09375 334.703125 243.953125 337.136719 244.324219 C 339.566406 244.691406 342.003906 242.429688 342.574219 239.269531 C 343.144531 236.109375 341.632812 233.246094 339.203125 232.878906 Z M 304.117188 244.628906 C 306.574219 243.917969 307.667969 240.785156 306.554688 237.628906 C 305.441406 234.472656 302.546875 232.488281 300.089844 233.199219 C 297.632812 233.914062 296.539062 237.046875 297.652344 240.203125 C 298.765625 243.359375 301.660156 245.34375 304.117188 244.628906 Z M 304.117188 244.628906 " fill-opacity="1" fill-rule="nonzero"/></svg>