<svg xmlns="http://www.w3.org/2000/svg" xmlns:xlink="http://www.w3.org/1999/xlink" width="400" zoomAndPan="magnify" viewBox="0 0 300 37.5" height="50" preserveAspectRatio="xMidYMid meet" version="1.0"><defs><g/><clipPath id="16702e73c9"><path d="M 5 0 L 39.71875 0 L 39.71875 29.605469 L 5 29.605469 Z M 5 0 " clip-rule="nonzero"/></clipPath><clipPath id="0e13d43f3f"><path d="M 6 0 L 39.71875 0 L 39.71875 29 L 6 29 Z M 6 0 " clip-rule="nonzero"/></clipPath><clipPath id="af06dad395"><path d="M 6 1 L 39.71875 1 L 39.71875 29.605469 L 6 29.605469 Z M 6 1 " clip-rule="nonzero"/></clipPath><clipPath id="b7283c0c85"><path d="M 6 4 L 34 4 L 34 29.605469 L 6 29.605469 Z M 6 4 " clip-rule="nonzero"/></clipPath><clipPath id="4a451e2989"><path d="M 5 0 L 39.71875 0 L 39.71875 29.605469 L 5 29.605469 Z M 5 0 " clip-rule="nonzero"/></clipPath><clipPath id="c68a534f99"><path d="M 5.183594 33.183594 L 8.882812 33.183594 L 8.882812 36.886719 L 5.183594 36.886719 Z M 5.183594 33.183594 " clip-rule="nonzero"/></clipPath><clipPath id="2127bbd04a"><path d="M 33.632812 32.605469 L 37.335938 32.605469 L 37.335938 36.304688 L 33.632812 36.304688 Z M 33.632812 32.605469 " clip-rule="nonzero"/></clipPath></defs><g fill="#2b0806" fill-opacity="1"><g transform="translate(58.615332, 30.948821)"><g><path d="M 8.125 3.78125 C 4.65625 3.78125 2.460938 2.65625 1.546875 0.40625 C 1.117188 -0.6875 0.90625 -2.191406 0.90625 -4.109375 C 0.90625 -6.453125 1.1875 -9.050781 1.75 -11.90625 C 2.3125 -14.769531 3.125 -17.429688 4.1875 -19.890625 C 5.257812 -22.359375 6.476562 -24.203125 7.84375 -25.421875 C 9.25 -26.671875 10.800781 -27.613281 12.5 -28.25 C 14.207031 -28.882812 15.925781 -29.203125 17.65625 -29.203125 C 19.457031 -29.203125 21.171875 -28.859375 22.796875 -28.171875 C 24.421875 -27.492188 25.796875 -26.484375 26.921875 -25.140625 C 28.234375 -23.648438 29.414062 -21.53125 30.46875 -18.78125 C 31.519531 -16.03125 32.332031 -13.191406 32.90625 -10.265625 C 33.488281 -7.347656 33.78125 -4.914062 33.78125 -2.96875 C 33.78125 -2.414062 33.75 -2.019531 33.6875 -1.78125 C 33.59375 -0.6875 33.320312 0.171875 32.875 0.796875 C 32.4375 1.421875 31.925781 1.875 31.34375 2.15625 C 30.769531 2.445312 30.03125 2.75 29.125 3.0625 C 28.382812 3.269531 27.695312 3.375 27.0625 3.375 C 25.8125 3.375 24.695312 3.09375 23.71875 2.53125 C 22.75 1.96875 22.160156 1.21875 21.953125 0.28125 L 13.1875 0.234375 C 12.945312 1.265625 12.398438 2.113281 11.546875 2.78125 C 10.691406 3.445312 9.550781 3.78125 8.125 3.78125 Z M 17.390625 -7.84375 C 18.453125 -7.84375 19.523438 -8.238281 20.609375 -9.03125 C 21.691406 -9.820312 22.441406 -10.859375 22.859375 -12.140625 C 23.078125 -12.898438 23.1875 -13.539062 23.1875 -14.0625 C 23.1875 -14.90625 22.957031 -15.625 22.5 -16.21875 C 22.039062 -16.8125 21.375 -17.171875 20.5 -17.296875 C 20.46875 -17.296875 20.421875 -17.300781 20.359375 -17.3125 C 20.296875 -17.332031 20.203125 -17.34375 20.078125 -17.34375 C 19.648438 -17.34375 19.191406 -17.226562 18.703125 -17 C 18.222656 -16.769531 17.816406 -16.367188 17.484375 -15.796875 C 17.265625 -16.304688 16.941406 -16.675781 16.515625 -16.90625 C 16.097656 -17.132812 15.679688 -17.269531 15.265625 -17.3125 C 14.859375 -17.363281 14.65625 -17.375 14.65625 -17.34375 C 13.644531 -17.25 12.878906 -16.875 12.359375 -16.21875 C 11.847656 -15.570312 11.59375 -14.804688 11.59375 -13.921875 C 11.59375 -13.367188 11.710938 -12.820312 11.953125 -12.28125 C 12.503906 -10.90625 13.300781 -9.820312 14.34375 -9.03125 C 15.394531 -8.238281 16.410156 -7.84375 17.390625 -7.84375 Z M 17.390625 -7.84375 "/></g></g></g><g fill="#2b0806" fill-opacity="1"><g transform="translate(100.008868, 30.948821)"><g><path d="M 9.859375 3.15625 C 8.210938 3.15625 6.957031 2.925781 6.09375 2.46875 C 5.226562 2.007812 4.503906 1.109375 3.921875 -0.234375 C 3.523438 -1.109375 3.226562 -2.539062 3.03125 -4.53125 C 2.832031 -6.53125 2.734375 -8.773438 2.734375 -11.265625 C 2.734375 -14.066406 2.867188 -16.6875 3.140625 -19.125 C 3.421875 -21.5625 3.816406 -23.34375 4.328125 -24.46875 C 4.972656 -25.894531 5.859375 -26.894531 6.984375 -27.46875 C 8.109375 -28.050781 9.582031 -28.34375 11.40625 -28.34375 C 13.96875 -28.34375 15.863281 -27.976562 17.09375 -27.25 C 18.320312 -26.519531 19.140625 -25.578125 19.546875 -24.421875 C 19.960938 -23.265625 20.429688 -21.300781 20.953125 -18.53125 C 21.066406 -21.601562 21.523438 -23.957031 22.328125 -25.59375 C 23.140625 -27.238281 24.644531 -28.0625 26.84375 -28.0625 C 30.1875 -28.0625 32.128906 -26.007812 32.671875 -21.90625 C 32.921875 -20.507812 33.117188 -18.773438 33.265625 -16.703125 C 33.421875 -14.628906 33.5 -12.546875 33.5 -10.453125 C 33.5 -7.921875 33.347656 -5.679688 33.046875 -3.734375 C 32.742188 -1.796875 32.253906 -0.367188 31.578125 0.546875 C 30.847656 1.578125 29.925781 2.269531 28.8125 2.625 C 27.707031 2.976562 26.226562 3.15625 24.375 3.15625 C 22.550781 3.15625 21.082031 2.8125 19.96875 2.125 C 18.851562 1.4375 17.96875 0.476562 17.3125 -0.75 C 16.664062 -1.976562 16.003906 -3.660156 15.328125 -5.796875 C 15.148438 -3.722656 14.929688 -2.085938 14.671875 -0.890625 C 14.410156 0.304688 13.90625 1.28125 13.15625 2.03125 C 12.414062 2.78125 11.316406 3.15625 9.859375 3.15625 Z M 9.859375 3.15625 "/></g></g></g><g fill="#2b0806" fill-opacity="1"><g transform="translate(142.954081, 30.948821)"><g><path d="M 13.515625 3.421875 C 11.628906 3.421875 9.921875 3.351562 8.390625 3.21875 C 6.867188 3.082031 5.773438 2.890625 5.109375 2.640625 C 4.140625 2.335938 3.300781 1.695312 2.59375 0.71875 C 1.894531 -0.25 1.546875 -1.429688 1.546875 -2.828125 C 1.546875 -6.753906 4.039062 -8.71875 9.03125 -8.71875 L 8.953125 -10.71875 C 8.828125 -13.03125 8.765625 -14.660156 8.765625 -15.609375 C 8.765625 -16.523438 8.8125 -17.179688 8.90625 -17.578125 C 6.3125 -17.578125 4.421875 -17.992188 3.234375 -18.828125 C 2.046875 -19.660156 1.425781 -21.234375 1.375 -23.546875 C 1.375 -24.890625 1.695312 -26.078125 2.34375 -27.109375 C 3 -28.140625 4.046875 -28.8125 5.484375 -29.125 C 6.691406 -29.332031 9.046875 -29.4375 12.546875 -29.4375 C 15.585938 -29.4375 18.378906 -29.335938 20.921875 -29.140625 C 23.460938 -28.941406 25.054688 -28.660156 25.703125 -28.296875 C 26.515625 -27.835938 27.207031 -27.265625 27.78125 -26.578125 C 28.363281 -25.898438 28.65625 -24.9375 28.65625 -23.6875 C 28.65625 -22.039062 28.390625 -20.757812 27.859375 -19.84375 C 27.328125 -18.9375 26.484375 -18.300781 25.328125 -17.9375 C 24.171875 -17.570312 22.601562 -17.390625 20.625 -17.390625 C 20.65625 -16.804688 20.671875 -15.96875 20.671875 -14.875 L 20.625 -8.21875 C 22.457031 -8.21875 23.863281 -8.117188 24.84375 -7.921875 C 25.832031 -7.722656 26.613281 -7.226562 27.1875 -6.4375 C 27.769531 -5.644531 28.0625 -4.378906 28.0625 -2.640625 C 28.0625 -1.546875 27.75 -0.5 27.125 0.5 C 26.507812 1.507812 25.65625 2.179688 24.5625 2.515625 C 23.613281 2.753906 22.070312 2.960938 19.9375 3.140625 C 17.8125 3.328125 15.671875 3.421875 13.515625 3.421875 Z M 13.515625 3.421875 "/></g></g></g><g fill="#2b0806" fill-opacity="1"><g transform="translate(179.692614, 30.948821)"><g><path d="M 20.265625 3.515625 C 16.609375 3.515625 13.59375 3.109375 11.21875 2.296875 C 8.851562 1.492188 6.878906 0.164062 5.296875 -1.6875 C 4.078125 -3.113281 3.117188 -4.832031 2.421875 -6.84375 C 1.722656 -8.851562 1.375 -10.894531 1.375 -12.96875 C 1.375 -14.789062 1.644531 -16.476562 2.1875 -18.03125 C 2.945312 -20.15625 4.148438 -22.109375 5.796875 -23.890625 C 7.441406 -25.671875 9.507812 -26.988281 12 -27.84375 C 13.976562 -28.507812 16.078125 -28.84375 18.296875 -28.84375 C 20.179688 -28.84375 21.953125 -28.628906 23.609375 -28.203125 C 25.273438 -27.773438 26.5625 -27.304688 27.46875 -26.796875 C 28.875 -25.972656 29.925781 -25.132812 30.625 -24.28125 C 31.320312 -23.425781 31.671875 -22.46875 31.671875 -21.40625 C 31.671875 -20.675781 31.519531 -19.898438 31.21875 -19.078125 C 30.300781 -16.703125 28.703125 -15.515625 26.421875 -15.515625 C 25.421875 -15.515625 24.023438 -15.789062 22.234375 -16.34375 C 21.617188 -16.550781 20.992188 -16.65625 20.359375 -16.65625 C 19.046875 -16.65625 17.957031 -16.242188 17.09375 -15.421875 C 16.226562 -14.597656 15.796875 -13.566406 15.796875 -12.328125 C 15.796875 -11.015625 16.160156 -9.960938 16.890625 -9.171875 C 17.617188 -8.378906 18.679688 -7.984375 20.078125 -7.984375 C 20.992188 -7.984375 22 -8.148438 23.09375 -8.484375 C 23.519531 -8.671875 24.128906 -8.765625 24.921875 -8.765625 C 26.253906 -8.765625 27.488281 -8.398438 28.625 -7.671875 C 29.769531 -6.941406 30.53125 -5.9375 30.90625 -4.65625 C 31.050781 -3.894531 31.125 -3.238281 31.125 -2.6875 C 31.125 -0.957031 30.332031 0.410156 28.75 1.421875 C 26.46875 2.816406 23.640625 3.515625 20.265625 3.515625 Z M 20.265625 3.515625 "/></g></g></g><g fill="#2b0806" fill-opacity="1"><g transform="translate(219.443205, 30.948821)"><g><path d="M 18.984375 3.328125 C 16.003906 3.328125 13.398438 2.832031 11.171875 1.84375 C 8.953125 0.851562 7.097656 -0.992188 5.609375 -3.703125 C 4.703125 -5.367188 3.992188 -7.519531 3.484375 -10.15625 C 2.984375 -12.789062 2.734375 -15.367188 2.734375 -17.890625 C 2.734375 -20.023438 2.882812 -21.65625 3.1875 -22.78125 C 3.5625 -24.175781 4.03125 -25.222656 4.59375 -25.921875 C 5.15625 -26.617188 5.820312 -27.097656 6.59375 -27.359375 C 7.375 -27.617188 8.398438 -27.75 9.671875 -27.75 C 11.585938 -27.75 12.992188 -27.300781 13.890625 -26.40625 C 14.796875 -25.507812 15.398438 -24.023438 15.703125 -21.953125 C 15.796875 -21.554688 15.84375 -20.898438 15.84375 -19.984375 L 15.796875 -17.84375 C 15.734375 -16.875 15.703125 -16.160156 15.703125 -15.703125 C 15.703125 -14.484375 15.804688 -13.570312 16.015625 -12.96875 C 16.234375 -12.382812 16.609375 -11.941406 17.140625 -11.640625 C 17.671875 -11.335938 18.269531 -11.1875 18.9375 -11.1875 C 19.582031 -11.1875 20.175781 -11.335938 20.71875 -11.640625 C 21.269531 -11.941406 21.632812 -12.382812 21.8125 -12.96875 C 22.113281 -13.8125 22.265625 -14.84375 22.265625 -16.0625 C 22.265625 -16.644531 22.25 -17.15625 22.21875 -17.59375 C 22.195312 -18.03125 22.171875 -18.40625 22.140625 -18.71875 C 22.015625 -19.875 21.953125 -20.738281 21.953125 -21.3125 C 21.953125 -21.976562 22.015625 -22.601562 22.140625 -23.1875 C 22.742188 -26.226562 24.734375 -27.75 28.109375 -27.75 C 29.816406 -27.75 31.222656 -27.304688 32.328125 -26.421875 C 33.441406 -25.546875 34.125 -24.148438 34.375 -22.234375 C 34.613281 -20.554688 34.734375 -18.648438 34.734375 -16.515625 C 34.734375 -14.054688 34.535156 -11.722656 34.140625 -9.515625 C 33.742188 -7.304688 33.195312 -5.472656 32.5 -4.015625 C 31.28125 -1.523438 29.429688 0.316406 26.953125 1.515625 C 24.472656 2.722656 21.816406 3.328125 18.984375 3.328125 Z M 18.984375 3.328125 "/></g></g></g><g fill="#2b0806" fill-opacity="1"><g transform="translate(263.620627, 30.948821)"><g><path d="M 14.828125 3.1875 C 11.273438 3.1875 8.035156 2.65625 5.109375 1.59375 C 2.492188 0.5625 1.1875 -1.109375 1.1875 -3.421875 C 1.1875 -3.972656 1.25 -4.503906 1.375 -5.015625 C 1.644531 -6.085938 2.257812 -6.929688 3.21875 -7.546875 C 4.175781 -8.171875 5.460938 -8.546875 7.078125 -8.671875 C 7.679688 -8.734375 8.078125 -8.765625 8.265625 -8.765625 C 9.085938 -8.828125 9.640625 -8.914062 9.921875 -9.03125 C 10.210938 -9.15625 10.359375 -9.445312 10.359375 -9.90625 C 10.359375 -10.332031 10.09375 -10.671875 9.5625 -10.921875 C 9.03125 -11.179688 8.25 -11.4375 7.21875 -11.6875 C 6 -11.988281 5.015625 -12.289062 4.265625 -12.59375 C 3.523438 -12.894531 2.925781 -13.335938 2.46875 -13.921875 C 1.09375 -15.648438 0.40625 -17.535156 0.40625 -19.578125 C 0.40625 -20.734375 0.625 -21.84375 1.0625 -22.90625 C 1.507812 -23.976562 2.144531 -24.953125 2.96875 -25.828125 C 5.3125 -28.265625 9.144531 -29.484375 14.46875 -29.484375 C 19.976562 -29.453125 24.039062 -28.265625 26.65625 -25.921875 C 27.351562 -25.347656 27.867188 -24.691406 28.203125 -23.953125 C 28.535156 -23.222656 28.703125 -22.476562 28.703125 -21.71875 C 28.703125 -21.539062 28.6875 -21.34375 28.65625 -21.125 C 28.625 -20.914062 28.597656 -20.75 28.578125 -20.625 C 28.390625 -19.65625 28 -18.90625 27.40625 -18.375 C 26.8125 -17.84375 25.863281 -17.515625 24.5625 -17.390625 C 24.1875 -17.359375 23.632812 -17.375 22.90625 -17.4375 L 21.90625 -17.484375 C 21.476562 -17.484375 21.15625 -17.421875 20.9375 -17.296875 C 20.726562 -17.171875 20.609375 -16.925781 20.578125 -16.5625 C 20.523438 -16.113281 20.835938 -15.628906 21.515625 -15.109375 C 22.203125 -14.585938 23.226562 -13.929688 24.59375 -13.140625 C 25.875 -12.441406 26.625 -11.972656 26.84375 -11.734375 C 27.570312 -11.035156 28.117188 -10.191406 28.484375 -9.203125 C 28.847656 -8.210938 29.03125 -7.164062 29.03125 -6.0625 C 29.03125 -4.125 28.5 -2.4375 27.4375 -1 C 26.425781 0.300781 25.226562 1.25 23.84375 1.84375 C 22.457031 2.4375 20.609375 2.84375 18.296875 3.0625 C 17.109375 3.144531 15.953125 3.1875 14.828125 3.1875 Z M 14.828125 3.1875 "/></g></g></g><g clip-path="url(#16702e73c9)"><path fill="#ffffff" d="M 39.386719 27.292969 L 39.265625 29.601562 L 30.773438 29.601562 L 30.921875 27.292969 Z M 37.4375 17.179688 C 37.4375 17.179688 37.652344 13.410156 34.449219 9.507812 C 35.183594 5.898438 34.199219 1.066406 33.261719 0.355469 C 31.5 0.457031 27.8125 1.734375 25.761719 4.949219 C 23.691406 4.21875 20.765625 4.027344 17.8125 4.753906 C 17.8125 4.753906 14.320312 1.125 10.222656 0.355469 C 8.238281 1.789062 8.859375 8.777344 8.839844 9.65625 C 7.453125 12.097656 2.214844 19.5625 10.828125 24.800781 C 9.683594 27.710938 9.226562 29.5625 9.226562 29.5625 L 30.460938 29.601562 C 30.460938 29.601562 30.855469 25.507812 31.277344 23.480469 C 31.699219 21.457031 32.089844 18.058594 32.992188 17.660156 C 33.894531 17.261719 34.597656 18.207031 34.597656 18.207031 C 34.597656 18.207031 35.617188 15.734375 36.410156 17.9375 C 36.183594 17.105469 37.4375 17.179688 37.4375 17.179688 Z M 37.4375 17.179688 " fill-opacity="1" fill-rule="nonzero"/></g><g clip-path="url(#0e13d43f3f)"><path fill="#efb07d" d="M 31.828125 20.320312 C 32.488281 17.015625 33.84375 17.34375 34.597656 18.207031 C 34.71875 17.195312 35.800781 16.867188 36.433594 17.671875 C 38.875 15.285156 39.265625 22.359375 39.265625 22.359375 L 39.265625 26.9375 C 39.265625 26.9375 38.71875 28.695312 34.972656 28.695312 C 31.707031 28.695312 30.773438 27.265625 30.773438 27.265625 C 30.773438 27.265625 31.164062 23.628906 31.828125 20.320312 Z M 17.917969 4.796875 C 17.195312 3.726562 12.542969 0 10.285156 0.359375 C 7.726562 3.277344 8.960938 9.65625 8.960938 9.65625 C 8.960938 9.65625 6.84375 12.453125 6.59375 15.15625 C 6.675781 17.148438 12.152344 20.640625 18.414062 15.453125 C 24.367188 10.523438 19.574219 4.5 19.574219 4.5 C 19.574219 4.5 18.761719 4.558594 17.917969 4.796875 Z M 32.753906 2.085938 L 30.773438 6.058594 C 30.773438 6.058594 32.542969 7.507812 33.007812 8.761719 C 33.472656 7.570312 33.597656 4.53125 32.753906 2.085938 Z M 32.753906 2.085938 " fill-opacity="1" fill-rule="nonzero"/></g><g clip-path="url(#af06dad395)"><path fill="#ef5454" d="M 39.265625 29.601562 C 39.265625 29.601562 39.265625 29.601562 35.605469 29.601562 C 38.453125 29.347656 38.800781 21.753906 38.800781 21.753906 Z M 12.414062 6.058594 C 12.414062 6.058594 10.847656 2.839844 10.585938 2.085938 C 9.921875 3.675781 9.8125 7.648438 10.332031 8.761719 C 11.347656 7.535156 12.414062 6.058594 12.414062 6.058594 Z M 30.476562 29.601562 C 30.8125 27.527344 31.273438 24.667969 31.644531 22.363281 C 31.640625 22.363281 31.640625 22.367188 31.636719 22.367188 L 32.015625 18.230469 C 31.992188 18.261719 31.960938 18.300781 31.925781 18.351562 C 31.636719 18.761719 30.988281 19.945312 30.464844 22.753906 C 28.3125 23.386719 25.480469 23.824219 21.753906 23.851562 C 7.296875 23.75 6.3125 17.480469 6.3125 17.480469 C 6.3125 17.480469 6.050781 18.324219 6.605469 19.707031 C 6.445312 19.570312 6.320312 19.464844 6.253906 19.398438 C 6.679688 22.566406 10.847656 25.011719 10.847656 25.011719 L 9.226562 29.601562 C 9.226562 29.601562 10.925781 29.601562 12.773438 29.601562 C 13.898438 25.972656 15.257812 26.066406 15.257812 26.066406 C 18.085938 26.679688 20.804688 26.84375 21.753906 26.84375 C 22.699219 26.84375 25.417969 26.679688 28.246094 26.066406 C 28.246094 26.066406 28.941406 26.019531 29.75 27.316406 C 29.457031 29.167969 29.363281 29.601562 29.363281 29.601562 Z M 25.6875 4.949219 L 27.351562 5.425781 C 27.351562 5.425781 27.976562 3.207031 30.695312 1.335938 C 28.796875 1.847656 26.75 3.203125 25.6875 4.949219 Z M 12.675781 1.335938 C 15.398438 3.207031 16.019531 5.425781 16.019531 5.425781 L 17.6875 4.949219 C 16.621094 3.203125 14.574219 1.847656 12.675781 1.335938 Z M 22.851562 18.792969 C 22.851562 18.792969 21.488281 19.105469 20.324219 18.757812 C 20.484375 20.082031 22.449219 20.203125 22.851562 18.792969 Z M 22.851562 18.792969 " fill-opacity="0.298" fill-rule="nonzero"/></g><g clip-path="url(#b7283c0c85)"><path fill="#ffffff" d="M 9.167969 4.214844 C 9.167969 4.214844 8.863281 8.367188 10.296875 10.351562 C 8.777344 11.441406 6.175781 14.988281 6.25 17.878906 C 5.675781 16 6.5 12.792969 8.769531 9.921875 C 8.539062 8.226562 8.769531 5.886719 9.167969 4.214844 Z M 31.335938 25.675781 C 32.148438 19.710938 33.535156 17.882812 33.535156 17.882812 C 31.25 17.273438 31.125 23.023438 31.335938 25.675781 Z M 7.878906 21.753906 C 7.878906 21.753906 10.675781 24.285156 12.390625 24.554688 C 11.699219 25.417969 10.296875 29.601562 10.296875 29.601562 L 9.050781 29.601562 L 10.675781 24.910156 C 10.675781 24.910156 7.945312 23.570312 7.878906 21.753906 Z M 7.878906 21.753906 " fill-opacity="1" fill-rule="nonzero"/></g><g clip-path="url(#4a451e2989)"><path fill="#2b0806" d="M 39.71875 29.601562 C 39.332031 29.601562 38.828125 29.601562 38.828125 29.601562 C 38.820312 28.152344 39.078125 20.652344 38.308594 18.125 C 37.902344 16.785156 36.632812 17.425781 36.460938 18.539062 C 36.347656 17.980469 36.214844 17.378906 35.636719 17.4375 C 34.925781 17.511719 34.632812 18.757812 34.632812 18.757812 C 34.632812 18.757812 34.0625 17.851562 33.535156 17.882812 C 32.710938 17.9375 32.164062 19.140625 31.765625 21.699219 C 31.542969 23.140625 30.96875 29.601562 30.96875 29.601562 L 30.230469 29.601562 C 30.230469 29.601562 30.636719 25.148438 30.769531 24.183594 L 30.773438 24.15625 L 30.878906 23.402344 C 31.113281 21.75 31.378906 20.25 31.636719 19.300781 C 32.300781 16.832031 33.808594 16.574219 34.488281 17.757812 C 34.835938 16.488281 36.351562 16.277344 36.511719 17.394531 C 36.5625 17.160156 36.796875 16.878906 37.128906 16.761719 C 36.996094 14.855469 36.152344 12.554688 34.121094 9.804688 C 34.5625 8.878906 35.039062 4.535156 33.171875 0.714844 C 32.230469 0.714844 29.066406 1.480469 26.015625 4.761719 C 26.535156 4.941406 27.019531 5.15625 27.429688 5.425781 C 27.304688 5.429688 24.515625 4.644531 21.726562 4.644531 C 18.941406 4.644531 16.152344 5.429688 16.027344 5.425781 C 16.4375 5.15625 16.921875 4.941406 17.441406 4.761719 C 14.390625 1.480469 11.226562 0.714844 10.285156 0.714844 C 8.417969 4.535156 8.890625 8.878906 9.335938 9.804688 C 1.972656 19.773438 10.210938 23.8125 11.382812 24.71875 C 10.722656 26.058594 9.5 29.601562 9.5 29.601562 L 8.683594 29.601562 C 8.683594 29.601562 9.476562 27.132812 10.4375 24.925781 C 3.085938 20.652344 5.464844 13.648438 8.476562 9.921875 C 7.574219 4.648438 9.441406 0.121094 10.164062 0 C 14.953125 0.90625 17.398438 3.730469 18.039062 4.578125 C 18.902344 4.339844 20.3125 3.992188 21.726562 3.992188 C 23.140625 3.992188 24.554688 4.339844 25.414062 4.578125 C 26.054688 3.730469 28.503906 0.90625 33.292969 0 C 34.015625 0.121094 35.882812 4.648438 34.980469 9.921875 C 36.40625 11.691406 37.695312 14.195312 37.867188 16.796875 C 38.113281 16.90625 38.375 17.121094 38.632812 17.480469 C 39.109375 18.160156 39.183594 19.03125 39.410156 20.792969 C 39.617188 22.414062 39.71875 28.640625 39.71875 29.601562 Z M 32.753906 2.085938 C 32.753906 2.085938 31.378906 4.011719 30.371094 6.058594 C 31.046875 6.496094 32.4375 7.925781 33.007812 8.761719 C 33.273438 8.285156 31.882812 6.261719 31.175781 5.871094 C 31.914062 5.097656 32.753906 2.085938 32.753906 2.085938 Z M 10.585938 2.085938 C 10.585938 2.085938 11.957031 4.011719 12.96875 6.058594 C 12.292969 6.496094 10.898438 7.925781 10.332031 8.761719 C 10.0625 8.285156 11.453125 6.261719 12.160156 5.871094 C 11.425781 5.097656 10.585938 2.085938 10.585938 2.085938 Z M 14.417969 11.714844 C 12.882812 12.074219 11.84375 13.589844 11.527344 14.84375 C 11.480469 15.035156 11.582031 15.1875 11.800781 15.238281 C 12.148438 15.324219 12.78125 15.148438 12.875 14.78125 C 12.996094 14.296875 13.203125 13.859375 13.488281 13.480469 C 13.703125 13.191406 14.125 12.695312 14.523438 12.597656 C 14.84375 12.519531 15.148438 13.035156 15.3125 13.3125 L 15.351562 13.378906 C 15.632812 13.847656 15.859375 14.394531 16.027344 14.996094 C 16.085938 15.207031 16.292969 15.292969 16.527344 15.292969 C 16.625 15.292969 16.726562 15.277344 16.820312 15.25 C 17.210938 15.144531 17.433594 14.894531 17.363281 14.640625 C 16.75 12.421875 15.730469 11.410156 14.417969 11.714844 Z M 31.808594 14.640625 C 31.195312 12.421875 30.175781 11.410156 28.859375 11.714844 C 27.328125 12.074219 26.289062 13.589844 25.972656 14.84375 C 25.941406 14.960938 25.96875 15.066406 26.050781 15.140625 C 26.214844 15.296875 26.546875 15.277344 26.777344 15.210938 C 27.066406 15.128906 27.269531 14.96875 27.316406 14.78125 C 27.4375 14.296875 27.644531 13.859375 27.933594 13.480469 C 28.148438 13.191406 28.570312 12.695312 28.964844 12.597656 C 29.285156 12.519531 29.59375 13.035156 29.753906 13.3125 L 29.792969 13.378906 C 30.074219 13.847656 30.304688 14.394531 30.46875 14.996094 C 30.507812 15.132812 30.617188 15.226562 30.773438 15.269531 C 30.835938 15.285156 30.902344 15.292969 30.972656 15.292969 C 31.230469 15.292969 31.523438 15.1875 31.6875 15.023438 C 31.800781 14.910156 31.84375 14.773438 31.808594 14.640625 Z M 23.890625 15.308594 C 23.730469 15.394531 23.652344 15.671875 23.808594 15.96875 C 23.902344 16.136719 23.804688 16.316406 23.738281 16.40625 C 23.5625 16.644531 23.246094 16.785156 23.003906 16.742188 C 22.585938 16.664062 22.335938 16.179688 22.164062 15.765625 C 22.082031 15.570312 21.914062 15.453125 21.722656 15.453125 C 21.53125 15.453125 21.363281 15.570312 21.28125 15.765625 C 21.140625 16.105469 20.878906 16.738281 20.441406 16.820312 C 20.257812 16.851562 20.027344 16.765625 19.839844 16.589844 C 19.570312 16.316406 19.648438 15.964844 19.679688 15.867188 C 19.683594 15.859375 19.683594 15.851562 19.6875 15.84375 L 19.75 15.675781 L 19.71875 15.675781 C 19.726562 15.5 19.65625 15.351562 19.53125 15.300781 C 19.421875 15.253906 19.261719 15.289062 19.140625 15.511719 C 18.917969 15.929688 18.902344 16.429688 19.109375 16.84375 C 19.296875 17.230469 19.65625 17.492188 20.085938 17.570312 C 20.707031 17.679688 21.269531 17.417969 21.722656 16.820312 C 22.109375 17.328125 22.574219 17.59375 23.085938 17.59375 C 23.175781 17.59375 23.265625 17.585938 23.359375 17.570312 C 23.792969 17.492188 24.148438 17.230469 24.335938 16.84375 C 24.542969 16.429688 24.53125 15.929688 24.304688 15.511719 C 24.171875 15.269531 24 15.253906 23.890625 15.308594 Z M 23.890625 15.308594 " fill-opacity="1" fill-rule="nonzero"/></g><path fill="#ef5454" d="M 35.492188 21.316406 C 35.265625 21.066406 34.363281 20.386719 33.785156 21.492188 C 33.207031 22.601562 34.785156 23.710938 35.492188 23.710938 C 36.195312 23.710938 37.773438 22.601562 37.195312 21.492188 C 36.617188 20.386719 35.714844 21.066406 35.492188 21.316406 Z M 36.042969 19.449219 C 36.042969 19.109375 35.847656 18.835938 35.605469 18.835938 C 35.363281 18.835938 35.167969 19.109375 35.167969 19.449219 C 35.167969 19.785156 35.363281 20.058594 35.605469 20.058594 C 35.847656 20.058594 36.042969 19.785156 36.042969 19.449219 Z M 37.398438 19.203125 C 37.152344 19.167969 36.90625 19.390625 36.851562 19.707031 C 36.792969 20.023438 36.945312 20.308594 37.191406 20.34375 C 37.433594 20.382812 37.679688 20.15625 37.738281 19.839844 C 37.792969 19.527344 37.644531 19.242188 37.398438 19.203125 Z M 33.867188 20.375 C 34.113281 20.304688 34.222656 19.992188 34.113281 19.675781 C 34 19.363281 33.707031 19.164062 33.460938 19.234375 C 33.214844 19.308594 33.105469 19.621094 33.214844 19.933594 C 33.328125 20.25 33.617188 20.445312 33.867188 20.375 Z M 33.867188 20.375 " fill-opacity="1" fill-rule="nonzero"/><g fill="#2b0806" fill-opacity="1"><g transform="translate(15.322746, 36.196109)"><g><path d="M 0.578125 0.03125 C 0.710938 0.03125 1.257812 -0.00390625 1.257812 -0.589844 C 1.257812 -0.832031 1.171875 -1.011719 1.058594 -1.070312 C 1.148438 -1.175781 1.222656 -1.324219 1.222656 -1.605469 C 1.222656 -1.898438 1.082031 -2.65625 0.5625 -2.65625 C 0.28125 -2.65625 0.109375 -2.59375 0.109375 -2.359375 C 0.109375 -2.230469 0.125 -2.085938 0.125 -1.96875 C 0.128906 -1.636719 0.132812 -1.355469 0.132812 -1.0625 C 0.132812 -0.871094 0.128906 -0.671875 0.125 -0.449219 C 0.121094 -0.351562 0.121094 -0.183594 0.121094 -0.183594 C 0.121094 -0.0585938 0.175781 -0.0351562 0.285156 -0.00390625 C 0.398438 0.03125 0.445312 0.03125 0.578125 0.03125 Z M 0.652344 -1.261719 C 0.539062 -1.261719 0.492188 -1.335938 0.492188 -1.433594 L 0.488281 -2.054688 C 0.488281 -2.238281 0.492188 -2.324219 0.582031 -2.324219 C 0.71875 -2.324219 0.863281 -2.058594 0.863281 -1.726562 C 0.863281 -1.472656 0.773438 -1.261719 0.652344 -1.261719 Z M 0.652344 -0.308594 C 0.539062 -0.308594 0.503906 -0.34375 0.503906 -0.503906 C 0.503906 -0.582031 0.5 -0.664062 0.511719 -0.753906 C 0.523438 -0.855469 0.535156 -0.925781 0.660156 -0.925781 C 0.78125 -0.925781 0.882812 -0.804688 0.882812 -0.621094 C 0.882812 -0.445312 0.769531 -0.308594 0.652344 -0.308594 Z M 0.652344 -0.308594 "/></g></g></g><g fill="#2b0806" fill-opacity="1"><g transform="translate(17.367912, 36.196109)"><g><path d="M 0.835938 0.0351562 C 1.019531 0.0351562 1.03125 -0.0546875 1.03125 -0.179688 C 1.03125 -0.179688 1.027344 -0.375 1.027344 -0.445312 L 1.027344 -0.886719 C 1.027344 -0.972656 1.082031 -1.128906 1.117188 -1.210938 C 1.277344 -1.625 1.433594 -2.046875 1.59375 -2.460938 C 1.605469 -2.480469 1.609375 -2.496094 1.609375 -2.515625 C 1.609375 -2.578125 1.554688 -2.636719 1.476562 -2.636719 C 1.363281 -2.636719 1.300781 -2.632812 1.234375 -2.546875 L 0.914062 -1.597656 C 0.902344 -1.554688 0.871094 -1.535156 0.839844 -1.535156 C 0.8125 -1.535156 0.78125 -1.554688 0.765625 -1.597656 L 0.449219 -2.546875 C 0.382812 -2.632812 0.320312 -2.636719 0.203125 -2.636719 C 0.125 -2.636719 0.0742188 -2.578125 0.0742188 -2.515625 C 0.0742188 -2.496094 0.078125 -2.480469 0.0898438 -2.460938 C 0.125 -2.367188 0.453125 -1.433594 0.519531 -1.246094 C 0.570312 -1.101562 0.640625 -0.972656 0.640625 -0.871094 C 0.640625 -0.769531 0.652344 -0.613281 0.652344 -0.445312 C 0.652344 -0.273438 0.648438 -0.179688 0.648438 -0.179688 C 0.648438 -0.0546875 0.691406 0.0351562 0.835938 0.0351562 Z M 0.835938 0.0351562 "/></g></g></g><g fill="#2b0806" fill-opacity="1"><g transform="translate(19.690923, 36.196109)"><g/></g></g><g fill="#2b0806" fill-opacity="1"><g transform="translate(21.184102, 36.196109)"><g><path d="M 0.835938 0.0351562 C 1.019531 0.0351562 1.03125 -0.0546875 1.03125 -0.179688 C 1.03125 -0.179688 1.027344 -0.375 1.027344 -0.445312 L 1.027344 -0.886719 C 1.027344 -0.972656 1.082031 -1.128906 1.117188 -1.210938 C 1.277344 -1.625 1.433594 -2.046875 1.59375 -2.460938 C 1.605469 -2.480469 1.609375 -2.496094 1.609375 -2.515625 C 1.609375 -2.578125 1.554688 -2.636719 1.476562 -2.636719 C 1.363281 -2.636719 1.300781 -2.632812 1.234375 -2.546875 L 0.914062 -1.597656 C 0.902344 -1.554688 0.871094 -1.535156 0.839844 -1.535156 C 0.8125 -1.535156 0.78125 -1.554688 0.765625 -1.597656 L 0.449219 -2.546875 C 0.382812 -2.632812 0.320312 -2.636719 0.203125 -2.636719 C 0.125 -2.636719 0.0742188 -2.578125 0.0742188 -2.515625 C 0.0742188 -2.496094 0.078125 -2.480469 0.0898438 -2.460938 C 0.125 -2.367188 0.453125 -1.433594 0.519531 -1.246094 C 0.570312 -1.101562 0.640625 -0.972656 0.640625 -0.871094 C 0.640625 -0.769531 0.652344 -0.613281 0.652344 -0.445312 C 0.652344 -0.273438 0.648438 -0.179688 0.648438 -0.179688 C 0.648438 -0.0546875 0.691406 0.0351562 0.835938 0.0351562 Z M 0.835938 0.0351562 "/></g></g></g><g fill="#2b0806" fill-opacity="1"><g transform="translate(23.507113, 36.196109)"><g><path d="M 0.804688 0.0273438 C 1.203125 0.0273438 1.496094 -0.476562 1.496094 -1.328125 C 1.496094 -1.71875 1.425781 -2.046875 1.308594 -2.273438 C 1.1875 -2.507812 1.011719 -2.640625 0.804688 -2.640625 C 0.394531 -2.640625 0.109375 -2.117188 0.109375 -1.328125 C 0.109375 -0.476562 0.402344 0.0273438 0.804688 0.0273438 Z M 0.804688 -0.3125 C 0.605469 -0.3125 0.46875 -0.734375 0.46875 -1.359375 C 0.46875 -1.921875 0.605469 -2.304688 0.804688 -2.304688 C 0.886719 -2.304688 0.957031 -2.238281 1.011719 -2.125 C 1.09375 -1.960938 1.136719 -1.691406 1.136719 -1.359375 C 1.136719 -0.734375 1.003906 -0.3125 0.804688 -0.3125 Z M 0.804688 -0.3125 "/></g></g></g><g fill="#2b0806" fill-opacity="1"><g transform="translate(25.793077, 36.196109)"><g><path d="M 0.742188 0.0351562 C 0.976562 0.0351562 1.175781 -0.09375 1.269531 -0.3125 C 1.332031 -0.445312 1.367188 -0.789062 1.367188 -1.246094 C 1.367188 -1.5625 1.371094 -1.824219 1.371094 -1.96875 C 1.371094 -2.113281 1.386719 -2.292969 1.386719 -2.441406 C 1.386719 -2.539062 1.367188 -2.621094 1.171875 -2.621094 C 0.988281 -2.621094 0.980469 -2.515625 0.980469 -2.398438 C 0.980469 -2.261719 0.996094 -2.097656 0.996094 -1.96875 C 0.996094 -1.839844 1.007812 -1.261719 1.007812 -1.0625 C 1.007812 -0.523438 0.933594 -0.332031 0.746094 -0.332031 C 0.5625 -0.332031 0.492188 -0.519531 0.492188 -1.058594 L 0.5 -1.96875 C 0.5 -2.113281 0.515625 -2.292969 0.515625 -2.441406 C 0.515625 -2.539062 0.496094 -2.621094 0.300781 -2.621094 C 0.117188 -2.621094 0.109375 -2.515625 0.109375 -2.398438 C 0.109375 -2.261719 0.125 -2.097656 0.125 -1.96875 C 0.128906 -1.636719 0.132812 -1.355469 0.132812 -1.0625 C 0.132812 -1 0.128906 -0.9375 0.128906 -0.882812 C 0.128906 -0.597656 0.148438 -0.398438 0.175781 -0.324219 C 0.261719 -0.0976562 0.472656 0.0351562 0.742188 0.0351562 Z M 0.742188 0.0351562 "/></g></g></g><g clip-path="url(#c68a534f99)"><path fill="#ef5454" d="M 7.035156 33.183594 C 6.855469 34.707031 6.707031 34.855469 5.183594 35.035156 C 5.1875 35.035156 5.191406 35.035156 5.191406 35.035156 C 6.707031 35.214844 6.855469 35.363281 7.035156 36.886719 C 7.214844 35.363281 7.359375 35.214844 8.882812 35.035156 C 7.359375 34.855469 7.214844 34.707031 7.035156 33.183594 Z M 7.035156 33.183594 " fill-opacity="1" fill-rule="nonzero"/></g><g clip-path="url(#2127bbd04a)"><path fill="#ef5454" d="M 35.484375 32.605469 C 35.304688 34.128906 35.15625 34.277344 33.632812 34.457031 C 33.636719 34.457031 33.640625 34.457031 33.644531 34.457031 C 35.15625 34.636719 35.304688 34.785156 35.484375 36.304688 C 35.664062 34.78125 35.8125 34.636719 37.335938 34.457031 C 35.8125 34.277344 35.664062 34.128906 35.484375 32.605469 Z M 35.484375 32.605469 " fill-opacity="1" fill-rule="nonzero"/></g></svg>