<svg xmlns="http://www.w3.org/2000/svg" xmlns:xlink="http://www.w3.org/1999/xlink" width="500" zoomAndPan="magnify" viewBox="0 0 375 374.999991" height="500" preserveAspectRatio="xMidYMid meet" version="1.0"><defs><g/><clipPath id="f0ec4566a3"><path d="M 106.988281 106.988281 L 268.011719 106.988281 L 268.011719 268.011719 L 106.988281 268.011719 Z M 106.988281 106.988281 " clip-rule="nonzero"/></clipPath><clipPath id="bada344e9f"><path d="M 187.5 106.988281 C 143.035156 106.988281 106.988281 143.035156 106.988281 187.5 C 106.988281 231.964844 143.035156 268.011719 187.5 268.011719 C 231.964844 268.011719 268.011719 231.964844 268.011719 187.5 C 268.011719 143.035156 231.964844 106.988281 187.5 106.988281 " clip-rule="nonzero"/></clipPath><clipPath id="630a6ea495"><path d="M 149 150 L 235 150 L 235 225.21875 L 149 225.21875 Z M 149 150 " clip-rule="nonzero"/></clipPath><clipPath id="afdd2639b8"><path d="M 150 152 L 235 152 L 235 225.21875 L 150 225.21875 Z M 150 152 " clip-rule="nonzero"/></clipPath><clipPath id="fdad16d348"><path d="M 149 160 L 220 160 L 220 225.21875 L 149 225.21875 Z M 149 160 " clip-rule="nonzero"/></clipPath><clipPath id="f92dbd4726"><path d="M 148 149.46875 L 235.527344 149.46875 L 235.527344 225.21875 L 148 225.21875 Z M 148 149.46875 " clip-rule="nonzero"/></clipPath><clipPath id="1f2640b6ec"><path d="M 122.339844 173.125 L 125.339844 173.125 L 125.339844 176.125 L 122.339844 176.125 Z M 122.339844 173.125 " clip-rule="nonzero"/></clipPath><clipPath id="b09a636a79"><path d="M 249.84375 173.125 L 252.84375 173.125 L 252.84375 176.125 L 249.84375 176.125 Z M 249.84375 173.125 " clip-rule="nonzero"/></clipPath><clipPath id="d5a53a581d"><path d="M 146.542969 238.847656 L 156.292969 238.847656 L 156.292969 248.597656 L 146.542969 248.597656 Z M 146.542969 238.847656 " clip-rule="nonzero"/></clipPath><clipPath id="b6d52d0bb7"><path d="M 218.746094 238.847656 L 228.496094 238.847656 L 228.496094 248.597656 L 218.746094 248.597656 Z M 218.746094 238.847656 " clip-rule="nonzero"/></clipPath></defs><g clip-path="url(#f0ec4566a3)"><g clip-path="url(#bada344e9f)"><path fill="#ffdbbd" d="M 106.988281 106.988281 L 268.011719 106.988281 L 268.011719 268.011719 L 106.988281 268.011719 Z M 106.988281 106.988281 " fill-opacity="1" fill-rule="nonzero"/></g></g><g clip-path="url(#630a6ea495)"><path fill="#ffffff" d="M 234.675781 219.308594 L 234.367188 225.210938 L 212.769531 225.210938 L 213.152344 219.308594 Z M 229.714844 193.425781 C 229.714844 193.425781 230.265625 183.78125 222.117188 173.792969 C 223.984375 164.5625 221.480469 152.199219 219.105469 150.378906 C 214.613281 150.636719 205.238281 153.910156 200.03125 162.136719 C 194.757812 160.265625 187.316406 159.773438 179.808594 161.636719 C 179.808594 161.636719 170.925781 152.351562 160.507812 150.378906 C 155.453125 154.046875 157.039062 171.925781 156.984375 174.175781 C 153.464844 180.425781 140.136719 199.527344 162.042969 212.925781 C 159.128906 220.375 157.972656 225.109375 157.972656 225.109375 L 211.980469 225.210938 C 211.980469 225.210938 212.976562 214.738281 214.050781 209.550781 C 215.121094 204.367188 216.121094 195.675781 218.414062 194.65625 C 220.707031 193.636719 222.496094 196.054688 222.496094 196.054688 C 222.496094 196.054688 225.089844 189.726562 227.113281 195.367188 C 226.53125 193.234375 229.714844 193.425781 229.714844 193.425781 Z M 229.714844 193.425781 " fill-opacity="1" fill-rule="nonzero"/></g><path fill="#efb07d" d="M 215.449219 201.46875 C 217.136719 193.003906 220.582031 193.84375 222.496094 196.054688 C 222.804688 193.460938 225.5625 192.625 227.167969 194.683594 C 233.375 188.582031 234.367188 206.679688 234.367188 206.679688 L 234.367188 218.390625 C 234.367188 218.390625 232.980469 222.890625 223.457031 222.890625 C 215.144531 222.890625 212.769531 219.230469 212.769531 219.230469 C 212.769531 219.230469 213.765625 209.929688 215.449219 201.46875 Z M 180.078125 161.746094 C 178.242188 159.007812 166.40625 149.46875 160.664062 150.386719 C 154.152344 157.859375 157.292969 174.175781 157.292969 174.175781 C 157.292969 174.175781 151.914062 181.332031 151.277344 188.25 C 151.484375 193.347656 165.414062 202.28125 181.34375 189.011719 C 196.476562 176.398438 184.292969 160.984375 184.292969 160.984375 C 184.292969 160.984375 182.222656 161.128906 180.078125 161.746094 Z M 217.804688 154.808594 L 212.769531 164.972656 C 212.769531 164.972656 217.269531 168.683594 218.453125 171.886719 C 219.636719 168.835938 219.953125 161.0625 217.804688 154.808594 Z M 217.804688 154.808594 " fill-opacity="1" fill-rule="nonzero"/><g clip-path="url(#afdd2639b8)"><path fill="#ef5454" d="M 234.367188 225.210938 C 234.367188 225.210938 234.367188 225.210938 225.0625 225.210938 C 232.300781 224.558594 233.183594 205.128906 233.183594 205.128906 Z M 166.074219 164.972656 C 166.074219 164.972656 162.09375 156.742188 161.429688 154.808594 C 159.742188 158.875 159.464844 169.039062 160.777344 171.886719 C 163.363281 168.753906 166.074219 164.972656 166.074219 164.972656 Z M 212.019531 225.210938 C 212.871094 219.898438 214.042969 212.585938 214.984375 206.691406 C 214.980469 206.695312 214.976562 206.695312 214.972656 206.699219 L 215.933594 196.117188 C 215.871094 196.191406 215.792969 196.292969 215.699219 196.429688 C 214.96875 197.480469 213.316406 200.503906 211.984375 207.695312 C 206.515625 209.3125 199.3125 210.429688 189.828125 210.492188 C 153.0625 210.242188 150.558594 194.195312 150.558594 194.195312 C 150.558594 194.195312 149.894531 196.359375 151.304688 199.894531 C 150.894531 199.546875 150.582031 199.273438 150.410156 199.105469 C 151.492188 207.210938 162.09375 213.460938 162.09375 213.460938 L 157.972656 225.210938 C 157.972656 225.210938 162.296875 225.210938 166.996094 225.210938 C 169.855469 215.921875 173.308594 216.164062 173.308594 216.164062 C 180.507812 217.730469 187.417969 218.15625 189.828125 218.15625 C 192.242188 218.15625 199.152344 217.730469 206.347656 216.164062 C 206.347656 216.164062 208.117188 216.039062 210.167969 219.367188 C 209.421875 224.101562 209.183594 225.207031 209.183594 225.207031 Z M 199.835938 162.136719 L 204.074219 163.347656 C 204.074219 163.347656 205.65625 157.679688 212.574219 152.890625 C 207.75 154.199219 202.542969 157.667969 199.835938 162.136719 Z M 166.746094 152.890625 C 173.667969 157.679688 175.25 163.347656 175.25 163.347656 L 179.488281 162.136719 C 176.78125 157.667969 171.574219 154.199219 166.746094 152.890625 Z M 192.625 197.554688 C 192.625 197.554688 189.15625 198.351562 186.191406 197.46875 C 186.601562 200.855469 191.605469 201.164062 192.625 197.554688 Z M 192.625 197.554688 " fill-opacity="0.298" fill-rule="nonzero"/></g><g clip-path="url(#fdad16d348)"><path fill="#ffffff" d="M 157.824219 160.253906 C 157.824219 160.253906 157.046875 170.875 160.691406 175.957031 C 156.832031 178.75 150.214844 187.824219 150.402344 195.214844 C 148.945312 190.414062 151.035156 182.203125 156.804688 174.859375 C 156.21875 170.515625 156.804688 164.535156 157.824219 160.253906 Z M 214.199219 215.167969 C 216.265625 199.902344 219.800781 195.230469 219.800781 195.230469 C 213.988281 193.667969 213.664062 208.378906 214.199219 215.167969 Z M 154.546875 205.128906 C 154.546875 205.128906 161.660156 211.605469 166.023438 212.292969 C 164.261719 214.503906 160.691406 225.210938 160.691406 225.210938 L 157.523438 225.210938 L 161.660156 213.207031 C 161.660156 213.207031 154.710938 209.78125 154.546875 205.128906 Z M 154.546875 205.128906 " fill-opacity="1" fill-rule="nonzero"/></g><g clip-path="url(#f92dbd4726)"><path fill="#2b0806" d="M 235.519531 225.210938 C 234.542969 225.210938 233.257812 225.210938 233.257812 225.210938 C 233.238281 221.5 233.894531 202.308594 231.941406 195.84375 C 230.90625 192.417969 227.675781 194.054688 227.238281 196.902344 C 226.945312 195.472656 226.613281 193.9375 225.144531 194.089844 C 223.332031 194.277344 222.589844 197.464844 222.589844 197.464844 C 222.589844 197.464844 221.132812 195.140625 219.800781 195.230469 C 217.695312 195.367188 216.308594 198.445312 215.300781 204.996094 C 214.734375 208.679688 213.273438 225.210938 213.273438 225.210938 L 211.394531 225.210938 C 211.394531 225.210938 212.425781 213.816406 212.757812 211.347656 L 212.769531 211.277344 L 213.035156 209.351562 C 213.640625 205.121094 214.3125 201.285156 214.964844 198.859375 C 216.652344 192.539062 220.492188 191.875 222.21875 194.910156 C 223.105469 191.65625 226.957031 191.113281 227.363281 193.976562 C 227.492188 193.378906 228.089844 192.660156 228.933594 192.359375 C 228.597656 187.480469 226.453125 181.597656 221.28125 174.554688 C 222.414062 172.191406 223.617188 161.070312 218.871094 151.300781 C 216.472656 151.300781 208.429688 153.257812 200.671875 161.65625 C 201.988281 162.113281 203.226562 162.667969 204.269531 163.347656 C 203.945312 163.359375 196.855469 161.355469 189.769531 161.355469 C 182.679688 161.355469 175.589844 163.359375 175.265625 163.347656 C 176.308594 162.667969 177.546875 162.113281 178.867188 161.65625 C 171.105469 153.257812 163.0625 151.300781 160.664062 151.300781 C 155.917969 161.070312 157.121094 172.191406 158.253906 174.554688 C 139.523438 200.0625 160.472656 210.394531 163.457031 212.710938 C 161.773438 216.144531 158.671875 225.210938 158.671875 225.210938 L 156.589844 225.210938 C 156.589844 225.210938 158.601562 218.890625 161.054688 213.25 C 142.355469 202.308594 148.40625 184.390625 156.066406 174.859375 C 153.769531 161.367188 158.519531 149.777344 160.355469 149.46875 C 172.535156 151.789062 178.761719 159.011719 180.390625 161.183594 C 182.578125 160.574219 186.171875 159.679688 189.769531 159.679688 C 193.359375 159.679688 196.953125 160.570312 199.144531 161.183594 C 200.773438 159.011719 207 151.789062 219.179688 149.46875 C 221.015625 149.777344 225.765625 161.367188 223.46875 174.859375 C 227.101562 179.382812 230.371094 185.792969 230.808594 192.453125 C 231.4375 192.730469 232.105469 193.273438 232.757812 194.199219 C 233.972656 195.933594 234.160156 198.167969 234.734375 202.667969 C 235.261719 206.824219 235.519531 222.757812 235.519531 225.210938 Z M 217.804688 154.808594 C 217.804688 154.808594 214.3125 159.730469 211.746094 164.96875 C 213.464844 166.09375 217.007812 169.753906 218.453125 171.886719 C 219.132812 170.667969 215.597656 165.496094 213.796875 164.492188 C 215.671875 162.507812 217.804688 154.808594 217.804688 154.808594 Z M 161.429688 154.808594 C 161.429688 154.808594 164.921875 159.730469 167.488281 164.96875 C 165.765625 166.09375 162.226562 169.753906 160.777344 171.886719 C 160.097656 170.667969 163.636719 165.496094 165.4375 164.492188 C 163.5625 162.507812 161.429688 154.808594 161.429688 154.808594 Z M 171.171875 179.449219 C 167.273438 180.363281 164.632812 184.238281 163.828125 187.449219 C 163.703125 187.9375 163.96875 188.328125 164.515625 188.460938 C 165.398438 188.683594 167.007812 188.234375 167.246094 187.289062 C 167.554688 186.054688 168.082031 184.933594 168.808594 183.960938 C 169.359375 183.226562 170.429688 181.957031 171.441406 181.707031 C 172.253906 181.503906 173.03125 182.824219 173.449219 183.535156 L 173.546875 183.703125 C 174.261719 184.90625 174.839844 186.296875 175.265625 187.84375 C 175.414062 188.382812 175.949219 188.597656 176.539062 188.597656 C 176.785156 188.597656 177.042969 188.5625 177.289062 188.496094 C 178.277344 188.222656 178.847656 187.582031 178.667969 186.933594 C 177.105469 181.25 174.515625 178.664062 171.171875 179.449219 Z M 215.402344 186.933594 C 213.839844 181.25 211.25 178.664062 207.90625 179.449219 C 204.007812 180.363281 201.367188 184.238281 200.5625 187.449219 C 200.484375 187.746094 200.554688 188.015625 200.757812 188.210938 C 201.179688 188.613281 202.019531 188.558594 202.613281 188.390625 C 203.347656 188.179688 203.859375 187.769531 203.980469 187.289062 C 204.289062 186.054688 204.816406 184.933594 205.542969 183.960938 C 206.09375 183.226562 207.164062 181.957031 208.175781 181.707031 C 208.988281 181.503906 209.765625 182.828125 210.183594 183.535156 L 210.28125 183.703125 C 210.996094 184.90625 211.574219 186.296875 212 187.84375 C 212.09375 188.1875 212.371094 188.433594 212.773438 188.539062 C 212.929688 188.582031 213.097656 188.597656 213.273438 188.597656 C 213.933594 188.597656 214.683594 188.332031 215.097656 187.914062 C 215.386719 187.621094 215.496094 187.273438 215.402344 186.933594 Z M 195.269531 188.640625 C 194.855469 188.863281 194.65625 189.566406 195.0625 190.324219 C 195.296875 190.761719 195.046875 191.21875 194.875 191.449219 C 194.429688 192.054688 193.628906 192.421875 193.011719 192.308594 C 191.953125 192.109375 191.3125 190.867188 190.875 189.808594 C 190.671875 189.3125 190.242188 189.007812 189.753906 189.007812 C 189.265625 189.007812 188.835938 189.3125 188.632812 189.808594 C 188.273438 190.675781 187.605469 192.296875 186.496094 192.503906 C 186.023438 192.589844 185.4375 192.363281 184.96875 191.914062 C 184.273438 191.21875 184.480469 190.3125 184.558594 190.066406 C 184.566406 190.046875 184.570312 190.03125 184.578125 190.003906 L 184.738281 189.574219 L 184.660156 189.574219 C 184.679688 189.128906 184.5 188.746094 184.179688 188.613281 C 183.902344 188.503906 183.496094 188.589844 183.1875 189.164062 C 182.617188 190.234375 182.585938 191.503906 183.101562 192.566406 C 183.585938 193.554688 184.492188 194.230469 185.59375 194.425781 C 187.171875 194.703125 188.605469 194.039062 189.753906 192.503906 C 190.734375 193.8125 191.914062 194.484375 193.21875 194.484375 C 193.449219 194.484375 193.679688 194.464844 193.914062 194.425781 C 195.015625 194.230469 195.921875 193.554688 196.402344 192.566406 C 196.921875 191.503906 196.890625 190.234375 196.320312 189.164062 C 195.988281 188.542969 195.546875 188.496094 195.269531 188.640625 Z M 195.269531 188.640625 " fill-opacity="1" fill-rule="nonzero"/></g><path fill="#ef5454" d="M 224.769531 204.007812 C 224.195312 203.367188 221.90625 201.628906 220.433594 204.464844 C 218.960938 207.300781 222.980469 210.136719 224.769531 210.136719 C 226.558594 210.136719 230.578125 207.300781 229.105469 204.464844 C 227.632812 201.628906 225.34375 203.367188 224.769531 204.007812 Z M 226.175781 199.230469 C 226.175781 198.367188 225.675781 197.664062 225.0625 197.664062 C 224.449219 197.664062 223.953125 198.367188 223.953125 199.230469 C 223.953125 200.097656 224.449219 200.796875 225.0625 200.796875 C 225.675781 200.796875 226.175781 200.097656 226.175781 199.230469 Z M 229.621094 198.605469 C 228.996094 198.511719 228.375 199.089844 228.226562 199.894531 C 228.082031 200.699219 228.46875 201.429688 229.089844 201.523438 C 229.714844 201.617188 230.335938 201.042969 230.484375 200.234375 C 230.628906 199.429688 230.242188 198.699219 229.621094 198.605469 Z M 220.636719 201.601562 C 221.269531 201.421875 221.546875 200.621094 221.261719 199.816406 C 220.976562 199.011719 220.238281 198.507812 219.609375 198.6875 C 218.976562 198.871094 218.699219 199.667969 218.984375 200.472656 C 219.269531 201.277344 220.007812 201.785156 220.636719 201.601562 Z M 220.636719 201.601562 " fill-opacity="1" fill-rule="nonzero"/><g clip-path="url(#1f2640b6ec)"><path fill="#2b0806" d="M 125.339844 174.625 C 125.339844 174.824219 125.300781 175.015625 125.226562 175.199219 C 125.152344 175.382812 125.042969 175.542969 124.902344 175.683594 C 124.761719 175.824219 124.597656 175.933594 124.414062 176.007812 C 124.230469 176.085938 124.039062 176.125 123.839844 176.125 C 123.640625 176.125 123.449219 176.085938 123.265625 176.007812 C 123.082031 175.933594 122.921875 175.824219 122.78125 175.683594 C 122.640625 175.542969 122.53125 175.382812 122.453125 175.199219 C 122.378906 175.015625 122.339844 174.824219 122.339844 174.625 C 122.339844 174.425781 122.378906 174.234375 122.453125 174.050781 C 122.53125 173.867188 122.640625 173.703125 122.78125 173.5625 C 122.921875 173.421875 123.082031 173.3125 123.265625 173.238281 C 123.449219 173.160156 123.640625 173.125 123.839844 173.125 C 124.039062 173.125 124.230469 173.160156 124.414062 173.238281 C 124.597656 173.3125 124.761719 173.421875 124.902344 173.5625 C 125.042969 173.703125 125.152344 173.867188 125.226562 174.050781 C 125.300781 174.234375 125.339844 174.425781 125.339844 174.625 Z M 125.339844 174.625 " fill-opacity="1" fill-rule="nonzero"/></g><g clip-path="url(#b09a636a79)"><path fill="#2b0806" d="M 252.84375 174.625 C 252.84375 174.824219 252.804688 175.015625 252.730469 175.199219 C 252.652344 175.382812 252.542969 175.542969 252.402344 175.683594 C 252.261719 175.824219 252.101562 175.933594 251.917969 176.007812 C 251.734375 176.085938 251.542969 176.125 251.34375 176.125 C 251.144531 176.125 250.953125 176.085938 250.769531 176.007812 C 250.585938 175.933594 250.421875 175.824219 250.28125 175.683594 C 250.140625 175.542969 250.035156 175.382812 249.957031 175.199219 C 249.882812 175.015625 249.84375 174.824219 249.84375 174.625 C 249.84375 174.425781 249.882812 174.234375 249.957031 174.050781 C 250.035156 173.867188 250.140625 173.703125 250.28125 173.5625 C 250.421875 173.421875 250.585938 173.3125 250.769531 173.238281 C 250.953125 173.160156 251.144531 173.125 251.34375 173.125 C 251.542969 173.125 251.734375 173.160156 251.917969 173.238281 C 252.101562 173.3125 252.261719 173.421875 252.402344 173.5625 C 252.542969 173.703125 252.652344 173.867188 252.730469 174.050781 C 252.804688 174.234375 252.84375 174.425781 252.84375 174.625 Z M 252.84375 174.625 " fill-opacity="1" fill-rule="nonzero"/></g><g fill="#2b0806" fill-opacity="1"><g transform="translate(162.217466, 136.491221)"><g><path d="M 0.972656 -0.175781 C 1.585938 -0.40625 1.800781 -0.585938 1.75 -1.167969 C 1.714844 -1.570312 1.667969 -1.839844 1.664062 -2.101562 C 1.65625 -2.476562 1.78125 -2.84375 2.394531 -3.074219 C 3.007812 -3.304688 3.34375 -3.113281 3.585938 -2.824219 C 3.753906 -2.625 3.898438 -2.394531 4.136719 -2.066406 C 4.484375 -1.59375 4.761719 -1.605469 5.375 -1.835938 C 5.839844 -2.007812 5.933594 -2.308594 5.820312 -2.609375 C 5.785156 -2.707031 5.730469 -2.800781 5.652344 -2.902344 C 5.28125 -3.386719 1.644531 -9.332031 0.726562 -10.914062 C 0.503906 -11.300781 0.0507812 -12.113281 -0.117188 -12.558594 C -0.289062 -13.007812 -0.722656 -13.164062 -1.320312 -12.9375 C -1.914062 -12.714844 -2.140625 -12.308594 -1.972656 -11.863281 C -1.804688 -11.414062 -1.613281 -10.503906 -1.523438 -10.066406 C -1.167969 -8.273438 0.0195312 -1.40625 0.0585938 -0.796875 C 0.0703125 -0.667969 0.0898438 -0.5625 0.128906 -0.464844 C 0.238281 -0.164062 0.507812 -0.00390625 0.972656 -0.175781 Z M 1.878906 -4.449219 C 1.5625 -4.332031 1.234375 -4.246094 1.125 -4.695312 C 0.996094 -5.230469 0.109375 -8.695312 0.257812 -8.75 C 0.40625 -8.808594 2.023438 -5.617188 2.28125 -5.128906 C 2.492188 -4.71875 2.207031 -4.574219 1.878906 -4.449219 Z M 1.878906 -4.449219 "/></g></g></g><g fill="#2b0806" fill-opacity="1"><g transform="translate(170.505897, 133.488931)"><g><path d="M 6.410156 -5.234375 L 5.996094 -7.277344 L 5.34375 -10.664062 C 5.207031 -11.339844 5.105469 -12.203125 4.964844 -12.898438 C 4.875 -13.347656 4.710938 -13.710938 3.792969 -13.527344 C 2.941406 -13.355469 3.003906 -12.859375 3.117188 -12.304688 C 3.25 -11.664062 3.472656 -10.917969 3.59375 -10.308594 C 3.90625 -8.859375 4.285156 -7.257812 4.554688 -5.9375 C 4.589844 -5.765625 4.519531 -5.660156 4.433594 -5.644531 C 4.34375 -5.625 4.246094 -5.679688 4.164062 -5.804688 C 2.820312 -8.078125 0.683594 -11.847656 0.402344 -12.261719 C 0.015625 -12.832031 -0.386719 -12.679688 -1.078125 -12.539062 L -1.132812 -12.527344 C -1.925781 -12.347656 -1.859375 -11.855469 -1.753906 -11.320312 C -1.621094 -10.679688 -1.398438 -9.929688 -1.277344 -9.324219 C -0.945312 -7.785156 -0.660156 -6.46875 -0.382812 -5.101562 C -0.203125 -4.199219 -0.0273438 -3.261719 0.164062 -2.214844 C 0.238281 -1.761719 0.394531 -0.984375 0.394531 -0.984375 C 0.515625 -0.394531 0.8125 -0.00390625 1.488281 -0.140625 C 2.335938 -0.3125 2.300781 -0.753906 2.183594 -1.34375 C 2.183594 -1.34375 2.023438 -2.125 1.914062 -2.570312 C 1.777344 -3.15625 1.664062 -3.710938 1.539062 -4.246094 L 0.976562 -7.019531 C 0.960938 -7.195312 1.046875 -7.304688 1.167969 -7.328125 C 1.273438 -7.347656 1.390625 -7.300781 1.46875 -7.171875 L 4.457031 -1.878906 C 4.875 -1.148438 5.386719 -0.929688 6.359375 -1.125 C 7.207031 -1.296875 7.171875 -1.742188 7.050781 -2.332031 C 7.050781 -2.332031 6.894531 -3.109375 6.785156 -3.558594 C 6.648438 -4.144531 6.535156 -4.699219 6.410156 -5.234375 Z M 6.410156 -5.234375 "/></g></g></g><g fill="#2b0806" fill-opacity="1"><g transform="translate(180.420926, 131.78391)"><g><path d="M 1.492188 0.0546875 C 2.359375 -0.00390625 2.378906 -0.449219 2.335938 -1.050781 C 2.335938 -1.050781 2.28125 -1.84375 2.234375 -2.300781 C 2.171875 -2.898438 2.132812 -3.464844 2.078125 -4.011719 L 1.949219 -6.09375 L 1.726562 -9.535156 C 1.679688 -10.222656 1.6875 -11.089844 1.640625 -11.796875 C 1.609375 -12.257812 1.492188 -12.636719 0.558594 -12.574219 C -0.308594 -12.511719 -0.308594 -12.015625 -0.269531 -11.453125 C -0.222656 -10.796875 -0.0976562 -10.027344 -0.0546875 -9.410156 C 0.0742188 -7.839844 0.183594 -6.5 0.28125 -5.109375 C 0.34375 -4.191406 0.394531 -3.238281 0.449219 -2.175781 C 0.464844 -1.714844 0.519531 -0.921875 0.519531 -0.921875 C 0.5625 -0.324219 0.804688 0.101562 1.492188 0.0546875 Z M 1.492188 0.0546875 "/></g></g></g><g fill="#2b0806" fill-opacity="1"><g transform="translate(185.555065, 131.42955)"><g><path d="M 3.558594 0.316406 C 5.328125 0.414062 6.5 -0.976562 6.636719 -3.5 C 6.648438 -3.75 6.496094 -4.164062 5.859375 -4.199219 C 5.417969 -4.222656 4.992188 -4.226562 4.957031 -3.539062 C 4.882812 -2.160156 4.355469 -1.25 3.648438 -1.289062 C 2.851562 -1.332031 2.433594 -3.375 2.59375 -6.359375 C 2.738281 -9.042969 3.472656 -10.828125 4.425781 -10.777344 C 5.027344 -10.742188 5.371094 -9.539062 5.273438 -7.789062 C 5.324219 -7.398438 5.503906 -7.085938 6.101562 -7.054688 C 6.703125 -7.023438 7.019531 -7.289062 7.046875 -7.820312 C 7.191406 -10.46875 6.15625 -12.292969 4.480469 -12.386719 C 2.519531 -12.492188 1.074219 -10.054688 0.871094 -6.292969 C 0.652344 -2.25 1.652344 0.214844 3.558594 0.316406 Z M 3.558594 0.316406 "/></g></g></g><g fill="#2b0806" fill-opacity="1"><g transform="translate(194.620466, 132.072133)"><g><path d="M 3.421875 0.910156 C 4.53125 1.144531 5.574219 0.734375 6.242188 -0.1875 C 6.652344 -0.753906 7.167969 -2.324219 7.621094 -4.453125 C 7.9375 -5.9375 8.214844 -7.144531 8.355469 -7.820312 C 8.5 -8.496094 8.75 -9.328125 8.898438 -10.019531 C 8.996094 -10.46875 8.988281 -10.867188 8.070312 -11.0625 C 7.222656 -11.246094 7.085938 -10.765625 6.96875 -10.214844 C 6.832031 -9.574219 6.738281 -8.796875 6.609375 -8.191406 C 6.480469 -7.585938 5.957031 -4.878906 5.761719 -3.960938 C 5.222656 -1.4375 4.691406 -0.628906 3.808594 -0.816406 C 2.960938 -0.996094 2.816406 -1.929688 3.355469 -4.457031 L 4.292969 -8.6875 C 4.4375 -9.359375 4.6875 -10.195312 4.832031 -10.886719 C 4.929688 -11.335938 4.925781 -11.734375 4.007812 -11.929688 C 3.160156 -12.109375 3.023438 -11.632812 2.902344 -11.082031 C 2.769531 -10.441406 2.675781 -9.664062 2.546875 -9.058594 C 2.234375 -7.515625 1.972656 -6.199219 1.679688 -4.832031 C 1.617188 -4.539062 1.539062 -4.246094 1.484375 -3.988281 C 1.199219 -2.65625 1.085938 -1.703125 1.132812 -1.332031 C 1.324219 -0.1875 2.175781 0.644531 3.421875 0.910156 Z M 3.421875 0.910156 "/></g></g></g><g fill="#2b0806" fill-opacity="1"><g transform="translate(203.495271, 134.135271)"><g><path d="M 2.78125 1.242188 C 4.304688 1.820312 5.921875 1.636719 6.511719 0.0820312 C 7.226562 -1.800781 5.984375 -2.421875 5.097656 -4.273438 C 4.523438 -5.453125 4.703125 -6.519531 4.902344 -7.050781 C 5.515625 -8.671875 6.332031 -9.328125 6.910156 -9.105469 C 7.421875 -8.914062 7.550781 -7.957031 6.980469 -6.453125 C 6.789062 -5.9375 6.539062 -5.429688 6.257812 -4.988281 C 6.027344 -4.375 6.207031 -4.058594 6.722656 -3.863281 C 7.117188 -3.714844 7.429688 -3.84375 7.664062 -4.207031 C 8.082031 -4.863281 8.476562 -5.601562 8.75 -6.328125 C 9.585938 -8.53125 9.164062 -10.011719 7.492188 -10.644531 C 5.757812 -11.304688 4.21875 -10.335938 3.121094 -7.441406 C 2.683594 -6.285156 2.382812 -4.394531 4.617188 -1.351562 C 4.726562 -1.199219 4.898438 -0.90625 4.800781 -0.640625 C 4.636719 -0.210938 4.015625 -0.164062 3.484375 -0.363281 C 2.808594 -0.621094 2.410156 -1.074219 2.34375 -1.589844 C 2.28125 -2.027344 2.070312 -2.316406 1.722656 -2.449219 C 1.492188 -2.535156 1.230469 -2.445312 1.054688 -1.984375 C 0.570312 -0.710938 1.425781 0.730469 2.78125 1.242188 Z M 2.78125 1.242188 "/></g></g></g><g fill="#2b0806" fill-opacity="1"><g transform="translate(169.931521, 246.496801)"><g><path d="M 0.855469 0.09375 C 1.167969 0.09375 1.261719 -0.0742188 1.261719 -0.460938 L 1.234375 -2.15625 C 1.234375 -2.304688 1.347656 -2.429688 1.476562 -2.429688 C 1.675781 -2.429688 2.484375 -2.410156 2.484375 -2.765625 C 2.484375 -3.171875 1.929688 -3.246094 1.5625 -3.246094 C 1.382812 -3.246094 1.28125 -3.304688 1.28125 -3.578125 C 1.28125 -3.851562 1.261719 -4.996094 1.261719 -5.355469 C 1.261719 -5.570312 1.316406 -5.675781 1.5625 -5.714844 C 1.742188 -5.742188 2.136719 -5.722656 2.457031 -5.789062 C 2.777344 -5.855469 2.890625 -6.136719 2.890625 -6.289062 C 2.890625 -6.4375 2.738281 -6.617188 2.503906 -6.617188 C 2.269531 -6.617188 0.941406 -6.664062 0.640625 -6.65625 C 0.339844 -6.644531 0.28125 -6.324219 0.28125 -5.996094 C 0.28125 -5.667969 0.320312 -5.300781 0.320312 -4.996094 C 0.328125 -4.160156 0.339844 -3.445312 0.339844 -2.703125 C 0.339844 -2.210938 0.328125 -1.636719 0.320312 -1.074219 C 0.3125 -0.828125 0.3125 -0.40625 0.3125 -0.40625 C 0.3125 0.0195312 0.546875 0.09375 0.855469 0.09375 Z M 0.855469 0.09375 "/></g></g></g><g fill="#2b0806" fill-opacity="1"><g transform="translate(174.834756, 246.496801)"><g><path d="M 2.042969 0.0664062 C 3.058594 0.0664062 3.800781 -1.214844 3.800781 -3.371094 C 3.800781 -4.367188 3.625 -5.195312 3.324219 -5.777344 C 3.011719 -6.371094 2.570312 -6.710938 2.042969 -6.710938 C 0.996094 -6.710938 0.28125 -5.375 0.28125 -3.371094 C 0.28125 -1.214844 1.027344 0.0664062 2.042969 0.0664062 Z M 2.042969 -0.789062 C 1.535156 -0.789062 1.195312 -1.863281 1.195312 -3.453125 C 1.195312 -4.886719 1.535156 -5.855469 2.042969 -5.855469 C 2.25 -5.855469 2.429688 -5.683594 2.570312 -5.394531 C 2.777344 -4.980469 2.890625 -4.292969 2.890625 -3.453125 C 2.890625 -1.863281 2.550781 -0.789062 2.042969 -0.789062 Z M 2.042969 -0.789062 "/></g></g></g><g fill="#2b0806" fill-opacity="1"><g transform="translate(180.641354, 246.496801)"><g><path d="M 2.917969 0.105469 C 3.097656 0.105469 3.371094 0.0390625 3.371094 -0.1875 C 3.371094 -0.40625 3.21875 -0.46875 2.785156 -1.167969 C 2.558594 -1.523438 2.382812 -1.996094 2.289062 -2.417969 C 2.410156 -2.484375 2.542969 -2.589844 2.691406 -2.71875 C 2.890625 -2.910156 3.105469 -3.359375 3.105469 -4.074219 C 3.105469 -4.820312 2.75 -6.75 1.429688 -6.75 C 0.714844 -6.75 0.28125 -6.589844 0.28125 -5.996094 C 0.28125 -5.667969 0.320312 -5.300781 0.320312 -4.996094 C 0.328125 -4.160156 0.339844 -3.445312 0.339844 -2.703125 C 0.339844 -2.210938 0.328125 -1.703125 0.320312 -1.140625 C 0.3125 -0.894531 0.3125 -0.46875 0.3125 -0.46875 C 0.3125 -0.152344 0.421875 0.0859375 0.789062 0.0859375 C 1.25 0.0859375 1.28125 -0.152344 1.28125 -0.46875 C 1.28125 -0.46875 1.28125 -0.894531 1.269531 -1.140625 C 1.261719 -1.308594 1.261719 -1.449219 1.261719 -1.5625 C 1.261719 -1.808594 1.269531 -1.957031 1.300781 -2.050781 C 1.308594 -2.089844 1.335938 -2.109375 1.363281 -2.109375 C 1.402344 -2.109375 1.449219 -2.070312 1.457031 -2.015625 C 1.570312 -1.535156 1.910156 -0.921875 2.144531 -0.535156 C 2.351562 -0.1875 2.523438 0 2.765625 0.0859375 C 2.796875 0.09375 2.851562 0.105469 2.917969 0.105469 Z M 1.65625 -3.304688 C 1.363281 -3.304688 1.25 -3.484375 1.25 -3.738281 L 1.25 -5.222656 C 1.242188 -5.683594 1.25 -5.902344 1.476562 -5.902344 C 1.824219 -5.902344 2.175781 -5.234375 2.175781 -4.386719 C 2.175781 -3.738281 1.96875 -3.304688 1.65625 -3.304688 Z M 1.65625 -3.304688 "/></g></g></g><g fill="#2b0806" fill-opacity="1"><g transform="translate(185.751612, 246.496801)"><g/></g></g><g fill="#2b0806" fill-opacity="1"><g transform="translate(189.54445, 246.496801)"><g><path d="M 2.128906 0.09375 C 2.589844 0.09375 2.617188 -0.140625 2.617188 -0.460938 C 2.617188 -0.460938 2.605469 -0.949219 2.605469 -1.128906 L 2.605469 -2.25 C 2.605469 -2.476562 2.75 -2.871094 2.84375 -3.078125 C 3.246094 -4.132812 3.644531 -5.195312 4.046875 -6.25 C 4.074219 -6.296875 4.085938 -6.34375 4.085938 -6.390625 C 4.085938 -6.550781 3.953125 -6.703125 3.753906 -6.703125 C 3.464844 -6.703125 3.304688 -6.683594 3.132812 -6.464844 L 2.324219 -4.058594 C 2.289062 -3.953125 2.210938 -3.898438 2.136719 -3.898438 C 2.0625 -3.898438 1.984375 -3.953125 1.949219 -4.058594 L 1.140625 -6.464844 C 0.96875 -6.683594 0.808594 -6.703125 0.519531 -6.703125 C 0.320312 -6.703125 0.1875 -6.550781 0.1875 -6.390625 C 0.1875 -6.34375 0.199219 -6.296875 0.226562 -6.25 C 0.320312 -6.015625 1.148438 -3.644531 1.316406 -3.164062 C 1.449219 -2.796875 1.628906 -2.464844 1.628906 -2.210938 C 1.628906 -1.957031 1.65625 -1.5625 1.65625 -1.128906 C 1.65625 -0.695312 1.648438 -0.460938 1.648438 -0.460938 C 1.648438 -0.140625 1.761719 0.09375 2.128906 0.09375 Z M 2.128906 0.09375 "/></g></g></g><g fill="#2b0806" fill-opacity="1"><g transform="translate(195.445152, 246.496801)"><g><path d="M 2.042969 0.0664062 C 3.058594 0.0664062 3.800781 -1.214844 3.800781 -3.371094 C 3.800781 -4.367188 3.625 -5.195312 3.324219 -5.777344 C 3.011719 -6.371094 2.570312 -6.710938 2.042969 -6.710938 C 0.996094 -6.710938 0.28125 -5.375 0.28125 -3.371094 C 0.28125 -1.214844 1.027344 0.0664062 2.042969 0.0664062 Z M 2.042969 -0.789062 C 1.535156 -0.789062 1.195312 -1.863281 1.195312 -3.453125 C 1.195312 -4.886719 1.535156 -5.855469 2.042969 -5.855469 C 2.25 -5.855469 2.429688 -5.683594 2.570312 -5.394531 C 2.777344 -4.980469 2.890625 -4.292969 2.890625 -3.453125 C 2.890625 -1.863281 2.550781 -0.789062 2.042969 -0.789062 Z M 2.042969 -0.789062 "/></g></g></g><g fill="#2b0806" fill-opacity="1"><g transform="translate(201.25175, 246.496801)"><g><path d="M 1.882812 0.09375 C 2.484375 0.09375 2.984375 -0.234375 3.226562 -0.789062 C 3.378906 -1.128906 3.472656 -2.003906 3.472656 -3.164062 C 3.472656 -3.972656 3.484375 -4.632812 3.484375 -4.996094 C 3.484375 -5.363281 3.519531 -5.828125 3.519531 -6.203125 C 3.519531 -6.449219 3.472656 -6.65625 2.972656 -6.65625 C 2.511719 -6.65625 2.496094 -6.390625 2.496094 -6.089844 C 2.496094 -5.742188 2.53125 -5.328125 2.53125 -4.996094 C 2.53125 -4.667969 2.558594 -3.199219 2.558594 -2.703125 C 2.558594 -1.328125 2.371094 -0.847656 1.890625 -0.847656 C 1.429688 -0.847656 1.25 -1.316406 1.25 -2.691406 L 1.269531 -4.996094 C 1.269531 -5.363281 1.308594 -5.828125 1.308594 -6.203125 C 1.308594 -6.449219 1.261719 -6.65625 0.761719 -6.65625 C 0.300781 -6.65625 0.28125 -6.390625 0.28125 -6.089844 C 0.28125 -5.742188 0.320312 -5.328125 0.320312 -4.996094 C 0.328125 -4.160156 0.339844 -3.445312 0.339844 -2.703125 C 0.339844 -2.542969 0.328125 -2.382812 0.328125 -2.238281 C 0.328125 -1.515625 0.375 -1.007812 0.441406 -0.820312 C 0.667969 -0.246094 1.203125 0.09375 1.882812 0.09375 Z M 1.882812 0.09375 "/></g></g></g><g clip-path="url(#d5a53a581d)"><path fill="#ef5454" d="M 151.417969 238.847656 C 150.945312 242.863281 150.558594 243.246094 146.542969 243.722656 C 146.554688 243.722656 146.5625 243.726562 146.570312 243.726562 C 150.5625 244.199219 150.945312 244.589844 151.417969 248.597656 C 151.894531 244.582031 152.28125 244.199219 156.292969 243.722656 C 152.28125 243.246094 151.894531 242.863281 151.417969 238.847656 Z M 151.417969 238.847656 " fill-opacity="1" fill-rule="nonzero"/></g><g clip-path="url(#b6d52d0bb7)"><path fill="#ef5454" d="M 223.621094 238.847656 C 223.148438 242.863281 222.761719 243.246094 218.746094 243.722656 C 218.757812 243.722656 218.765625 243.726562 218.773438 243.726562 C 222.765625 244.199219 223.148438 244.589844 223.621094 248.597656 C 224.097656 244.582031 224.484375 244.199219 228.496094 243.722656 C 224.484375 243.246094 224.097656 242.863281 223.621094 238.847656 Z M 223.621094 238.847656 " fill-opacity="1" fill-rule="nonzero"/></g></svg>