<svg xmlns="http://www.w3.org/2000/svg" xmlns:xlink="http://www.w3.org/1999/xlink" width="500" zoomAndPan="magnify" viewBox="0 0 375 374.999991" height="500" preserveAspectRatio="xMidYMid meet" version="1.0"><defs><g/><clipPath id="9943c0b5d7"><path d="M 26.855469 26.855469 L 348.144531 26.855469 L 348.144531 348.144531 L 26.855469 348.144531 Z M 26.855469 26.855469 " clip-rule="nonzero"/></clipPath><clipPath id="40f80da51b"><path d="M 187.5 26.855469 C 98.777344 26.855469 26.855469 98.777344 26.855469 187.5 C 26.855469 276.222656 98.777344 348.144531 187.5 348.144531 C 276.222656 348.144531 348.144531 276.222656 348.144531 187.5 C 348.144531 98.777344 276.222656 26.855469 187.5 26.855469 " clip-rule="nonzero"/></clipPath><clipPath id="26d137851d"><path d="M 112 113 L 282 113 L 282 263.121094 L 112 263.121094 Z M 112 113 " clip-rule="nonzero"/></clipPath><clipPath id="b65d2472e9"><path d="M 113 118 L 281 118 L 281 263.121094 L 113 263.121094 Z M 113 118 " clip-rule="nonzero"/></clipPath><clipPath id="ed9de4bb4b"><path d="M 112 133 L 252 133 L 252 263.121094 L 112 263.121094 Z M 112 133 " clip-rule="nonzero"/></clipPath><clipPath id="16e128ad5c"><path d="M 110 111.621094 L 283.027344 111.621094 L 283.027344 263.121094 L 110 263.121094 Z M 110 111.621094 " clip-rule="nonzero"/></clipPath><clipPath id="fb3bd05031"><path d="M 57.488281 158.816406 L 62.738281 158.816406 L 62.738281 164.066406 L 57.488281 164.066406 Z M 57.488281 158.816406 " clip-rule="nonzero"/></clipPath><clipPath id="98a1a591dd"><path d="M 311.890625 158.816406 L 317.140625 158.816406 L 317.140625 164.066406 L 311.890625 164.066406 Z M 311.890625 158.816406 " clip-rule="nonzero"/></clipPath><clipPath id="c5a22023aa"><path d="M 105.78125 289.953125 L 125.28125 289.953125 L 125.28125 309.453125 L 105.78125 309.453125 Z M 105.78125 289.953125 " clip-rule="nonzero"/></clipPath><clipPath id="eda4d9f4cc"><path d="M 249.847656 289.953125 L 269.347656 289.953125 L 269.347656 309.453125 L 249.847656 309.453125 Z M 249.847656 289.953125 " clip-rule="nonzero"/></clipPath></defs><g clip-path="url(#9943c0b5d7)"><g clip-path="url(#40f80da51b)"><path fill="#ffdbbd" d="M 26.855469 26.855469 L 348.144531 26.855469 L 348.144531 348.144531 L 26.855469 348.144531 Z M 26.855469 26.855469 " fill-opacity="1" fill-rule="nonzero"/></g></g><g clip-path="url(#26d137851d)"><path fill="#ffffff" d="M 281.335938 251.292969 L 280.722656 263.101562 L 237.695312 263.101562 L 238.457031 251.292969 Z M 271.453125 199.53125 C 271.453125 199.53125 272.550781 180.246094 256.316406 160.269531 C 260.039062 141.808594 255.050781 117.074219 250.316406 113.433594 C 241.371094 113.957031 222.691406 120.496094 212.316406 136.949219 C 201.8125 133.210938 186.984375 132.226562 172.03125 135.953125 C 172.03125 135.953125 154.332031 117.378906 133.582031 113.433594 C 123.511719 120.773438 126.667969 156.535156 126.5625 161.03125 C 119.542969 173.53125 92.992188 211.738281 136.632812 238.527344 C 130.835938 253.429688 128.527344 262.894531 128.527344 262.894531 L 236.117188 263.105469 C 236.117188 263.105469 238.109375 242.152344 240.246094 231.785156 C 242.378906 221.417969 244.367188 204.027344 248.9375 201.992188 C 253.503906 199.957031 257.074219 204.789062 257.074219 204.789062 C 257.074219 204.789062 262.238281 192.132812 266.269531 203.414062 C 265.109375 199.144531 271.453125 199.53125 271.453125 199.53125 Z M 271.453125 199.53125 " fill-opacity="1" fill-rule="nonzero"/></g><path fill="#efb07d" d="M 243.035156 215.613281 C 246.394531 198.6875 253.257812 200.367188 257.074219 204.789062 C 257.683594 199.605469 263.175781 197.925781 266.382812 202.042969 C 278.742188 189.84375 280.722656 226.035156 280.722656 226.035156 L 280.722656 249.464844 C 280.722656 249.464844 277.957031 258.460938 258.984375 258.460938 C 242.429688 258.460938 237.695312 251.140625 237.695312 251.140625 C 237.695312 251.140625 239.679688 232.539062 243.035156 215.613281 Z M 172.566406 136.175781 C 168.90625 130.699219 145.332031 111.621094 133.886719 113.453125 C 120.917969 128.398438 127.171875 161.03125 127.171875 161.03125 C 127.171875 161.03125 116.460938 175.34375 115.1875 189.175781 C 115.597656 199.375 143.351562 217.242188 175.085938 190.703125 C 205.238281 165.480469 180.957031 134.648438 180.957031 134.648438 C 180.957031 134.648438 176.839844 134.941406 172.566406 136.175781 Z M 247.722656 122.296875 L 237.695312 142.628906 C 237.695312 142.628906 246.65625 150.050781 249.015625 156.453125 C 251.378906 150.355469 252.003906 134.800781 247.722656 122.296875 Z M 247.722656 122.296875 " fill-opacity="1" fill-rule="nonzero"/><g clip-path="url(#b65d2472e9)"><path fill="#ef5454" d="M 280.722656 263.101562 C 280.722656 263.101562 280.722656 263.101562 262.183594 263.101562 C 276.605469 261.796875 278.363281 222.9375 278.363281 222.9375 Z M 144.667969 142.628906 C 144.667969 142.628906 136.734375 126.160156 135.410156 122.296875 C 132.054688 130.429688 131.503906 150.761719 134.117188 156.453125 C 139.265625 150.1875 144.667969 142.628906 144.667969 142.628906 Z M 236.203125 263.101562 C 237.898438 252.476562 240.230469 237.851562 242.105469 226.066406 C 242.097656 226.070312 242.089844 226.074219 242.078125 226.078125 L 244 204.914062 C 243.875 205.0625 243.71875 205.265625 243.53125 205.539062 C 242.078125 207.640625 238.785156 213.691406 236.128906 228.066406 C 225.230469 231.304688 210.882812 233.539062 191.992188 233.667969 C 118.746094 233.164062 113.757812 201.066406 113.757812 201.066406 C 113.757812 201.066406 112.433594 205.394531 115.246094 212.464844 C 114.425781 211.773438 113.804688 211.226562 113.460938 210.886719 C 115.617188 227.101562 136.734375 239.601562 136.734375 239.601562 L 128.527344 263.105469 C 128.527344 263.105469 137.140625 263.105469 146.5 263.105469 C 152.195312 244.519531 159.082031 245.007812 159.082031 245.007812 C 173.417969 248.144531 187.1875 248.988281 191.992188 248.988281 C 196.796875 248.988281 210.566406 248.144531 224.902344 245.007812 C 224.902344 245.007812 228.421875 244.761719 232.511719 251.414062 C 231.027344 260.882812 230.550781 263.09375 230.550781 263.09375 Z M 211.925781 136.949219 L 220.371094 139.375 C 220.371094 139.375 223.523438 128.035156 237.304688 118.457031 C 227.691406 121.078125 217.316406 128.019531 211.925781 136.949219 Z M 146.007812 118.457031 C 159.792969 128.035156 162.945312 139.375 162.945312 139.375 L 171.386719 136.949219 C 165.996094 128.019531 155.621094 121.078125 146.007812 118.457031 Z M 197.566406 207.792969 C 197.566406 207.792969 190.648438 209.378906 184.75 207.617188 C 185.5625 214.394531 195.53125 215.003906 197.566406 207.792969 Z M 197.566406 207.792969 " fill-opacity="0.298" fill-rule="nonzero"/></g><g clip-path="url(#ed9de4bb4b)"><path fill="#ffffff" d="M 128.230469 133.1875 C 128.230469 133.1875 126.683594 154.429688 133.949219 164.589844 C 126.257812 170.175781 113.074219 188.328125 113.445312 203.109375 C 110.542969 193.507812 114.707031 177.085938 126.203125 162.402344 C 125.035156 153.707031 126.203125 141.75 128.230469 133.1875 Z M 240.542969 243.019531 C 244.660156 212.484375 251.699219 203.136719 251.699219 203.136719 C 240.117188 200.011719 239.476562 229.4375 240.542969 243.019531 Z M 121.703125 222.9375 C 121.703125 222.9375 135.871094 235.894531 144.566406 237.265625 C 141.058594 241.6875 133.949219 263.105469 133.949219 263.105469 L 127.628906 263.105469 L 135.871094 239.09375 C 135.871094 239.09375 122.027344 232.246094 121.703125 222.9375 Z M 121.703125 222.9375 " fill-opacity="1" fill-rule="nonzero"/></g><g clip-path="url(#16e128ad5c)"><path fill="#2b0806" d="M 283.011719 263.101562 C 281.066406 263.101562 278.511719 263.101562 278.511719 263.101562 C 278.472656 255.675781 279.78125 217.296875 275.886719 204.363281 C 273.824219 197.519531 267.390625 200.789062 266.519531 206.488281 C 265.933594 203.628906 265.273438 200.550781 262.347656 200.855469 C 258.734375 201.230469 257.257812 207.613281 257.257812 207.613281 C 257.257812 207.613281 254.355469 202.964844 251.699219 203.136719 C 247.507812 203.410156 244.746094 209.566406 242.734375 222.671875 C 241.605469 230.039062 238.699219 263.101562 238.699219 263.101562 L 234.953125 263.101562 C 234.953125 263.101562 237.011719 240.3125 237.671875 235.375 L 237.691406 235.234375 L 238.222656 231.382812 C 239.429688 222.921875 240.769531 215.25 242.066406 210.394531 C 245.433594 197.761719 253.074219 196.429688 256.519531 202.5 C 258.289062 195.992188 265.960938 194.910156 266.769531 200.632812 C 267.023438 199.4375 268.214844 198 269.894531 197.398438 C 269.226562 187.640625 264.953125 175.871094 254.652344 161.789062 C 256.90625 157.0625 259.308594 134.820312 249.851562 115.285156 C 245.070312 115.285156 229.050781 119.195312 213.589844 135.996094 C 216.214844 136.902344 218.683594 138.015625 220.757812 139.375 C 220.113281 139.402344 205.992188 135.394531 191.871094 135.394531 C 177.746094 135.394531 163.625 139.402344 162.980469 139.375 C 165.054688 138.015625 167.523438 136.902344 170.148438 135.996094 C 154.6875 119.195312 138.667969 115.285156 133.886719 115.285156 C 124.429688 134.820312 126.832031 157.0625 129.085938 161.792969 C 91.773438 212.800781 133.511719 233.46875 139.457031 238.105469 C 136.097656 244.964844 129.917969 263.101562 129.917969 263.101562 L 125.773438 263.101562 C 125.773438 263.101562 129.785156 250.464844 134.667969 239.179688 C 97.417969 217.296875 109.472656 181.460938 124.730469 162.402344 C 120.152344 135.414062 129.613281 112.234375 133.277344 111.621094 C 157.542969 116.257812 169.941406 130.707031 173.1875 135.046875 C 177.542969 133.824219 184.707031 132.042969 191.871094 132.042969 C 199.023438 132.042969 206.183594 133.820312 210.554688 135.046875 C 213.796875 130.707031 226.195312 116.257812 250.464844 111.621094 C 254.125 112.234375 263.585938 135.414062 259.007812 162.402344 C 266.25 171.445312 272.761719 184.265625 273.632812 197.582031 C 274.886719 198.136719 276.210938 199.222656 277.511719 201.078125 C 279.9375 204.546875 280.304688 209.015625 281.449219 218.019531 C 282.507812 226.328125 283.011719 258.191406 283.011719 263.101562 Z M 247.722656 122.296875 C 247.722656 122.296875 240.765625 132.140625 235.652344 142.621094 C 239.082031 144.863281 246.136719 152.183594 249.015625 156.453125 C 250.375 154.011719 243.328125 143.671875 239.738281 141.664062 C 243.472656 137.699219 247.722656 122.296875 247.722656 122.296875 Z M 135.410156 122.296875 C 135.410156 122.296875 142.367188 132.140625 147.484375 142.621094 C 144.054688 144.863281 137 152.183594 134.117188 156.453125 C 132.761719 154.011719 139.808594 143.671875 143.398438 141.664062 C 139.660156 137.699219 135.410156 122.296875 135.410156 122.296875 Z M 154.824219 171.574219 C 147.054688 173.40625 141.792969 181.152344 140.1875 187.574219 C 139.945312 188.554688 140.46875 189.332031 141.558594 189.605469 C 143.324219 190.046875 146.53125 189.148438 147.003906 187.257812 C 147.617188 184.789062 148.667969 182.550781 150.117188 180.601562 C 151.210938 179.132812 153.347656 176.59375 155.363281 176.089844 C 156.980469 175.6875 158.527344 178.332031 159.359375 179.753906 L 159.554688 180.085938 C 160.980469 182.488281 162.132812 185.273438 162.976562 188.363281 C 163.273438 189.449219 164.339844 189.875 165.515625 189.875 C 166.007812 189.875 166.523438 189.800781 167.007812 189.667969 C 168.980469 189.128906 170.113281 187.84375 169.757812 186.542969 C 166.644531 175.183594 161.484375 170.007812 154.824219 171.574219 Z M 242.9375 186.542969 C 239.828125 175.179688 234.664062 170.007812 228.007812 171.574219 C 220.238281 173.40625 214.976562 181.152344 213.371094 187.574219 C 213.222656 188.171875 213.363281 188.710938 213.761719 189.097656 C 214.601562 189.90625 216.277344 189.800781 217.457031 189.460938 C 218.925781 189.039062 219.945312 188.214844 220.183594 187.257812 C 220.800781 184.789062 221.847656 182.550781 223.300781 180.601562 C 224.394531 179.132812 226.53125 176.59375 228.542969 176.089844 C 230.164062 175.6875 231.710938 178.332031 232.542969 179.753906 L 232.738281 180.085938 C 234.164062 182.488281 235.316406 185.273438 236.160156 188.363281 C 236.347656 189.050781 236.898438 189.546875 237.703125 189.757812 C 238.011719 189.839844 238.351562 189.878906 238.699219 189.878906 C 240.011719 189.878906 241.503906 189.34375 242.332031 188.507812 C 242.910156 187.925781 243.125 187.226562 242.9375 186.542969 Z M 202.828125 189.964844 C 202.003906 190.402344 201.613281 191.8125 202.417969 193.328125 C 202.886719 194.207031 202.386719 195.113281 202.046875 195.578125 C 201.15625 196.785156 199.5625 197.523438 198.335938 197.296875 C 196.222656 196.898438 194.949219 194.414062 194.074219 192.296875 C 193.667969 191.308594 192.8125 190.691406 191.839844 190.691406 C 190.871094 190.691406 190.015625 191.308594 189.609375 192.296875 C 188.890625 194.035156 187.558594 197.273438 185.351562 197.683594 C 184.410156 197.859375 183.242188 197.40625 182.308594 196.507812 C 180.925781 195.121094 181.339844 193.308594 181.488281 192.816406 C 181.503906 192.777344 181.515625 192.738281 181.53125 192.6875 L 181.851562 191.832031 L 181.691406 191.832031 C 181.734375 190.933594 181.378906 190.167969 180.734375 189.910156 C 180.183594 189.6875 179.375 189.855469 178.761719 191.007812 C 177.621094 193.144531 177.558594 195.691406 178.59375 197.8125 C 179.554688 199.785156 181.359375 201.140625 183.554688 201.527344 C 186.699219 202.085938 189.550781 200.757812 191.84375 197.6875 C 193.792969 200.300781 196.148438 201.652344 198.746094 201.652344 C 199.199219 201.652344 199.664062 201.609375 200.128906 201.527344 C 202.324219 201.140625 204.128906 199.785156 205.089844 197.8125 C 206.125 195.691406 206.0625 193.144531 204.921875 191.007812 C 204.261719 189.765625 203.378906 189.671875 202.828125 189.964844 Z M 202.828125 189.964844 " fill-opacity="1" fill-rule="nonzero"/></g><path fill="#ef5454" d="M 261.601562 220.695312 C 260.460938 219.414062 255.898438 215.9375 252.964844 221.609375 C 250.03125 227.28125 258.035156 232.953125 261.601562 232.953125 C 265.167969 232.953125 273.171875 227.28125 270.238281 221.609375 C 267.304688 215.9375 262.742188 219.414062 261.601562 220.695312 Z M 264.398438 211.140625 C 264.398438 209.410156 263.40625 208.007812 262.183594 208.007812 C 260.960938 208.007812 259.972656 209.410156 259.972656 211.140625 C 259.972656 212.871094 260.960938 214.277344 262.183594 214.277344 C 263.40625 214.277344 264.398438 212.871094 264.398438 211.140625 Z M 271.265625 209.890625 C 270.023438 209.703125 268.78125 210.855469 268.492188 212.46875 C 268.199219 214.082031 268.96875 215.539062 270.210938 215.730469 C 271.449219 215.917969 272.691406 214.761719 272.984375 213.152344 C 273.273438 211.539062 272.503906 210.078125 271.265625 209.890625 Z M 253.371094 215.886719 C 254.625 215.523438 255.179688 213.921875 254.613281 212.3125 C 254.046875 210.703125 252.570312 209.691406 251.316406 210.054688 C 250.0625 210.417969 249.507812 212.019531 250.074219 213.628906 C 250.640625 215.238281 252.117188 216.25 253.371094 215.886719 Z M 253.371094 215.886719 " fill-opacity="1" fill-rule="nonzero"/><g clip-path="url(#fb3bd05031)"><path fill="#2b0806" d="M 62.738281 161.441406 C 62.738281 161.789062 62.671875 162.125 62.539062 162.445312 C 62.40625 162.765625 62.214844 163.050781 61.96875 163.296875 C 61.722656 163.542969 61.441406 163.734375 61.117188 163.867188 C 60.796875 164 60.460938 164.066406 60.113281 164.066406 C 59.765625 164.066406 59.429688 164 59.109375 163.867188 C 58.789062 163.734375 58.503906 163.542969 58.257812 163.296875 C 58.011719 163.050781 57.824219 162.765625 57.6875 162.445312 C 57.554688 162.125 57.488281 161.789062 57.488281 161.441406 C 57.488281 161.09375 57.554688 160.757812 57.6875 160.4375 C 57.824219 160.113281 58.011719 159.832031 58.257812 159.585938 C 58.503906 159.339844 58.789062 159.148438 59.109375 159.015625 C 59.429688 158.882812 59.765625 158.816406 60.113281 158.816406 C 60.460938 158.816406 60.796875 158.882812 61.117188 159.015625 C 61.441406 159.148438 61.722656 159.339844 61.96875 159.585938 C 62.214844 159.832031 62.40625 160.113281 62.539062 160.4375 C 62.671875 160.757812 62.738281 161.09375 62.738281 161.441406 Z M 62.738281 161.441406 " fill-opacity="1" fill-rule="nonzero"/></g><g clip-path="url(#98a1a591dd)"><path fill="#2b0806" d="M 317.140625 161.441406 C 317.140625 161.789062 317.074219 162.125 316.941406 162.445312 C 316.808594 162.765625 316.617188 163.050781 316.371094 163.296875 C 316.125 163.542969 315.84375 163.734375 315.519531 163.867188 C 315.199219 164 314.863281 164.066406 314.515625 164.066406 C 314.167969 164.066406 313.832031 164 313.511719 163.867188 C 313.191406 163.734375 312.90625 163.542969 312.660156 163.296875 C 312.414062 163.050781 312.226562 162.765625 312.089844 162.445312 C 311.957031 162.125 311.890625 161.789062 311.890625 161.441406 C 311.890625 161.09375 311.957031 160.757812 312.089844 160.4375 C 312.226562 160.113281 312.414062 159.832031 312.660156 159.585938 C 312.90625 159.339844 313.191406 159.148438 313.511719 159.015625 C 313.832031 158.882812 314.167969 158.816406 314.515625 158.816406 C 314.863281 158.816406 315.199219 158.882812 315.519531 159.015625 C 315.84375 159.148438 316.125 159.339844 316.371094 159.585938 C 316.617188 159.832031 316.808594 160.113281 316.941406 160.4375 C 317.074219 160.757812 317.140625 161.09375 317.140625 161.441406 Z M 317.140625 161.441406 " fill-opacity="1" fill-rule="nonzero"/></g><g fill="#2b0806" fill-opacity="1"><g transform="translate(137.054389, 85.723389)"><g><path d="M 1.941406 -0.355469 C 3.164062 -0.8125 3.59375 -1.164062 3.496094 -2.335938 C 3.417969 -3.136719 3.332031 -3.667969 3.324219 -4.191406 C 3.304688 -4.941406 3.554688 -5.675781 4.777344 -6.136719 C 6 -6.597656 6.671875 -6.207031 7.152344 -5.636719 C 7.492188 -5.234375 7.777344 -4.777344 8.25 -4.125 C 8.945312 -3.179688 9.503906 -3.203125 10.722656 -3.660156 C 11.648438 -4.011719 11.839844 -4.609375 11.613281 -5.203125 C 11.539062 -5.402344 11.433594 -5.585938 11.277344 -5.792969 C 10.539062 -6.757812 3.28125 -18.617188 1.453125 -21.773438 C 1.007812 -22.550781 0.0976562 -24.167969 -0.238281 -25.058594 C -0.574219 -25.953125 -1.445312 -26.265625 -2.632812 -25.816406 C -3.824219 -25.371094 -4.273438 -24.558594 -3.9375 -23.667969 C -3.601562 -22.777344 -3.21875 -20.960938 -3.039062 -20.082031 C -2.332031 -16.503906 0.0390625 -2.804688 0.117188 -1.589844 C 0.136719 -1.335938 0.179688 -1.125 0.253906 -0.925781 C 0.480469 -0.332031 1.015625 -0.00390625 1.941406 -0.355469 Z M 3.746094 -8.875 C 3.117188 -8.640625 2.464844 -8.46875 2.242188 -9.367188 C 1.988281 -10.4375 0.214844 -17.351562 0.511719 -17.460938 C 0.808594 -17.574219 4.035156 -11.210938 4.554688 -10.234375 C 4.976562 -9.414062 4.40625 -9.125 3.746094 -8.875 Z M 3.746094 -8.875 "/></g></g></g><g fill="#2b0806" fill-opacity="1"><g transform="translate(153.592092, 79.733074)"><g><path d="M 12.789062 -10.441406 L 11.964844 -14.519531 L 10.664062 -21.277344 C 10.390625 -22.628906 10.1875 -24.351562 9.90625 -25.734375 C 9.726562 -26.632812 9.398438 -27.359375 7.566406 -26.988281 C 5.871094 -26.644531 5.996094 -25.660156 6.222656 -24.554688 C 6.480469 -23.273438 6.925781 -21.78125 7.171875 -20.570312 C 7.796875 -17.671875 8.550781 -14.476562 9.085938 -11.851562 C 9.152344 -11.503906 9.015625 -11.296875 8.84375 -11.261719 C 8.671875 -11.226562 8.46875 -11.328125 8.308594 -11.585938 C 5.628906 -16.117188 1.367188 -23.644531 0.804688 -24.464844 C 0.03125 -25.605469 -0.769531 -25.296875 -2.152344 -25.019531 L -2.257812 -24.996094 C -3.839844 -24.640625 -3.714844 -23.65625 -3.496094 -22.585938 C -3.238281 -21.304688 -2.789062 -19.8125 -2.546875 -18.601562 C -1.886719 -15.53125 -1.320312 -12.910156 -0.765625 -10.179688 C -0.402344 -8.378906 -0.0585938 -6.503906 0.328125 -4.421875 C 0.476562 -3.515625 0.789062 -1.960938 0.789062 -1.960938 C 1.027344 -0.785156 1.621094 -0.00390625 2.96875 -0.277344 C 4.664062 -0.621094 4.589844 -1.507812 4.351562 -2.683594 C 4.351562 -2.683594 4.039062 -4.238281 3.820312 -5.128906 C 3.546875 -6.300781 3.324219 -7.40625 3.070312 -8.472656 L 1.949219 -14.003906 C 1.914062 -14.359375 2.085938 -14.574219 2.328125 -14.621094 C 2.539062 -14.664062 2.773438 -14.566406 2.933594 -14.3125 L 8.890625 -3.746094 C 9.722656 -2.292969 10.75 -1.855469 12.6875 -2.246094 C 14.378906 -2.589844 14.308594 -3.476562 14.070312 -4.652344 C 14.070312 -4.652344 13.753906 -6.207031 13.539062 -7.101562 C 13.265625 -8.269531 13.042969 -9.375 12.789062 -10.441406 Z M 12.789062 -10.441406 "/></g></g></g><g fill="#2b0806" fill-opacity="1"><g transform="translate(173.375292, 76.331011)"><g><path d="M 2.980469 0.109375 C 4.703125 -0.0117188 4.746094 -0.898438 4.664062 -2.09375 C 4.664062 -2.09375 4.554688 -3.679688 4.453125 -4.589844 C 4.335938 -5.785156 4.257812 -6.914062 4.144531 -8 L 3.890625 -12.15625 L 3.445312 -19.023438 C 3.351562 -20.394531 3.371094 -22.132812 3.273438 -23.539062 C 3.207031 -24.453125 2.976562 -25.214844 1.113281 -25.085938 C -0.613281 -24.964844 -0.613281 -23.976562 -0.535156 -22.847656 C -0.445312 -21.546875 -0.195312 -20.007812 -0.109375 -18.773438 C 0.144531 -15.644531 0.367188 -12.972656 0.5625 -10.191406 C 0.6875 -8.359375 0.785156 -6.457031 0.898438 -4.34375 C 0.929688 -3.425781 1.039062 -1.839844 1.039062 -1.839844 C 1.121094 -0.644531 1.605469 0.207031 2.980469 0.109375 Z M 2.980469 0.109375 "/></g></g></g><g fill="#2b0806" fill-opacity="1"><g transform="translate(183.619333, 75.624002)"><g><path d="M 7.105469 0.632812 C 10.628906 0.824219 12.96875 -1.949219 13.242188 -6.988281 C 13.269531 -7.480469 12.960938 -8.308594 11.691406 -8.378906 C 10.808594 -8.425781 9.960938 -8.4375 9.886719 -7.0625 C 9.738281 -4.3125 8.6875 -2.496094 7.277344 -2.574219 C 5.691406 -2.660156 4.851562 -6.734375 5.175781 -12.6875 C 5.464844 -18.042969 6.929688 -21.605469 8.832031 -21.503906 C 10.03125 -21.4375 10.714844 -19.03125 10.523438 -15.542969 C 10.625 -14.761719 10.980469 -14.140625 12.175781 -14.078125 C 13.375 -14.011719 14.003906 -14.542969 14.0625 -15.601562 C 14.347656 -20.886719 12.285156 -24.53125 8.9375 -24.710938 C 5.023438 -24.925781 2.148438 -20.0625 1.738281 -12.558594 C 1.304688 -4.488281 3.296875 0.425781 7.105469 0.632812 Z M 7.105469 0.632812 "/></g></g></g><g fill="#2b0806" fill-opacity="1"><g transform="translate(201.707319, 76.906077)"><g><path d="M 6.828125 1.816406 C 9.039062 2.285156 11.125 1.46875 12.457031 -0.375 C 13.273438 -1.5 14.300781 -4.636719 15.207031 -8.882812 C 15.839844 -11.847656 16.386719 -14.257812 16.675781 -15.605469 C 16.960938 -16.949219 17.460938 -18.613281 17.753906 -19.992188 C 17.945312 -20.890625 17.933594 -21.683594 16.105469 -22.074219 C 14.414062 -22.433594 14.140625 -21.484375 13.90625 -20.378906 C 13.632812 -19.101562 13.445312 -17.554688 13.191406 -16.347656 C 12.933594 -15.140625 11.886719 -9.734375 11.5 -7.902344 C 10.425781 -2.867188 9.359375 -1.253906 7.597656 -1.628906 C 5.90625 -1.988281 5.621094 -3.851562 6.695312 -8.890625 L 8.566406 -17.332031 C 8.851562 -18.679688 9.351562 -20.339844 9.644531 -21.71875 C 9.835938 -22.617188 9.824219 -23.414062 7.996094 -23.804688 C 6.304688 -24.164062 6.03125 -23.210938 5.792969 -22.109375 C 5.523438 -20.832031 5.335938 -19.285156 5.078125 -18.074219 C 4.460938 -14.996094 3.933594 -12.367188 3.355469 -9.640625 C 3.226562 -9.054688 3.070312 -8.472656 2.957031 -7.957031 C 2.390625 -5.300781 2.167969 -3.398438 2.261719 -2.65625 C 2.640625 -0.375 4.34375 1.285156 6.828125 1.816406 Z M 6.828125 1.816406 "/></g></g></g><g fill="#2b0806" fill-opacity="1"><g transform="translate(219.415002, 81.02265)"><g><path d="M 5.550781 2.480469 C 8.585938 3.628906 11.816406 3.269531 12.992188 0.167969 C 14.417969 -3.59375 11.945312 -4.832031 10.171875 -8.523438 C 9.027344 -10.882812 9.382812 -13.011719 9.78125 -14.066406 C 11.007812 -17.300781 12.632812 -18.609375 13.789062 -18.171875 C 14.8125 -17.785156 15.070312 -15.875 13.933594 -12.871094 C 13.542969 -11.847656 13.046875 -10.832031 12.484375 -9.949219 C 12.023438 -8.726562 12.386719 -8.097656 13.410156 -7.710938 C 14.203125 -7.410156 14.828125 -7.664062 15.292969 -8.394531 C 16.125 -9.703125 16.914062 -11.175781 17.460938 -12.628906 C 19.125 -17.019531 18.285156 -19.976562 14.949219 -21.242188 C 11.484375 -22.554688 8.414062 -20.621094 6.226562 -14.847656 C 5.351562 -12.539062 4.753906 -8.765625 9.210938 -2.699219 C 9.433594 -2.390625 9.777344 -1.804688 9.578125 -1.277344 C 9.253906 -0.417969 8.007812 -0.324219 6.953125 -0.722656 C 5.601562 -1.238281 4.808594 -2.140625 4.671875 -3.171875 C 4.550781 -4.050781 4.128906 -4.625 3.4375 -4.886719 C 2.972656 -5.0625 2.453125 -4.882812 2.101562 -3.957031 C 1.140625 -1.417969 2.84375 1.453125 5.550781 2.480469 Z M 5.550781 2.480469 "/></g></g></g><g fill="#2b0806" fill-opacity="1"><g transform="translate(152.446057, 305.214937)"><g><path d="M 1.710938 0.1875 C 2.328125 0.1875 2.515625 -0.148438 2.515625 -0.921875 L 2.460938 -4.300781 C 2.460938 -4.601562 2.6875 -4.84375 2.949219 -4.84375 C 3.34375 -4.84375 4.957031 -4.808594 4.957031 -5.519531 C 4.957031 -6.328125 3.851562 -6.480469 3.117188 -6.480469 C 2.761719 -6.480469 2.554688 -6.59375 2.554688 -7.136719 C 2.554688 -7.679688 2.515625 -9.972656 2.515625 -10.6875 C 2.515625 -11.117188 2.628906 -11.324219 3.117188 -11.398438 C 3.472656 -11.457031 4.261719 -11.417969 4.902344 -11.550781 C 5.539062 -11.679688 5.765625 -12.246094 5.765625 -12.546875 C 5.765625 -12.847656 5.464844 -13.203125 4.996094 -13.203125 C 4.527344 -13.203125 1.878906 -13.296875 1.277344 -13.277344 C 0.675781 -13.257812 0.5625 -12.621094 0.5625 -11.964844 C 0.5625 -11.304688 0.636719 -10.574219 0.636719 -9.972656 C 0.65625 -8.300781 0.675781 -6.875 0.675781 -5.390625 C 0.675781 -4.414062 0.65625 -3.269531 0.636719 -2.140625 C 0.621094 -1.652344 0.621094 -0.808594 0.621094 -0.808594 C 0.621094 0.0390625 1.089844 0.1875 1.710938 0.1875 Z M 1.710938 0.1875 "/></g></g></g><g fill="#2b0806" fill-opacity="1"><g transform="translate(162.229364, 305.214937)"><g><path d="M 4.074219 0.132812 C 6.105469 0.132812 7.585938 -2.421875 7.585938 -6.722656 C 7.585938 -8.714844 7.230469 -10.367188 6.628906 -11.53125 C 6.011719 -12.714844 5.128906 -13.390625 4.074219 -13.390625 C 1.992188 -13.390625 0.5625 -10.722656 0.5625 -6.722656 C 0.5625 -2.421875 2.046875 0.132812 4.074219 0.132812 Z M 4.074219 -1.578125 C 3.0625 -1.578125 2.386719 -3.71875 2.386719 -6.890625 C 2.386719 -9.746094 3.0625 -11.679688 4.074219 -11.679688 C 4.488281 -11.679688 4.84375 -11.34375 5.128906 -10.761719 C 5.539062 -9.933594 5.765625 -8.5625 5.765625 -6.890625 C 5.765625 -3.71875 5.089844 -1.578125 4.074219 -1.578125 Z M 4.074219 -1.578125 "/></g></g></g><g fill="#2b0806" fill-opacity="1"><g transform="translate(173.815129, 305.214937)"><g><path d="M 5.820312 0.207031 C 6.179688 0.207031 6.722656 0.0742188 6.722656 -0.375 C 6.722656 -0.808594 6.421875 -0.9375 5.558594 -2.328125 C 5.109375 -3.042969 4.75 -3.980469 4.5625 -4.828125 C 4.808594 -4.957031 5.070312 -5.164062 5.371094 -5.425781 C 5.765625 -5.804688 6.199219 -6.703125 6.199219 -8.132812 C 6.199219 -9.617188 5.484375 -13.464844 2.855469 -13.464844 C 1.425781 -13.464844 0.5625 -13.144531 0.5625 -11.964844 C 0.5625 -11.304688 0.636719 -10.574219 0.636719 -9.972656 C 0.65625 -8.300781 0.675781 -6.875 0.675781 -5.390625 C 0.675781 -4.414062 0.65625 -3.398438 0.636719 -2.273438 C 0.621094 -1.785156 0.621094 -0.9375 0.621094 -0.9375 C 0.621094 -0.300781 0.84375 0.167969 1.578125 0.167969 C 2.496094 0.167969 2.554688 -0.300781 2.554688 -0.9375 C 2.554688 -0.9375 2.554688 -1.785156 2.535156 -2.273438 C 2.515625 -2.609375 2.515625 -2.890625 2.515625 -3.117188 C 2.515625 -3.605469 2.535156 -3.90625 2.589844 -4.09375 C 2.609375 -4.167969 2.667969 -4.207031 2.722656 -4.207031 C 2.796875 -4.207031 2.890625 -4.132812 2.910156 -4.019531 C 3.136719 -3.0625 3.8125 -1.839844 4.28125 -1.070312 C 4.695312 -0.375 5.03125 0 5.519531 0.167969 C 5.578125 0.1875 5.691406 0.207031 5.820312 0.207031 Z M 3.304688 -6.59375 C 2.722656 -6.59375 2.496094 -6.949219 2.496094 -7.457031 L 2.496094 -10.421875 C 2.480469 -11.34375 2.496094 -11.777344 2.949219 -11.777344 C 3.644531 -11.777344 4.339844 -10.441406 4.339844 -8.75 C 4.339844 -7.457031 3.925781 -6.59375 3.304688 -6.59375 Z M 3.304688 -6.59375 "/></g></g></g><g fill="#2b0806" fill-opacity="1"><g transform="translate(184.011505, 305.214937)"><g/></g></g><g fill="#2b0806" fill-opacity="1"><g transform="translate(191.579264, 305.214937)"><g><path d="M 4.246094 0.1875 C 5.164062 0.1875 5.222656 -0.28125 5.222656 -0.921875 C 5.222656 -0.921875 5.203125 -1.898438 5.203125 -2.253906 L 5.203125 -4.488281 C 5.203125 -4.9375 5.484375 -5.726562 5.671875 -6.140625 C 6.480469 -8.246094 7.269531 -10.367188 8.074219 -12.46875 C 8.132812 -12.5625 8.152344 -12.65625 8.152344 -12.753906 C 8.152344 -13.070312 7.886719 -13.371094 7.492188 -13.371094 C 6.910156 -13.371094 6.59375 -13.335938 6.253906 -12.902344 L 4.640625 -8.09375 C 4.5625 -7.886719 4.414062 -7.773438 4.261719 -7.773438 C 4.113281 -7.773438 3.960938 -7.886719 3.886719 -8.09375 L 2.273438 -12.902344 C 1.933594 -13.335938 1.613281 -13.371094 1.03125 -13.371094 C 0.636719 -13.371094 0.375 -13.070312 0.375 -12.753906 C 0.375 -12.65625 0.394531 -12.5625 0.449219 -12.46875 C 0.636719 -12 2.292969 -7.269531 2.628906 -6.308594 C 2.890625 -5.578125 3.25 -4.921875 3.25 -4.414062 C 3.25 -3.90625 3.304688 -3.117188 3.304688 -2.253906 C 3.304688 -1.390625 3.285156 -0.921875 3.285156 -0.921875 C 3.285156 -0.28125 3.511719 0.1875 4.246094 0.1875 Z M 4.246094 0.1875 "/></g></g></g><g fill="#2b0806" fill-opacity="1"><g transform="translate(203.352793, 305.214937)"><g><path d="M 4.074219 0.132812 C 6.105469 0.132812 7.585938 -2.421875 7.585938 -6.722656 C 7.585938 -8.714844 7.230469 -10.367188 6.628906 -11.53125 C 6.011719 -12.714844 5.128906 -13.390625 4.074219 -13.390625 C 1.992188 -13.390625 0.5625 -10.722656 0.5625 -6.722656 C 0.5625 -2.421875 2.046875 0.132812 4.074219 0.132812 Z M 4.074219 -1.578125 C 3.0625 -1.578125 2.386719 -3.71875 2.386719 -6.890625 C 2.386719 -9.746094 3.0625 -11.679688 4.074219 -11.679688 C 4.488281 -11.679688 4.84375 -11.34375 5.128906 -10.761719 C 5.539062 -9.933594 5.765625 -8.5625 5.765625 -6.890625 C 5.765625 -3.71875 5.089844 -1.578125 4.074219 -1.578125 Z M 4.074219 -1.578125 "/></g></g></g><g fill="#2b0806" fill-opacity="1"><g transform="translate(214.938558, 305.214937)"><g><path d="M 3.757812 0.1875 C 4.957031 0.1875 5.953125 -0.46875 6.441406 -1.578125 C 6.742188 -2.253906 6.929688 -4 6.929688 -6.308594 C 6.929688 -7.925781 6.949219 -9.238281 6.949219 -9.972656 C 6.949219 -10.703125 7.023438 -11.625 7.023438 -12.375 C 7.023438 -12.863281 6.929688 -13.277344 5.933594 -13.277344 C 5.015625 -13.277344 4.976562 -12.753906 4.976562 -12.152344 C 4.976562 -11.457031 5.050781 -10.628906 5.050781 -9.972656 C 5.050781 -9.316406 5.109375 -6.386719 5.109375 -5.390625 C 5.109375 -2.648438 4.734375 -1.691406 3.773438 -1.691406 C 2.855469 -1.691406 2.496094 -2.628906 2.496094 -5.371094 L 2.535156 -9.972656 C 2.535156 -10.703125 2.609375 -11.625 2.609375 -12.375 C 2.609375 -12.863281 2.515625 -13.277344 1.519531 -13.277344 C 0.601562 -13.277344 0.5625 -12.753906 0.5625 -12.152344 C 0.5625 -11.457031 0.636719 -10.628906 0.636719 -9.972656 C 0.65625 -8.300781 0.675781 -6.875 0.675781 -5.390625 C 0.675781 -5.070312 0.65625 -4.75 0.65625 -4.46875 C 0.65625 -3.023438 0.75 -2.007812 0.882812 -1.632812 C 1.332031 -0.488281 2.402344 0.1875 3.757812 0.1875 Z M 3.757812 0.1875 "/></g></g></g><g clip-path="url(#c5a22023aa)"><path fill="#ef5454" d="M 115.53125 289.953125 C 114.582031 297.984375 113.8125 298.753906 105.78125 299.703125 C 105.800781 299.707031 105.816406 299.707031 105.832031 299.710938 C 113.816406 300.65625 114.585938 301.441406 115.53125 309.453125 C 116.484375 301.425781 117.253906 300.652344 125.28125 299.703125 C 117.253906 298.753906 116.484375 297.984375 115.53125 289.953125 Z M 115.53125 289.953125 " fill-opacity="1" fill-rule="nonzero"/></g><g clip-path="url(#eda4d9f4cc)"><path fill="#ef5454" d="M 259.597656 289.953125 C 258.648438 297.984375 257.878906 298.753906 249.847656 299.703125 C 249.863281 299.707031 249.882812 299.707031 249.898438 299.710938 C 257.878906 300.65625 258.648438 301.441406 259.597656 309.453125 C 260.546875 301.425781 261.320312 300.652344 269.347656 299.703125 C 261.320312 298.753906 260.546875 297.984375 259.597656 289.953125 Z M 259.597656 289.953125 " fill-opacity="1" fill-rule="nonzero"/></g></svg>