<svg xmlns="http://www.w3.org/2000/svg" xmlns:xlink="http://www.w3.org/1999/xlink" width="350" zoomAndPan="magnify" viewBox="0 0 262.5 37.5" height="50" preserveAspectRatio="xMidYMid meet" version="1.0"><defs><g/><clipPath id="4eee42641d"><path d="M 235 1 L 260.527344 1 L 260.527344 35 L 235 35 Z M 235 1 " clip-rule="nonzero"/></clipPath><clipPath id="e314fe6ecb"><path d="M 5 0 L 39 0 L 39 29.660156 L 5 29.660156 Z M 5 0 " clip-rule="nonzero"/></clipPath><clipPath id="9f37af8146"><path d="M 5 1 L 39 1 L 39 29.660156 L 5 29.660156 Z M 5 1 " clip-rule="nonzero"/></clipPath><clipPath id="552368b513"><path d="M 5 4 L 34 4 L 34 29.660156 L 5 29.660156 Z M 5 4 " clip-rule="nonzero"/></clipPath><clipPath id="f0fc4c6529"><path d="M 5 0 L 39.300781 0 L 39.300781 29.660156 L 5 29.660156 Z M 5 0 " clip-rule="nonzero"/></clipPath><clipPath id="54090fe082"><path d="M 4.695312 33.25 L 8.402344 33.25 L 8.402344 36.957031 L 4.695312 36.957031 Z M 4.695312 33.25 " clip-rule="nonzero"/></clipPath><clipPath id="904c772a3c"><path d="M 33.199219 33.042969 L 36.910156 33.042969 L 36.910156 36.75 L 33.199219 36.75 Z M 33.199219 33.042969 " clip-rule="nonzero"/></clipPath></defs><g fill="#2b0806" fill-opacity="1"><g transform="translate(63.764158, 33.038341)"><g><path d="M 37.117188 -11.597656 C 36.3125 -10.367188 34.914062 -9.859375 33.644531 -9.859375 C 32.035156 -9.859375 31.488281 -11.089844 31.488281 -12.824219 C 31.488281 -14.429688 32.078125 -16.546875 32.585938 -18.324219 C 33.644531 -21.796875 34.703125 -23.148438 35.550781 -23.148438 C 36.140625 -23.191406 36.566406 -22.726562 37.117188 -22.726562 C 38.894531 -22.726562 40.289062 -24.96875 40.332031 -27.679688 C 40.332031 -30.003906 38.933594 -31.824219 35.972656 -31.824219 C 31.316406 -31.824219 25.773438 -28.734375 19.339844 -17.140625 C 18.960938 -16.460938 18.578125 -15.828125 18.199219 -15.191406 C 16.632812 -16.503906 15.828125 -18.28125 15.828125 -20.441406 C 15.828125 -23.53125 17.734375 -24.335938 19.382812 -24.164062 C 20.019531 -24.082031 20.355469 -24.546875 20.3125 -25.179688 C 20.3125 -27.171875 18.875 -29.160156 15.660156 -29.160156 C 12.0625 -29.160156 8.84375 -26.703125 8.84375 -22.261719 C 8.84375 -18.027344 11.554688 -14.390625 15.914062 -12.1875 C 14.007812 -9.988281 11.765625 -8.589844 9.140625 -8.589844 C 6.8125 -8.589844 4.992188 -9.859375 4.992188 -11.722656 C 4.992188 -12.019531 4.699219 -12.230469 4.359375 -12.230469 C 0.972656 -12.230469 -1.269531 -8.804688 -1.269531 -5.332031 C -1.269531 -1.820312 1.058594 1.777344 6.855469 1.777344 C 11.425781 1.777344 15.699219 -2.792969 18.621094 -7.828125 C 19.128906 -8.71875 19.636719 -9.691406 20.144531 -10.582031 C 21.753906 -10.199219 23.488281 -9.945312 25.308594 -9.859375 C 25.097656 -8.550781 24.96875 -7.363281 24.96875 -6.304688 C 24.96875 -2.835938 26.070312 0 29.074219 0 C 34.789062 0 37.664062 -8.210938 39.019531 -10.539062 C 39.484375 -11.34375 37.792969 -12.613281 37.117188 -11.597656 Z M 25.941406 -12.738281 C 24.335938 -12.824219 22.894531 -13.035156 21.667969 -13.414062 C 23.191406 -16.167969 24.714844 -18.832031 26.410156 -21.035156 C 27.636719 -22.472656 28.144531 -22.769531 28.695312 -22.769531 C 28.988281 -22.769531 29.203125 -22.597656 29.203125 -22.175781 C 29.203125 -20.441406 27.636719 -18.664062 25.941406 -12.738281 Z M 25.941406 -12.738281 "/></g></g></g><g fill="#2b0806" fill-opacity="1"><g transform="translate(107.011885, 33.038341)"><g><path d="M 5.207031 1.777344 C 12.273438 1.777344 18.578125 -3.34375 21.289062 -16.886719 C 21.5 -17.945312 22.683594 -17.945312 22.558594 -16.757812 C 22.21875 -13.5 22.050781 -10.074219 22.050781 -7.238281 C 22.050781 -2.667969 23.066406 0 26.070312 0 C 28.058594 0 29.75 -1.355469 30.386719 -4.65625 C 32.460938 -15.871094 35.804688 -23.699219 40.457031 -23.699219 C 41.558594 -23.699219 41.390625 -22.851562 42.785156 -22.851562 C 45.832031 -22.851562 47.273438 -24.546875 47.273438 -27.128906 C 47.273438 -29.328125 45.539062 -31.527344 41.304688 -31.527344 C 33.347656 -31.527344 29.625 -23.359375 28.734375 -15.40625 C 28.609375 -14.347656 27.425781 -14.09375 27.425781 -15.40625 C 27.425781 -27.296875 23.359375 -31.488281 16.757812 -31.488281 C 8.550781 -31.488281 4.0625 -26.367188 4.0625 -20.78125 C 4.0625 -16.675781 6.515625 -14.050781 9.859375 -14.050781 C 13.628906 -14.050781 15.660156 -17.394531 14.898438 -19.128906 C 13.667969 -19.128906 12.738281 -20.273438 12.738281 -21.753906 C 12.738281 -23.65625 14.21875 -24.757812 15.871094 -24.757812 C 17.648438 -24.757812 18.707031 -23.53125 18.707031 -21.246094 C 18.707031 -16.675781 14.347656 -8.589844 8.421875 -8.589844 C 5.96875 -8.589844 4.148438 -9.859375 4.148438 -11.722656 C 4.148438 -12.019531 3.851562 -12.230469 3.511719 -12.230469 C 0.128906 -12.230469 -2.117188 -8.804688 -2.117188 -5.332031 C -2.117188 -1.820312 0.296875 1.777344 5.207031 1.777344 Z M 5.207031 1.777344 "/></g></g></g><g fill="#2b0806" fill-opacity="1"><g transform="translate(148.566992, 33.038341)"><g><path d="M 7.53125 0.507812 C 10.835938 0.507812 13.5 -1.734375 14.855469 -5.925781 C 16.503906 -10.792969 19.042969 -19.59375 20.273438 -24.671875 C 21.371094 -28.988281 20.78125 -31.488281 14.644531 -31.488281 C 5.207031 -31.488281 -0.675781 -25.816406 -0.675781 -19.128906 C -0.675781 -16.25 1.144531 -13.628906 4.613281 -13.628906 C 8.71875 -13.628906 10.917969 -17.265625 10.15625 -19.128906 C 9.226562 -19.128906 8.550781 -20.058594 8.550781 -21.289062 C 8.550781 -24.164062 11.808594 -25.519531 15.53125 -24.714844 C 13.121094 -18.789062 11.46875 -14.769531 8.039062 -10.917969 C 5.246094 -7.785156 2.792969 -6.261719 2.792969 -3.554688 C 2.792969 -1.101562 4.738281 0.507812 7.53125 0.507812 Z M 7.53125 0.507812 "/></g></g></g><g fill="#2b0806" fill-opacity="1"><g transform="translate(173.661369, 33.038341)"><g><path d="M 11.890625 0.507812 C 18.410156 0.507812 22.851562 -3.386719 26.410156 -10.539062 C 26.832031 -11.34375 25.179688 -12.613281 24.503906 -11.597656 C 23.066406 -9.480469 19.976562 -8.84375 17.351562 -8.84375 C 11.765625 -8.84375 9.058594 -11.976562 9.058594 -15.785156 C 9.058594 -19.976562 11.976562 -24.039062 15.828125 -24.039062 C 18.199219 -24.039062 19.214844 -22.304688 17.011719 -18.113281 C 16.546875 -17.183594 17.226562 -16.378906 18.410156 -16.378906 C 21.542969 -16.378906 25.984375 -20.019531 25.984375 -24.96875 C 25.984375 -28.609375 23.320312 -31.019531 17.945312 -31.019531 C 9.226562 -31.019531 1.398438 -21.921875 1.398438 -11.636719 C 1.398438 -3.175781 5.882812 0.507812 11.890625 0.507812 Z M 11.890625 0.507812 "/></g></g></g><g fill="#2b0806" fill-opacity="1"><g transform="translate(204.299081, 33.038341)"><g><path d="M 6.050781 0.0429688 C 9.058594 0.0429688 11.34375 -2.667969 13.121094 -5.925781 C 13.078125 -5.375 13.035156 -4.867188 13.035156 -4.359375 C 13.035156 -1.863281 14.050781 0 17.054688 0 C 22.769531 0 25.648438 -8.210938 27 -10.539062 C 27.339844 -11.128906 26.535156 -11.976562 25.773438 -11.976562 C 25.519531 -11.976562 25.265625 -11.851562 25.097656 -11.597656 C 24.207031 -10.242188 23.148438 -9.4375 21.667969 -9.4375 C 20.144531 -9.4375 19.679688 -10.285156 19.679688 -11.511719 C 19.679688 -12.316406 19.890625 -13.289062 20.1875 -14.304688 C 21.203125 -17.859375 22.8125 -21.753906 25.140625 -26.449219 C 25.648438 -27.425781 25.859375 -28.226562 25.859375 -28.863281 C 25.859375 -29.921875 25.222656 -30.429688 24.121094 -30.429688 C 21.203125 -30.429688 19.382812 -25.773438 16.25 -16.757812 C 14.8125 -12.949219 12.78125 -9.859375 10.199219 -9.859375 C 8.761719 -9.859375 8.125 -10.960938 8.125 -12.738281 C 8.125 -17.265625 11.808594 -24.503906 15.996094 -26.410156 C 17.394531 -29.921875 14.347656 -31.488281 9.480469 -31.488281 C -2.242188 -31.488281 -9.605469 -25.605469 -9.605469 -18.707031 C -9.605469 -15.828125 -7.785156 -13.203125 -4.316406 -13.203125 C -0.210938 -13.203125 1.988281 -16.84375 1.226562 -18.707031 C 0.296875 -18.707031 -0.382812 -19.636719 -0.382812 -20.863281 C -0.382812 -24.546875 3.976562 -26.449219 11.046875 -26.195312 C 5.925781 -23.402344 0.675781 -13.542969 0.675781 -7.066406 C 0.675781 -2.960938 2.539062 0.0429688 6.050781 0.0429688 Z M 6.050781 0.0429688 "/></g></g></g><g clip-path="url(#4eee42641d)"><g fill="#2b0806" fill-opacity="1"><g transform="translate(235.529205, 33.038341)"><g><path d="M 9.605469 1.777344 C 15.828125 1.777344 20.273438 -2.75 20.273438 -9.058594 C 20.273438 -14.390625 14.898438 -18.113281 15.023438 -21.878906 C 15.023438 -23.996094 16.25 -24.84375 17.648438 -24.84375 C 20.058594 -24.84375 19.804688 -21.835938 19.003906 -20.820312 C 18.410156 -20.058594 20.273438 -18.664062 20.78125 -19.382812 C 23.066406 -20.566406 24.546875 -22.9375 24.546875 -25.476562 C 24.546875 -28.523438 22.640625 -31.488281 17.691406 -31.488281 C 12.0625 -31.488281 9.523438 -27.761719 9.523438 -23.867188 C 9.523438 -18.75 13.796875 -15.617188 13.796875 -12.359375 C 13.796875 -10.285156 12.359375 -8.84375 10.328125 -8.84375 C 8.125 -8.84375 6.8125 -10.285156 6.8125 -12.570312 C 6.8125 -14.898438 8.296875 -14.980469 8.296875 -15.953125 C 8.296875 -16.589844 7.617188 -17.011719 6.558594 -17.011719 C 4.0625 -17.011719 -0.167969 -14.8125 -0.167969 -8.167969 C -0.167969 -1.652344 4.0625 1.777344 9.605469 1.777344 Z M 9.605469 1.777344 "/></g></g></g></g><g clip-path="url(#e314fe6ecb)"><path fill="#ffffff" d="M 38.964844 27.347656 L 38.84375 29.65625 L 30.335938 29.65625 L 30.484375 27.347656 Z M 37.011719 17.210938 C 37.011719 17.210938 37.226562 13.4375 34.015625 9.523438 C 34.753906 5.910156 33.765625 1.066406 32.828125 0.355469 C 31.0625 0.457031 27.367188 1.738281 25.316406 4.960938 C 23.238281 4.226562 20.308594 4.035156 17.351562 4.765625 C 17.351562 4.765625 13.851562 1.128906 9.746094 0.355469 C 7.753906 1.792969 8.378906 8.792969 8.359375 9.675781 C 6.972656 12.121094 1.722656 19.601562 10.351562 24.847656 C 9.203125 27.765625 8.746094 29.617188 8.746094 29.617188 L 30.023438 29.660156 C 30.023438 29.660156 30.414062 25.558594 30.839844 23.527344 C 31.261719 21.496094 31.652344 18.09375 32.558594 17.695312 C 33.460938 17.296875 34.167969 18.242188 34.167969 18.242188 C 34.167969 18.242188 35.1875 15.761719 35.984375 17.972656 C 35.753906 17.136719 37.011719 17.210938 37.011719 17.210938 Z M 37.011719 17.210938 " fill-opacity="1" fill-rule="nonzero"/></g><path fill="#efb07d" d="M 31.390625 20.359375 C 32.054688 17.046875 33.410156 17.375 34.167969 18.242188 C 34.285156 17.226562 35.371094 16.898438 36.007812 17.703125 C 38.449219 15.316406 38.84375 22.402344 38.84375 22.402344 L 38.84375 26.988281 C 38.84375 26.988281 38.296875 28.75 34.542969 28.75 C 31.269531 28.75 30.335938 27.316406 30.335938 27.316406 C 30.335938 27.316406 30.726562 23.675781 31.390625 20.359375 Z M 17.457031 4.808594 C 16.730469 3.734375 12.070312 0 9.808594 0.359375 C 7.242188 3.285156 8.480469 9.675781 8.480469 9.675781 C 8.480469 9.675781 6.359375 12.476562 6.109375 15.183594 C 6.191406 17.179688 11.679688 20.679688 17.953125 15.484375 C 23.917969 10.546875 19.113281 4.507812 19.113281 4.507812 C 19.113281 4.507812 18.300781 4.566406 17.457031 4.808594 Z M 32.316406 2.089844 L 30.335938 6.070312 C 30.335938 6.070312 32.105469 7.523438 32.574219 8.777344 C 33.039062 7.582031 33.164062 4.539062 32.316406 2.089844 Z M 32.316406 2.089844 " fill-opacity="1" fill-rule="nonzero"/><g clip-path="url(#9f37af8146)"><path fill="#ef5454" d="M 38.84375 29.65625 C 38.84375 29.65625 38.84375 29.65625 35.175781 29.65625 C 38.027344 29.402344 38.375 21.792969 38.375 21.792969 Z M 11.9375 6.070312 C 11.9375 6.070312 10.371094 2.847656 10.109375 2.089844 C 9.445312 3.683594 9.335938 7.664062 9.851562 8.777344 C 10.871094 7.550781 11.9375 6.070312 11.9375 6.070312 Z M 30.039062 29.660156 C 30.375 27.578125 30.835938 24.714844 31.207031 22.40625 C 31.203125 22.40625 31.203125 22.410156 31.199219 22.410156 L 31.582031 18.265625 C 31.554688 18.296875 31.527344 18.335938 31.488281 18.386719 C 31.199219 18.800781 30.550781 19.984375 30.023438 22.796875 C 27.871094 23.433594 25.03125 23.871094 21.296875 23.894531 C 6.8125 23.796875 5.828125 17.511719 5.828125 17.511719 C 5.828125 17.511719 5.566406 18.359375 6.121094 19.746094 C 5.960938 19.609375 5.835938 19.5 5.769531 19.433594 C 6.195312 22.609375 10.371094 25.058594 10.371094 25.058594 L 8.746094 29.660156 C 8.746094 29.660156 10.449219 29.660156 12.300781 29.660156 C 13.425781 26.019531 14.789062 26.117188 14.789062 26.117188 C 17.625 26.730469 20.347656 26.894531 21.296875 26.894531 C 22.246094 26.894531 24.96875 26.730469 27.804688 26.117188 C 27.804688 26.117188 28.5 26.066406 29.308594 27.371094 C 29.015625 29.222656 28.921875 29.65625 28.921875 29.65625 Z M 25.238281 4.960938 L 26.910156 5.433594 C 26.910156 5.433594 27.53125 3.214844 30.257812 1.339844 C 28.355469 1.851562 26.304688 3.210938 25.238281 4.960938 Z M 12.203125 1.339844 C 14.929688 3.214844 15.554688 5.433594 15.554688 5.433594 L 17.222656 4.960938 C 16.15625 3.210938 14.105469 1.851562 12.203125 1.339844 Z M 22.398438 18.828125 C 22.398438 18.828125 21.03125 19.140625 19.863281 18.796875 C 20.023438 20.121094 21.996094 20.242188 22.398438 18.828125 Z M 22.398438 18.828125 " fill-opacity="0.298" fill-rule="nonzero"/></g><g clip-path="url(#552368b513)"><path fill="#ffffff" d="M 8.6875 4.222656 C 8.6875 4.222656 8.382812 8.382812 9.820312 10.371094 C 8.296875 11.464844 5.691406 15.019531 5.765625 17.914062 C 5.191406 16.03125 6.015625 12.816406 8.289062 9.941406 C 8.058594 8.242188 8.289062 5.898438 8.6875 4.222656 Z M 30.898438 25.726562 C 31.710938 19.746094 33.101562 17.917969 33.101562 17.917969 C 30.8125 17.304688 30.6875 23.066406 30.898438 25.726562 Z M 7.398438 21.792969 C 7.398438 21.792969 10.199219 24.332031 11.917969 24.601562 C 11.226562 25.464844 9.820312 29.660156 9.820312 29.660156 L 8.570312 29.660156 L 10.199219 24.957031 C 10.199219 24.957031 7.460938 23.617188 7.398438 21.792969 Z M 7.398438 21.792969 " fill-opacity="1" fill-rule="nonzero"/></g><g clip-path="url(#f0fc4c6529)"><path fill="#2b0806" d="M 39.296875 29.65625 C 38.910156 29.65625 38.40625 29.65625 38.40625 29.65625 C 38.398438 28.203125 38.65625 20.691406 37.886719 18.15625 C 37.476562 16.816406 36.207031 17.457031 36.035156 18.574219 C 35.917969 18.015625 35.789062 17.410156 35.210938 17.472656 C 34.496094 17.542969 34.203125 18.792969 34.203125 18.792969 C 34.203125 18.792969 33.628906 17.882812 33.101562 17.917969 C 32.273438 17.972656 31.726562 19.175781 31.332031 21.742188 C 31.105469 23.183594 30.53125 29.65625 30.53125 29.65625 L 29.792969 29.65625 C 29.792969 29.65625 30.199219 25.195312 30.328125 24.230469 L 30.332031 24.203125 L 30.4375 23.449219 C 30.675781 21.792969 30.941406 20.289062 31.199219 19.339844 C 31.863281 16.867188 33.375 16.605469 34.058594 17.792969 C 34.40625 16.519531 35.921875 16.308594 36.082031 17.425781 C 36.132812 17.191406 36.371094 16.910156 36.703125 16.792969 C 36.570312 14.882812 35.722656 12.578125 33.6875 9.824219 C 34.132812 8.898438 34.609375 4.542969 32.738281 0.71875 C 31.792969 0.71875 28.625 1.484375 25.566406 4.773438 C 26.085938 4.949219 26.574219 5.167969 26.984375 5.433594 C 26.859375 5.4375 24.066406 4.65625 21.273438 4.65625 C 18.480469 4.65625 15.6875 5.4375 15.558594 5.433594 C 15.96875 5.167969 16.457031 4.949219 16.976562 4.773438 C 13.921875 1.484375 10.753906 0.71875 9.808594 0.71875 C 7.9375 4.542969 8.414062 8.898438 8.859375 9.824219 C 1.480469 19.808594 9.734375 23.855469 10.910156 24.765625 C 10.246094 26.105469 9.023438 29.65625 9.023438 29.65625 L 8.203125 29.65625 C 8.203125 29.65625 8.996094 27.183594 9.960938 24.972656 C 2.597656 20.691406 4.980469 13.671875 7.996094 9.941406 C 7.089844 4.660156 8.960938 0.121094 9.6875 0 C 14.484375 0.90625 16.9375 3.738281 17.578125 4.585938 C 18.441406 4.347656 19.855469 4 21.273438 4 C 22.6875 4 24.101562 4.347656 24.96875 4.585938 C 25.609375 3.738281 28.058594 0.90625 32.859375 0 C 33.582031 0.121094 35.453125 4.660156 34.546875 9.941406 C 35.980469 11.714844 37.269531 14.222656 37.441406 16.832031 C 37.6875 16.9375 37.949219 17.152344 38.207031 17.515625 C 38.6875 18.195312 38.761719 19.070312 38.988281 20.832031 C 39.195312 22.457031 39.296875 28.695312 39.296875 29.65625 Z M 32.316406 2.089844 C 32.316406 2.089844 30.941406 4.019531 29.929688 6.070312 C 30.609375 6.507812 32.003906 7.941406 32.574219 8.777344 C 32.839844 8.300781 31.449219 6.273438 30.738281 5.882812 C 31.476562 5.105469 32.316406 2.089844 32.316406 2.089844 Z M 10.109375 2.089844 C 10.109375 2.089844 11.484375 4.019531 12.496094 6.070312 C 11.816406 6.507812 10.421875 7.941406 9.851562 8.777344 C 9.585938 8.300781 10.976562 6.273438 11.6875 5.882812 C 10.949219 5.105469 10.109375 2.089844 10.109375 2.089844 Z M 13.945312 11.738281 C 12.410156 12.097656 11.371094 13.613281 11.054688 14.871094 C 11.003906 15.0625 11.109375 15.214844 11.324219 15.269531 C 11.671875 15.355469 12.308594 15.179688 12.402344 14.808594 C 12.523438 14.324219 12.730469 13.886719 13.015625 13.503906 C 13.234375 13.21875 13.65625 12.722656 14.054688 12.621094 C 14.375 12.542969 14.679688 13.0625 14.84375 13.339844 L 14.882812 13.40625 C 15.164062 13.875 15.390625 14.421875 15.558594 15.027344 C 15.617188 15.238281 15.828125 15.320312 16.0625 15.320312 C 16.160156 15.320312 16.261719 15.308594 16.355469 15.28125 C 16.746094 15.175781 16.96875 14.921875 16.898438 14.667969 C 16.285156 12.445312 15.265625 11.429688 13.945312 11.738281 Z M 31.371094 14.667969 C 30.757812 12.445312 29.734375 11.429688 28.417969 11.738281 C 26.882812 12.097656 25.839844 13.613281 25.523438 14.871094 C 25.496094 14.988281 25.523438 15.09375 25.601562 15.167969 C 25.765625 15.328125 26.097656 15.308594 26.332031 15.242188 C 26.621094 15.15625 26.824219 14.996094 26.871094 14.808594 C 26.992188 14.324219 27.199219 13.886719 27.488281 13.503906 C 27.703125 13.21875 28.125 12.722656 28.523438 12.621094 C 28.84375 12.542969 29.152344 13.0625 29.316406 13.339844 L 29.355469 13.40625 C 29.636719 13.875 29.863281 14.421875 30.03125 15.027344 C 30.066406 15.160156 30.175781 15.257812 30.335938 15.296875 C 30.398438 15.316406 30.464844 15.320312 30.53125 15.320312 C 30.792969 15.320312 31.085938 15.21875 31.25 15.054688 C 31.367188 14.941406 31.40625 14.804688 31.371094 14.667969 Z M 23.441406 15.339844 C 23.277344 15.425781 23.199219 15.699219 23.359375 15.996094 C 23.453125 16.167969 23.351562 16.347656 23.285156 16.4375 C 23.109375 16.675781 22.792969 16.820312 22.550781 16.773438 C 22.132812 16.695312 21.882812 16.210938 21.707031 15.796875 C 21.628906 15.601562 21.457031 15.480469 21.265625 15.480469 C 21.074219 15.480469 20.90625 15.601562 20.824219 15.796875 C 20.683594 16.136719 20.421875 16.769531 19.984375 16.851562 C 19.796875 16.886719 19.566406 16.796875 19.382812 16.621094 C 19.109375 16.347656 19.191406 15.992188 19.21875 15.898438 C 19.222656 15.890625 19.226562 15.882812 19.226562 15.871094 L 19.292969 15.703125 L 19.261719 15.703125 C 19.269531 15.527344 19.199219 15.378906 19.070312 15.328125 C 18.960938 15.285156 18.800781 15.316406 18.679688 15.542969 C 18.457031 15.960938 18.441406 16.460938 18.648438 16.875 C 18.835938 17.261719 19.195312 17.527344 19.628906 17.601562 C 20.25 17.710938 20.8125 17.453125 21.265625 16.851562 C 21.652344 17.363281 22.117188 17.628906 22.632812 17.628906 C 22.722656 17.628906 22.8125 17.617188 22.90625 17.601562 C 23.339844 17.527344 23.695312 17.261719 23.886719 16.875 C 24.089844 16.460938 24.078125 15.960938 23.855469 15.542969 C 23.722656 15.300781 23.546875 15.28125 23.441406 15.339844 Z M 23.441406 15.339844 " fill-opacity="1" fill-rule="nonzero"/></g><path fill="#ef5454" d="M 35.0625 21.355469 C 34.835938 21.105469 33.933594 20.425781 33.351562 21.535156 C 32.773438 22.644531 34.355469 23.753906 35.0625 23.753906 C 35.765625 23.753906 37.347656 22.644531 36.769531 21.535156 C 36.1875 20.425781 35.285156 21.105469 35.0625 21.355469 Z M 35.613281 19.484375 C 35.613281 19.144531 35.417969 18.871094 35.175781 18.871094 C 34.933594 18.871094 34.738281 19.144531 34.738281 19.484375 C 34.738281 19.824219 34.933594 20.097656 35.175781 20.097656 C 35.417969 20.097656 35.613281 19.824219 35.613281 19.484375 Z M 36.972656 19.242188 C 36.726562 19.203125 36.480469 19.429688 36.421875 19.746094 C 36.367188 20.0625 36.519531 20.347656 36.765625 20.382812 C 37.007812 20.421875 37.253906 20.195312 37.3125 19.878906 C 37.371094 19.5625 37.21875 19.277344 36.972656 19.242188 Z M 33.433594 20.414062 C 33.683594 20.34375 33.792969 20.03125 33.679688 19.714844 C 33.566406 19.398438 33.277344 19.203125 33.027344 19.273438 C 32.78125 19.34375 32.667969 19.65625 32.78125 19.972656 C 32.894531 20.285156 33.1875 20.484375 33.433594 20.414062 Z M 33.433594 20.414062 " fill-opacity="1" fill-rule="nonzero"/><g fill="#2b0806" fill-opacity="1"><g transform="translate(14.854751, 36.265052)"><g><path d="M 0.578125 0.03125 C 0.710938 0.03125 1.257812 -0.00390625 1.257812 -0.589844 C 1.257812 -0.835938 1.171875 -1.011719 1.0625 -1.074219 C 1.152344 -1.175781 1.226562 -1.324219 1.226562 -1.609375 C 1.226562 -1.902344 1.085938 -2.660156 0.5625 -2.660156 C 0.28125 -2.660156 0.113281 -2.597656 0.113281 -2.363281 C 0.113281 -2.234375 0.125 -2.089844 0.125 -1.972656 C 0.128906 -1.640625 0.132812 -1.359375 0.132812 -1.066406 C 0.132812 -0.871094 0.128906 -0.671875 0.125 -0.449219 C 0.121094 -0.351562 0.121094 -0.1875 0.121094 -0.1875 C 0.121094 -0.0585938 0.175781 -0.0390625 0.285156 -0.00390625 C 0.398438 0.03125 0.445312 0.03125 0.578125 0.03125 Z M 0.652344 -1.265625 C 0.539062 -1.265625 0.492188 -1.335938 0.492188 -1.4375 L 0.488281 -2.058594 C 0.488281 -2.242188 0.492188 -2.328125 0.582031 -2.328125 C 0.71875 -2.328125 0.863281 -2.0625 0.863281 -1.730469 C 0.863281 -1.472656 0.777344 -1.265625 0.652344 -1.265625 Z M 0.652344 -0.308594 C 0.539062 -0.308594 0.503906 -0.34375 0.503906 -0.503906 C 0.503906 -0.582031 0.5 -0.664062 0.511719 -0.753906 C 0.523438 -0.859375 0.535156 -0.929688 0.660156 -0.929688 C 0.785156 -0.929688 0.882812 -0.804688 0.882812 -0.625 C 0.882812 -0.445312 0.773438 -0.308594 0.652344 -0.308594 Z M 0.652344 -0.308594 "/></g></g></g><g fill="#2b0806" fill-opacity="1"><g transform="translate(16.903813, 36.265052)"><g><path d="M 0.839844 0.0390625 C 1.019531 0.0390625 1.03125 -0.0546875 1.03125 -0.183594 C 1.03125 -0.183594 1.027344 -0.375 1.027344 -0.445312 L 1.027344 -0.886719 C 1.027344 -0.976562 1.085938 -1.132812 1.121094 -1.214844 C 1.28125 -1.628906 1.4375 -2.050781 1.597656 -2.464844 C 1.609375 -2.484375 1.609375 -2.503906 1.609375 -2.519531 C 1.609375 -2.582031 1.558594 -2.644531 1.480469 -2.644531 C 1.367188 -2.644531 1.304688 -2.636719 1.234375 -2.550781 L 0.917969 -1.601562 C 0.902344 -1.558594 0.871094 -1.535156 0.84375 -1.535156 C 0.8125 -1.535156 0.785156 -1.558594 0.769531 -1.601562 L 0.449219 -2.550781 C 0.382812 -2.636719 0.320312 -2.644531 0.203125 -2.644531 C 0.125 -2.644531 0.0742188 -2.582031 0.0742188 -2.519531 C 0.0742188 -2.503906 0.078125 -2.484375 0.0898438 -2.464844 C 0.125 -2.371094 0.453125 -1.4375 0.519531 -1.246094 C 0.570312 -1.101562 0.640625 -0.972656 0.640625 -0.871094 C 0.640625 -0.773438 0.652344 -0.617188 0.652344 -0.445312 C 0.652344 -0.273438 0.648438 -0.183594 0.648438 -0.183594 C 0.648438 -0.0546875 0.695312 0.0390625 0.839844 0.0390625 Z M 0.839844 0.0390625 "/></g></g></g><g fill="#2b0806" fill-opacity="1"><g transform="translate(19.231248, 36.265052)"><g/></g></g><g fill="#2b0806" fill-opacity="1"><g transform="translate(20.727271, 36.265052)"><g><path d="M 0.839844 0.0390625 C 1.019531 0.0390625 1.03125 -0.0546875 1.03125 -0.183594 C 1.03125 -0.183594 1.027344 -0.375 1.027344 -0.445312 L 1.027344 -0.886719 C 1.027344 -0.976562 1.085938 -1.132812 1.121094 -1.214844 C 1.28125 -1.628906 1.4375 -2.050781 1.597656 -2.464844 C 1.609375 -2.484375 1.609375 -2.503906 1.609375 -2.519531 C 1.609375 -2.582031 1.558594 -2.644531 1.480469 -2.644531 C 1.367188 -2.644531 1.304688 -2.636719 1.234375 -2.550781 L 0.917969 -1.601562 C 0.902344 -1.558594 0.871094 -1.535156 0.84375 -1.535156 C 0.8125 -1.535156 0.785156 -1.558594 0.769531 -1.601562 L 0.449219 -2.550781 C 0.382812 -2.636719 0.320312 -2.644531 0.203125 -2.644531 C 0.125 -2.644531 0.0742188 -2.582031 0.0742188 -2.519531 C 0.0742188 -2.503906 0.078125 -2.484375 0.0898438 -2.464844 C 0.125 -2.371094 0.453125 -1.4375 0.519531 -1.246094 C 0.570312 -1.101562 0.640625 -0.972656 0.640625 -0.871094 C 0.640625 -0.773438 0.652344 -0.617188 0.652344 -0.445312 C 0.652344 -0.273438 0.648438 -0.183594 0.648438 -0.183594 C 0.648438 -0.0546875 0.695312 0.0390625 0.839844 0.0390625 Z M 0.839844 0.0390625 "/></g></g></g><g fill="#2b0806" fill-opacity="1"><g transform="translate(23.054707, 36.265052)"><g><path d="M 0.804688 0.0273438 C 1.207031 0.0273438 1.5 -0.480469 1.5 -1.328125 C 1.5 -1.722656 1.429688 -2.050781 1.3125 -2.28125 C 1.1875 -2.511719 1.011719 -2.648438 0.804688 -2.648438 C 0.394531 -2.648438 0.113281 -2.121094 0.113281 -1.328125 C 0.113281 -0.480469 0.40625 0.0273438 0.804688 0.0273438 Z M 0.804688 -0.3125 C 0.605469 -0.3125 0.472656 -0.734375 0.472656 -1.363281 C 0.472656 -1.925781 0.605469 -2.308594 0.804688 -2.308594 C 0.886719 -2.308594 0.957031 -2.242188 1.011719 -2.128906 C 1.09375 -1.964844 1.140625 -1.691406 1.140625 -1.363281 C 1.140625 -0.734375 1.007812 -0.3125 0.804688 -0.3125 Z M 0.804688 -0.3125 "/></g></g></g><g fill="#2b0806" fill-opacity="1"><g transform="translate(25.345025, 36.265052)"><g><path d="M 0.742188 0.0390625 C 0.980469 0.0390625 1.175781 -0.09375 1.273438 -0.3125 C 1.332031 -0.445312 1.371094 -0.789062 1.371094 -1.246094 C 1.371094 -1.566406 1.375 -1.828125 1.375 -1.972656 C 1.375 -2.117188 1.386719 -2.296875 1.386719 -2.445312 C 1.386719 -2.542969 1.371094 -2.625 1.171875 -2.625 C 0.992188 -2.625 0.984375 -2.519531 0.984375 -2.402344 C 0.984375 -2.265625 1 -2.101562 1 -1.972656 C 1 -1.839844 1.011719 -1.261719 1.011719 -1.066406 C 1.011719 -0.523438 0.9375 -0.335938 0.746094 -0.335938 C 0.5625 -0.335938 0.492188 -0.519531 0.492188 -1.0625 L 0.5 -1.972656 C 0.5 -2.117188 0.515625 -2.296875 0.515625 -2.445312 C 0.515625 -2.542969 0.496094 -2.625 0.300781 -2.625 C 0.117188 -2.625 0.113281 -2.519531 0.113281 -2.402344 C 0.113281 -2.265625 0.125 -2.101562 0.125 -1.972656 C 0.128906 -1.640625 0.132812 -1.359375 0.132812 -1.066406 C 0.132812 -1.003906 0.128906 -0.9375 0.128906 -0.882812 C 0.128906 -0.597656 0.148438 -0.398438 0.175781 -0.324219 C 0.261719 -0.0976562 0.476562 0.0390625 0.742188 0.0390625 Z M 0.742188 0.0390625 "/></g></g></g><g clip-path="url(#54090fe082)"><path fill="#ef5454" d="M 6.550781 33.25 C 6.371094 34.773438 6.222656 34.921875 4.695312 35.101562 C 4.699219 35.101562 4.703125 35.101562 4.707031 35.101562 C 6.222656 35.285156 6.371094 35.433594 6.550781 36.957031 C 6.730469 35.429688 6.878906 35.28125 8.402344 35.101562 C 6.878906 34.921875 6.730469 34.773438 6.550781 33.25 Z M 6.550781 33.25 " fill-opacity="1" fill-rule="nonzero"/></g><g clip-path="url(#904c772a3c)"><path fill="#ef5454" d="M 35.054688 33.042969 C 34.875 34.570312 34.726562 34.71875 33.199219 34.898438 C 33.203125 34.898438 33.207031 34.898438 33.210938 34.898438 C 34.726562 35.078125 34.875 35.226562 35.054688 36.75 C 35.234375 35.226562 35.382812 35.078125 36.910156 34.898438 C 35.382812 34.71875 35.234375 34.570312 35.054688 33.042969 Z M 35.054688 33.042969 " fill-opacity="1" fill-rule="nonzero"/></g></svg>