<svg xmlns="http://www.w3.org/2000/svg" xmlns:xlink="http://www.w3.org/1999/xlink" width="500" zoomAndPan="magnify" viewBox="0 0 375 374.999991" height="500" preserveAspectRatio="xMidYMid meet" version="1.0"><defs><g/></defs><g fill="#2b0806" fill-opacity="1"><g transform="translate(99.544853, 180.500028)"><g><path d="M 3.191406 0.578125 C 5.335938 0.578125 6.207031 0.289062 6.726562 -1.566406 C 7.074219 -2.84375 7.25 -3.710938 7.539062 -4.523438 C 7.945312 -5.683594 8.757812 -6.667969 10.902344 -6.667969 C 13.050781 -6.667969 13.863281 -5.683594 14.265625 -4.523438 C 14.558594 -3.710938 14.730469 -2.84375 15.078125 -1.566406 C 15.601562 0.289062 16.472656 0.578125 18.617188 0.578125 C 20.242188 0.578125 20.878906 -0.230469 20.878906 -1.277344 C 20.878906 -1.625 20.820312 -1.972656 20.707031 -2.378906 C 20.125 -4.292969 15.832031 -26.738281 14.847656 -32.652344 C 14.617188 -34.101562 14.152344 -37.117188 14.152344 -38.683594 C 14.152344 -40.25 12.992188 -41.234375 10.902344 -41.234375 C 8.816406 -41.234375 7.65625 -40.25 7.65625 -38.683594 C 7.65625 -37.117188 7.191406 -34.101562 6.960938 -32.652344 C 5.972656 -26.738281 1.683594 -4.292969 1.101562 -2.378906 C 0.984375 -1.972656 0.929688 -1.625 0.929688 -1.277344 C 0.929688 -0.230469 1.566406 0.578125 3.191406 0.578125 Z M 10.902344 -11.484375 C 9.800781 -11.484375 8.699219 -11.597656 8.875 -13.109375 C 9.105469 -14.90625 10.382812 -26.5625 10.902344 -26.5625 C 11.425781 -26.5625 12.703125 -14.90625 12.933594 -13.109375 C 13.109375 -11.597656 12.0625 -11.484375 10.902344 -11.484375 Z M 10.902344 -11.484375 "/></g></g></g><g fill="#2b0806" fill-opacity="1"><g transform="translate(131.90735, 180.500028)"><g><path d="M 24.011719 -12.644531 L 24.011719 -19.488281 L 24.128906 -30.796875 C 24.128906 -33.058594 24.359375 -35.902344 24.359375 -38.21875 C 24.359375 -39.726562 24.070312 -41.003906 20.996094 -41.003906 C 18.152344 -41.003906 18.039062 -39.378906 18.039062 -37.523438 C 18.039062 -35.378906 18.269531 -32.828125 18.269531 -30.796875 C 18.328125 -25.925781 18.5 -20.53125 18.5 -16.125 C 18.5 -15.542969 18.210938 -15.253906 17.921875 -15.253906 C 17.632812 -15.253906 17.339844 -15.484375 17.167969 -15.949219 C 14.324219 -24.128906 9.917969 -37.640625 9.28125 -39.148438 C 8.410156 -41.234375 7.019531 -41.003906 4.699219 -41.003906 L 4.523438 -41.003906 C 1.855469 -40.945312 1.738281 -39.324219 1.738281 -37.523438 C 1.738281 -35.378906 1.972656 -32.828125 1.972656 -30.796875 C 2.03125 -25.636719 2.089844 -21.226562 2.089844 -16.644531 C 2.089844 -13.628906 2.03125 -10.496094 1.972656 -7.019531 C 1.914062 -5.507812 1.914062 -2.898438 1.914062 -2.898438 C 1.914062 -0.929688 2.609375 0.523438 4.871094 0.523438 C 7.714844 0.523438 7.886719 -0.929688 7.886719 -2.898438 C 7.886719 -2.898438 7.886719 -5.507812 7.828125 -7.019531 C 7.773438 -8.988281 7.773438 -10.84375 7.714844 -12.644531 L 7.714844 -21.921875 C 7.773438 -22.503906 8.121094 -22.792969 8.527344 -22.792969 C 8.875 -22.792969 9.222656 -22.5625 9.394531 -22.097656 L 15.542969 -3.132812 C 16.414062 -0.523438 17.921875 0.523438 21.167969 0.523438 C 24.011719 0.523438 24.183594 -0.929688 24.183594 -2.898438 C 24.183594 -2.898438 24.183594 -5.507812 24.128906 -7.019531 C 24.070312 -8.988281 24.070312 -10.84375 24.011719 -12.644531 Z M 24.011719 -12.644531 "/></g></g></g><g fill="#2b0806" fill-opacity="1"><g transform="translate(167.749616, 180.500028)"><g><path d="M 4.871094 0.523438 C 7.714844 0.523438 7.886719 -0.929688 7.886719 -2.898438 C 7.886719 -2.898438 7.886719 -5.507812 7.828125 -7.019531 C 7.773438 -8.988281 7.773438 -10.84375 7.714844 -12.644531 L 7.773438 -19.488281 L 7.828125 -30.796875 C 7.828125 -33.058594 8.0625 -35.902344 8.0625 -38.21875 C 8.0625 -39.726562 7.773438 -41.003906 4.699219 -41.003906 C 1.855469 -41.003906 1.738281 -39.378906 1.738281 -37.523438 C 1.738281 -35.378906 1.972656 -32.828125 1.972656 -30.796875 C 2.03125 -25.636719 2.089844 -21.226562 2.089844 -16.644531 C 2.089844 -13.628906 2.03125 -10.496094 1.972656 -7.019531 C 1.914062 -5.507812 1.914062 -2.898438 1.914062 -2.898438 C 1.914062 -0.929688 2.609375 0.523438 4.871094 0.523438 Z M 4.871094 0.523438 "/></g></g></g><g fill="#2b0806" fill-opacity="1"><g transform="translate(187.294962, 180.500028)"><g><path d="M 11.714844 0.40625 C 17.515625 0.40625 21.109375 -4.351562 21.109375 -12.644531 C 21.109375 -13.457031 20.53125 -14.789062 18.441406 -14.789062 C 16.992188 -14.789062 15.601562 -14.730469 15.601562 -12.46875 C 15.601562 -7.945312 14.035156 -4.871094 11.714844 -4.871094 C 9.105469 -4.871094 7.367188 -11.484375 7.367188 -21.285156 C 7.367188 -30.101562 9.453125 -36.074219 12.585938 -36.074219 C 14.558594 -36.074219 15.890625 -32.1875 15.890625 -26.445312 C 16.125 -25.171875 16.761719 -24.183594 18.734375 -24.183594 C 20.707031 -24.183594 21.691406 -25.113281 21.691406 -26.851562 C 21.691406 -35.550781 17.980469 -41.351562 12.46875 -41.351562 C 6.03125 -41.351562 1.738281 -33.117188 1.738281 -20.761719 C 1.738281 -7.480469 5.453125 0.40625 11.714844 0.40625 Z M 11.714844 0.40625 "/></g></g></g><g fill="#2b0806" fill-opacity="1"><g transform="translate(220.469402, 180.500028)"><g><path d="M 11.597656 0.578125 C 15.3125 0.578125 18.386719 -1.449219 19.894531 -4.871094 C 20.820312 -6.960938 21.402344 -12.351562 21.402344 -19.488281 C 21.402344 -24.476562 21.460938 -28.535156 21.460938 -30.796875 C 21.460938 -33.058594 21.691406 -35.902344 21.691406 -38.21875 C 21.691406 -39.726562 21.402344 -41.003906 18.328125 -41.003906 C 15.484375 -41.003906 15.371094 -39.378906 15.371094 -37.523438 C 15.371094 -35.378906 15.601562 -32.828125 15.601562 -30.796875 C 15.601562 -28.765625 15.773438 -19.71875 15.773438 -16.644531 C 15.773438 -8.175781 14.617188 -5.21875 11.65625 -5.21875 C 8.816406 -5.21875 7.714844 -8.121094 7.714844 -16.585938 L 7.828125 -30.796875 C 7.828125 -33.058594 8.0625 -35.902344 8.0625 -38.21875 C 8.0625 -39.726562 7.773438 -41.003906 4.699219 -41.003906 C 1.855469 -41.003906 1.738281 -39.378906 1.738281 -37.523438 C 1.738281 -35.378906 1.972656 -32.828125 1.972656 -30.796875 C 2.03125 -25.636719 2.089844 -21.226562 2.089844 -16.644531 C 2.089844 -15.660156 2.03125 -14.671875 2.03125 -13.804688 C 2.03125 -9.335938 2.320312 -6.207031 2.726562 -5.046875 C 4.117188 -1.507812 7.421875 0.578125 11.597656 0.578125 Z M 11.597656 0.578125 "/></g></g></g><g fill="#2b0806" fill-opacity="1"><g transform="translate(253.643843, 180.500028)"><g><path d="M 9.976562 0.578125 C 15.3125 0.578125 20.066406 -1.855469 20.066406 -7.308594 C 20.066406 -13.917969 15.542969 -14.382812 10.671875 -19.023438 C 7.539062 -21.980469 6.84375 -25.460938 6.84375 -27.316406 C 6.84375 -33 8.582031 -35.957031 10.613281 -35.957031 C 12.410156 -35.957031 13.917969 -33.175781 13.917969 -27.898438 C 13.917969 -26.097656 13.746094 -24.242188 13.398438 -22.5625 C 13.398438 -20.414062 14.324219 -19.660156 16.125 -19.660156 C 17.515625 -19.660156 18.328125 -20.414062 18.617188 -21.808594 C 19.140625 -24.300781 19.488281 -27.027344 19.488281 -29.578125 C 19.488281 -37.292969 16.472656 -41.351562 10.613281 -41.351562 C 4.523438 -41.351562 0.929688 -36.597656 0.929688 -26.445312 C 0.929688 -22.386719 2.203125 -16.238281 12.585938 -9.511719 C 13.109375 -9.164062 13.976562 -8.46875 13.976562 -7.539062 C 13.976562 -6.03125 12.121094 -5.160156 10.265625 -5.160156 C 7.886719 -5.160156 6.148438 -6.089844 5.335938 -7.597656 C 4.640625 -8.875 3.652344 -9.511719 2.4375 -9.511719 C 1.625 -9.511719 0.929688 -8.929688 0.929688 -7.308594 C 0.929688 -2.84375 5.21875 0.578125 9.976562 0.578125 Z M 9.976562 0.578125 "/></g></g></g><g fill="#ef5454" fill-opacity="1"><g transform="translate(149.654263, 212.147011)"><g><path d="M 1.84375 0.203125 C 2.515625 0.203125 2.71875 -0.164062 2.71875 -0.992188 L 2.65625 -4.644531 C 2.65625 -4.96875 2.898438 -5.230469 3.183594 -5.230469 C 3.609375 -5.230469 5.355469 -5.191406 5.355469 -5.960938 C 5.355469 -6.835938 4.15625 -6.996094 3.367188 -6.996094 C 2.980469 -6.996094 2.757812 -7.117188 2.757812 -7.707031 C 2.757812 -8.292969 2.71875 -10.769531 2.71875 -11.539062 C 2.71875 -12.007812 2.839844 -12.230469 3.367188 -12.308594 C 3.75 -12.371094 4.605469 -12.332031 5.292969 -12.472656 C 5.984375 -12.613281 6.226562 -13.222656 6.226562 -13.546875 C 6.226562 -13.871094 5.902344 -14.257812 5.394531 -14.257812 C 4.886719 -14.257812 2.027344 -14.359375 1.378906 -14.339844 C 0.730469 -14.316406 0.609375 -13.628906 0.609375 -12.917969 C 0.609375 -12.207031 0.691406 -11.417969 0.691406 -10.769531 C 0.710938 -8.964844 0.730469 -7.421875 0.730469 -5.820312 C 0.730469 -4.765625 0.710938 -3.527344 0.691406 -2.3125 C 0.667969 -1.785156 0.667969 -0.871094 0.667969 -0.871094 C 0.667969 0.0390625 1.175781 0.203125 1.84375 0.203125 Z M 1.84375 0.203125 "/></g></g></g><g fill="#ef5454" fill-opacity="1"><g transform="translate(160.220477, 212.147011)"><g><path d="M 4.402344 0.140625 C 6.589844 0.140625 8.195312 -2.617188 8.195312 -7.261719 C 8.195312 -9.410156 7.808594 -11.195312 7.160156 -12.453125 C 6.488281 -13.730469 5.535156 -14.460938 4.402344 -14.460938 C 2.148438 -14.460938 0.609375 -11.582031 0.609375 -7.261719 C 0.609375 -2.617188 2.210938 0.140625 4.402344 0.140625 Z M 4.402344 -1.703125 C 3.304688 -1.703125 2.574219 -4.015625 2.574219 -7.441406 C 2.574219 -10.527344 3.304688 -12.613281 4.402344 -12.613281 C 4.847656 -12.613281 5.230469 -12.25 5.535156 -11.621094 C 5.984375 -10.726562 6.226562 -9.246094 6.226562 -7.441406 C 6.226562 -4.015625 5.496094 -1.703125 4.402344 -1.703125 Z M 4.402344 -1.703125 "/></g></g></g><g fill="#ef5454" fill-opacity="1"><g transform="translate(172.733556, 212.147011)"><g><path d="M 6.285156 0.222656 C 6.671875 0.222656 7.261719 0.0820312 7.261719 -0.40625 C 7.261719 -0.871094 6.9375 -1.015625 6.003906 -2.515625 C 5.515625 -3.285156 5.132812 -4.300781 4.929688 -5.210938 C 5.191406 -5.355469 5.476562 -5.578125 5.800781 -5.859375 C 6.226562 -6.265625 6.691406 -7.238281 6.691406 -8.78125 C 6.691406 -10.382812 5.921875 -14.542969 3.082031 -14.542969 C 1.542969 -14.542969 0.609375 -14.195312 0.609375 -12.917969 C 0.609375 -12.207031 0.691406 -11.417969 0.691406 -10.769531 C 0.710938 -8.964844 0.730469 -7.421875 0.730469 -5.820312 C 0.730469 -4.765625 0.710938 -3.671875 0.691406 -2.453125 C 0.667969 -1.925781 0.667969 -1.015625 0.667969 -1.015625 C 0.667969 -0.324219 0.914062 0.183594 1.703125 0.183594 C 2.699219 0.183594 2.757812 -0.324219 2.757812 -1.015625 C 2.757812 -1.015625 2.757812 -1.925781 2.738281 -2.453125 C 2.71875 -2.820312 2.71875 -3.125 2.71875 -3.367188 C 2.71875 -3.894531 2.738281 -4.21875 2.796875 -4.421875 C 2.820312 -4.503906 2.878906 -4.542969 2.941406 -4.542969 C 3.023438 -4.542969 3.125 -4.460938 3.144531 -4.339844 C 3.386719 -3.304688 4.117188 -1.988281 4.625 -1.15625 C 5.070312 -0.40625 5.433594 0 5.960938 0.183594 C 6.023438 0.203125 6.144531 0.222656 6.285156 0.222656 Z M 3.570312 -7.117188 C 2.941406 -7.117188 2.699219 -7.503906 2.699219 -8.050781 L 2.699219 -11.253906 C 2.675781 -12.25 2.699219 -12.714844 3.183594 -12.714844 C 3.933594 -12.714844 4.683594 -11.277344 4.683594 -9.449219 C 4.683594 -8.050781 4.238281 -7.117188 3.570312 -7.117188 Z M 3.570312 -7.117188 "/></g></g></g><g fill="#ef5454" fill-opacity="1"><g transform="translate(183.745931, 212.147011)"><g/></g></g><g fill="#ef5454" fill-opacity="1"><g transform="translate(191.919128, 212.147011)"><g><path d="M 4.582031 0.203125 C 5.578125 0.203125 5.636719 -0.304688 5.636719 -0.992188 C 5.636719 -0.992188 5.617188 -2.046875 5.617188 -2.433594 L 5.617188 -4.847656 C 5.617188 -5.332031 5.921875 -6.1875 6.125 -6.632812 C 6.996094 -8.902344 7.847656 -11.195312 8.71875 -13.464844 C 8.78125 -13.566406 8.800781 -13.667969 8.800781 -13.769531 C 8.800781 -14.117188 8.519531 -14.441406 8.09375 -14.441406 C 7.464844 -14.441406 7.117188 -14.398438 6.753906 -13.933594 L 5.007812 -8.742188 C 4.929688 -8.519531 4.765625 -8.394531 4.605469 -8.394531 C 4.441406 -8.394531 4.277344 -8.519531 4.199219 -8.742188 L 2.453125 -13.933594 C 2.089844 -14.398438 1.742188 -14.441406 1.117188 -14.441406 C 0.691406 -14.441406 0.40625 -14.117188 0.40625 -13.769531 C 0.40625 -13.667969 0.425781 -13.566406 0.488281 -13.464844 C 0.691406 -12.960938 2.472656 -7.847656 2.839844 -6.8125 C 3.125 -6.023438 3.507812 -5.3125 3.507812 -4.765625 C 3.507812 -4.21875 3.570312 -3.367188 3.570312 -2.433594 C 3.570312 -1.5 3.550781 -0.992188 3.550781 -0.992188 C 3.550781 -0.304688 3.792969 0.203125 4.582031 0.203125 Z M 4.582031 0.203125 "/></g></g></g><g fill="#ef5454" fill-opacity="1"><g transform="translate(204.635009, 212.147011)"><g><path d="M 4.402344 0.140625 C 6.589844 0.140625 8.195312 -2.617188 8.195312 -7.261719 C 8.195312 -9.410156 7.808594 -11.195312 7.160156 -12.453125 C 6.488281 -13.730469 5.535156 -14.460938 4.402344 -14.460938 C 2.148438 -14.460938 0.609375 -11.582031 0.609375 -7.261719 C 0.609375 -2.617188 2.210938 0.140625 4.402344 0.140625 Z M 4.402344 -1.703125 C 3.304688 -1.703125 2.574219 -4.015625 2.574219 -7.441406 C 2.574219 -10.527344 3.304688 -12.613281 4.402344 -12.613281 C 4.847656 -12.613281 5.230469 -12.25 5.535156 -11.621094 C 5.984375 -10.726562 6.226562 -9.246094 6.226562 -7.441406 C 6.226562 -4.015625 5.496094 -1.703125 4.402344 -1.703125 Z M 4.402344 -1.703125 "/></g></g></g><g fill="#ef5454" fill-opacity="1"><g transform="translate(217.148086, 212.147011)"><g><path d="M 4.054688 0.203125 C 5.355469 0.203125 6.429688 -0.507812 6.957031 -1.703125 C 7.28125 -2.433594 7.484375 -4.320312 7.484375 -6.8125 C 7.484375 -8.558594 7.503906 -9.976562 7.503906 -10.769531 C 7.503906 -11.558594 7.585938 -12.554688 7.585938 -13.363281 C 7.585938 -13.890625 7.484375 -14.339844 6.410156 -14.339844 C 5.414062 -14.339844 5.375 -13.769531 5.375 -13.121094 C 5.375 -12.371094 5.457031 -11.480469 5.457031 -10.769531 C 5.457031 -10.058594 5.515625 -6.894531 5.515625 -5.820312 C 5.515625 -2.859375 5.109375 -1.824219 4.078125 -1.824219 C 3.082031 -1.824219 2.699219 -2.839844 2.699219 -5.800781 L 2.738281 -10.769531 C 2.738281 -11.558594 2.820312 -12.554688 2.820312 -13.363281 C 2.820312 -13.890625 2.71875 -14.339844 1.644531 -14.339844 C 0.648438 -14.339844 0.609375 -13.769531 0.609375 -13.121094 C 0.609375 -12.371094 0.691406 -11.480469 0.691406 -10.769531 C 0.710938 -8.964844 0.730469 -7.421875 0.730469 -5.820312 C 0.730469 -5.476562 0.710938 -5.132812 0.710938 -4.828125 C 0.710938 -3.265625 0.8125 -2.171875 0.953125 -1.765625 C 1.441406 -0.527344 2.597656 0.203125 4.054688 0.203125 Z M 4.054688 0.203125 "/></g></g></g><g fill="#ef5454" fill-opacity="1"><g transform="translate(154.743444, 240.333246)"><g><path d="M 3.164062 0.164062 C 3.894531 0.164062 6.875 -0.0195312 6.875 -3.226562 C 6.875 -4.5625 6.410156 -5.535156 5.800781 -5.859375 C 6.285156 -6.429688 6.691406 -7.238281 6.691406 -8.78125 C 6.691406 -10.382812 5.921875 -14.542969 3.082031 -14.542969 C 1.542969 -14.542969 0.609375 -14.195312 0.609375 -12.917969 C 0.609375 -12.207031 0.691406 -11.417969 0.691406 -10.769531 C 0.710938 -8.964844 0.730469 -7.421875 0.730469 -5.820312 C 0.730469 -4.765625 0.710938 -3.671875 0.691406 -2.453125 C 0.667969 -1.925781 0.667969 -1.015625 0.667969 -1.015625 C 0.667969 -0.324219 0.953125 -0.203125 1.5625 -0.0195312 C 2.171875 0.164062 2.433594 0.164062 3.164062 0.164062 Z M 3.570312 -6.914062 C 2.941406 -6.914062 2.699219 -7.300781 2.699219 -7.847656 L 2.675781 -11.253906 C 2.675781 -12.25 2.699219 -12.714844 3.183594 -12.714844 C 3.933594 -12.714844 4.726562 -11.277344 4.726562 -9.449219 C 4.726562 -8.050781 4.238281 -6.914062 3.570312 -6.914062 Z M 3.570312 -1.683594 C 2.941406 -1.683594 2.757812 -1.886719 2.757812 -2.757812 C 2.757812 -3.183594 2.738281 -3.628906 2.796875 -4.117188 C 2.859375 -4.683594 2.921875 -5.070312 3.609375 -5.070312 C 4.277344 -5.070312 4.828125 -4.402344 4.828125 -3.40625 C 4.828125 -2.433594 4.21875 -1.683594 3.570312 -1.683594 Z M 3.570312 -1.683594 "/></g></g></g><g fill="#ef5454" fill-opacity="1"><g transform="translate(165.938338, 240.333246)"><g><path d="M 4.582031 0.203125 C 5.578125 0.203125 5.636719 -0.304688 5.636719 -0.992188 C 5.636719 -0.992188 5.617188 -2.046875 5.617188 -2.433594 L 5.617188 -4.847656 C 5.617188 -5.332031 5.921875 -6.1875 6.125 -6.632812 C 6.996094 -8.902344 7.847656 -11.195312 8.71875 -13.464844 C 8.78125 -13.566406 8.800781 -13.667969 8.800781 -13.769531 C 8.800781 -14.117188 8.519531 -14.441406 8.09375 -14.441406 C 7.464844 -14.441406 7.117188 -14.398438 6.753906 -13.933594 L 5.007812 -8.742188 C 4.929688 -8.519531 4.765625 -8.394531 4.605469 -8.394531 C 4.441406 -8.394531 4.277344 -8.519531 4.199219 -8.742188 L 2.453125 -13.933594 C 2.089844 -14.398438 1.742188 -14.441406 1.117188 -14.441406 C 0.691406 -14.441406 0.40625 -14.117188 0.40625 -13.769531 C 0.40625 -13.667969 0.425781 -13.566406 0.488281 -13.464844 C 0.691406 -12.960938 2.472656 -7.847656 2.839844 -6.8125 C 3.125 -6.023438 3.507812 -5.3125 3.507812 -4.765625 C 3.507812 -4.21875 3.570312 -3.367188 3.570312 -2.433594 C 3.570312 -1.5 3.550781 -0.992188 3.550781 -0.992188 C 3.550781 -0.304688 3.792969 0.203125 4.582031 0.203125 Z M 4.582031 0.203125 "/></g></g></g><g fill="#ef5454" fill-opacity="1"><g transform="translate(178.65422, 240.333246)"><g/></g></g><g fill="#ef5454" fill-opacity="1"><g transform="translate(186.827421, 240.333246)"><g><path d="M 4.582031 0.203125 C 5.578125 0.203125 5.636719 -0.304688 5.636719 -0.992188 C 5.636719 -0.992188 5.617188 -2.046875 5.617188 -2.433594 L 5.617188 -4.847656 C 5.617188 -5.332031 5.921875 -6.1875 6.125 -6.632812 C 6.996094 -8.902344 7.847656 -11.195312 8.71875 -13.464844 C 8.78125 -13.566406 8.800781 -13.667969 8.800781 -13.769531 C 8.800781 -14.117188 8.519531 -14.441406 8.09375 -14.441406 C 7.464844 -14.441406 7.117188 -14.398438 6.753906 -13.933594 L 5.007812 -8.742188 C 4.929688 -8.519531 4.765625 -8.394531 4.605469 -8.394531 C 4.441406 -8.394531 4.277344 -8.519531 4.199219 -8.742188 L 2.453125 -13.933594 C 2.089844 -14.398438 1.742188 -14.441406 1.117188 -14.441406 C 0.691406 -14.441406 0.40625 -14.117188 0.40625 -13.769531 C 0.40625 -13.667969 0.425781 -13.566406 0.488281 -13.464844 C 0.691406 -12.960938 2.472656 -7.847656 2.839844 -6.8125 C 3.125 -6.023438 3.507812 -5.3125 3.507812 -4.765625 C 3.507812 -4.21875 3.570312 -3.367188 3.570312 -2.433594 C 3.570312 -1.5 3.550781 -0.992188 3.550781 -0.992188 C 3.550781 -0.304688 3.792969 0.203125 4.582031 0.203125 Z M 4.582031 0.203125 "/></g></g></g><g fill="#ef5454" fill-opacity="1"><g transform="translate(199.543302, 240.333246)"><g><path d="M 4.402344 0.140625 C 6.589844 0.140625 8.195312 -2.617188 8.195312 -7.261719 C 8.195312 -9.410156 7.808594 -11.195312 7.160156 -12.453125 C 6.488281 -13.730469 5.535156 -14.460938 4.402344 -14.460938 C 2.148438 -14.460938 0.609375 -11.582031 0.609375 -7.261719 C 0.609375 -2.617188 2.210938 0.140625 4.402344 0.140625 Z M 4.402344 -1.703125 C 3.304688 -1.703125 2.574219 -4.015625 2.574219 -7.441406 C 2.574219 -10.527344 3.304688 -12.613281 4.402344 -12.613281 C 4.847656 -12.613281 5.230469 -12.25 5.535156 -11.621094 C 5.984375 -10.726562 6.226562 -9.246094 6.226562 -7.441406 C 6.226562 -4.015625 5.496094 -1.703125 4.402344 -1.703125 Z M 4.402344 -1.703125 "/></g></g></g><g fill="#ef5454" fill-opacity="1"><g transform="translate(212.056379, 240.333246)"><g><path d="M 4.054688 0.203125 C 5.355469 0.203125 6.429688 -0.507812 6.957031 -1.703125 C 7.28125 -2.433594 7.484375 -4.320312 7.484375 -6.8125 C 7.484375 -8.558594 7.503906 -9.976562 7.503906 -10.769531 C 7.503906 -11.558594 7.585938 -12.554688 7.585938 -13.363281 C 7.585938 -13.890625 7.484375 -14.339844 6.410156 -14.339844 C 5.414062 -14.339844 5.375 -13.769531 5.375 -13.121094 C 5.375 -12.371094 5.457031 -11.480469 5.457031 -10.769531 C 5.457031 -10.058594 5.515625 -6.894531 5.515625 -5.820312 C 5.515625 -2.859375 5.109375 -1.824219 4.078125 -1.824219 C 3.082031 -1.824219 2.699219 -2.839844 2.699219 -5.800781 L 2.738281 -10.769531 C 2.738281 -11.558594 2.820312 -12.554688 2.820312 -13.363281 C 2.820312 -13.890625 2.71875 -14.339844 1.644531 -14.339844 C 0.648438 -14.339844 0.609375 -13.769531 0.609375 -13.121094 C 0.609375 -12.371094 0.691406 -11.480469 0.691406 -10.769531 C 0.710938 -8.964844 0.730469 -7.421875 0.730469 -5.820312 C 0.730469 -5.476562 0.710938 -5.132812 0.710938 -4.828125 C 0.710938 -3.265625 0.8125 -2.171875 0.953125 -1.765625 C 1.441406 -0.527344 2.597656 0.203125 4.054688 0.203125 Z M 4.054688 0.203125 "/></g></g></g></svg>