<svg xmlns="http://www.w3.org/2000/svg" xmlns:xlink="http://www.w3.org/1999/xlink" width="100" zoomAndPan="magnify" viewBox="0 0 375 167.499995" height="50" preserveAspectRatio="xMidYMid meet" version="1.0"><defs><g/></defs><g fill="#2b0806" fill-opacity="1"><g transform="translate(14.518813, 112.778075)"><g><path d="M 66.296875 -20.710938 C 64.859375 -18.519531 62.363281 -17.613281 60.097656 -17.613281 C 57.222656 -17.613281 56.242188 -19.804688 56.242188 -22.90625 C 56.242188 -25.777344 57.300781 -29.558594 58.207031 -32.730469 C 60.097656 -38.929688 61.988281 -41.347656 63.5 -41.347656 C 64.558594 -41.425781 65.3125 -40.59375 66.296875 -40.59375 C 69.46875 -40.59375 71.964844 -44.601562 72.039062 -49.4375 C 72.039062 -53.597656 69.546875 -56.847656 64.253906 -56.847656 C 55.9375 -56.847656 46.035156 -51.328125 34.546875 -30.617188 C 33.867188 -29.40625 33.183594 -28.273438 32.503906 -27.136719 C 29.707031 -29.480469 28.273438 -32.65625 28.273438 -36.511719 C 28.273438 -42.03125 31.671875 -43.464844 34.621094 -43.164062 C 35.753906 -43.011719 36.359375 -43.84375 36.285156 -44.976562 C 36.285156 -48.53125 33.714844 -52.082031 27.96875 -52.082031 C 21.542969 -52.082031 15.800781 -47.699219 15.800781 -39.761719 C 15.800781 -32.203125 20.636719 -25.703125 28.421875 -21.769531 C 25.019531 -17.839844 21.015625 -15.34375 16.328125 -15.34375 C 12.171875 -15.34375 8.921875 -17.613281 8.921875 -20.9375 C 8.921875 -21.46875 8.390625 -21.847656 7.785156 -21.847656 C 1.738281 -21.847656 -2.269531 -15.722656 -2.269531 -9.523438 C -2.269531 -3.25 1.890625 3.175781 12.246094 3.175781 C 20.410156 3.175781 28.046875 -4.988281 33.261719 -13.984375 C 34.167969 -15.570312 35.074219 -17.3125 35.984375 -18.898438 C 38.855469 -18.21875 41.953125 -17.765625 45.203125 -17.613281 C 44.828125 -15.269531 44.601562 -13.152344 44.601562 -11.261719 C 44.601562 -5.066406 46.566406 0 51.933594 0 C 62.136719 0 67.277344 -14.664062 69.695312 -18.824219 C 70.527344 -20.257812 67.503906 -22.527344 66.296875 -20.710938 Z M 46.339844 -22.753906 C 43.464844 -22.90625 40.894531 -23.28125 38.703125 -23.964844 C 41.425781 -28.875 44.148438 -33.640625 47.171875 -37.570312 C 49.363281 -40.140625 50.269531 -40.667969 51.253906 -40.667969 C 51.78125 -40.667969 52.160156 -40.367188 52.160156 -39.609375 C 52.160156 -36.511719 49.363281 -33.335938 46.339844 -22.753906 Z M 46.339844 -22.753906 "/></g></g></g><g fill="#2b0806" fill-opacity="1"><g transform="translate(91.767471, 112.778075)"><g><path d="M 9.296875 3.175781 C 21.921875 3.175781 33.183594 -5.972656 38.023438 -30.160156 C 38.402344 -32.050781 40.519531 -32.050781 40.292969 -29.933594 C 39.6875 -24.113281 39.382812 -17.992188 39.382812 -12.925781 C 39.382812 -4.761719 41.199219 0 46.566406 0 C 50.117188 0 53.140625 -2.417969 54.277344 -8.316406 C 57.980469 -28.347656 63.953125 -42.332031 72.265625 -42.332031 C 74.234375 -42.332031 73.929688 -40.820312 76.425781 -40.820312 C 81.867188 -40.820312 84.4375 -43.84375 84.4375 -48.457031 C 84.4375 -52.386719 81.339844 -56.316406 73.777344 -56.316406 C 59.566406 -56.316406 52.914062 -41.726562 51.328125 -27.515625 C 51.101562 -25.625 48.984375 -25.171875 48.984375 -27.515625 C 48.984375 -48.757812 41.726562 -56.242188 29.933594 -56.242188 C 15.269531 -56.242188 7.257812 -47.09375 7.257812 -37.117188 C 7.257812 -29.785156 11.640625 -25.097656 17.613281 -25.097656 C 24.339844 -25.097656 27.96875 -31.070312 26.609375 -34.167969 C 24.417969 -34.167969 22.753906 -36.210938 22.753906 -38.855469 C 22.753906 -42.257812 25.398438 -44.222656 28.347656 -44.222656 C 31.523438 -44.222656 33.414062 -42.03125 33.414062 -37.949219 C 33.414062 -29.785156 25.625 -15.34375 15.042969 -15.34375 C 10.660156 -15.34375 7.40625 -17.613281 7.40625 -20.9375 C 7.40625 -21.46875 6.878906 -21.847656 6.273438 -21.847656 C 0.226562 -21.847656 -3.78125 -15.722656 -3.78125 -9.523438 C -3.78125 -3.25 0.527344 3.175781 9.296875 3.175781 Z M 9.296875 3.175781 "/></g></g></g><g fill="#2b0806" fill-opacity="1"><g transform="translate(165.99279, 112.778075)"><g><path d="M 13.457031 0.90625 C 19.351562 0.90625 24.113281 -3.097656 26.535156 -10.582031 C 29.480469 -19.277344 34.015625 -35 36.210938 -44.070312 C 38.175781 -51.78125 37.117188 -56.242188 26.15625 -56.242188 C 9.296875 -56.242188 -1.210938 -46.113281 -1.210938 -34.167969 C -1.210938 -29.027344 2.042969 -24.339844 8.238281 -24.339844 C 15.570312 -24.339844 19.503906 -30.84375 18.140625 -34.167969 C 16.480469 -34.167969 15.269531 -35.832031 15.269531 -38.023438 C 15.269531 -43.164062 21.089844 -45.582031 27.742188 -44.148438 C 23.433594 -33.5625 20.484375 -26.382812 14.363281 -19.503906 C 9.375 -13.910156 4.988281 -11.1875 4.988281 -6.351562 C 4.988281 -1.964844 8.464844 0.90625 13.457031 0.90625 Z M 13.457031 0.90625 "/></g></g></g><g fill="#2b0806" fill-opacity="1"><g transform="translate(210.816117, 112.778075)"><g><path d="M 21.242188 0.90625 C 32.882812 0.90625 40.820312 -6.046875 47.171875 -18.824219 C 47.925781 -20.257812 44.976562 -22.527344 43.769531 -20.710938 C 41.199219 -16.933594 35.679688 -15.800781 30.992188 -15.800781 C 21.015625 -15.800781 16.175781 -21.394531 16.175781 -28.195312 C 16.175781 -35.679688 21.394531 -42.9375 28.273438 -42.9375 C 32.503906 -42.9375 34.320312 -39.835938 30.386719 -32.355469 C 29.558594 -30.691406 30.765625 -29.253906 32.882812 -29.253906 C 38.476562 -29.253906 46.414062 -35.753906 46.414062 -44.601562 C 46.414062 -51.101562 41.652344 -55.410156 32.050781 -55.410156 C 16.480469 -55.410156 2.496094 -39.15625 2.496094 -20.789062 C 2.496094 -5.667969 10.507812 0.90625 21.242188 0.90625 Z M 21.242188 0.90625 "/></g></g></g><g fill="#2b0806" fill-opacity="1"><g transform="translate(265.540893, 112.778075)"><g><path d="M 10.808594 0.0742188 C 16.175781 0.0742188 20.257812 -4.761719 23.433594 -10.582031 C 23.359375 -9.601562 23.28125 -8.691406 23.28125 -7.785156 C 23.28125 -3.324219 25.097656 0 30.464844 0 C 40.667969 0 45.808594 -14.664062 48.230469 -18.824219 C 48.832031 -19.882812 47.398438 -21.394531 46.035156 -21.394531 C 45.582031 -21.394531 45.128906 -21.167969 44.828125 -20.710938 C 43.238281 -18.292969 41.347656 -16.855469 38.703125 -16.855469 C 35.984375 -16.855469 35.152344 -18.371094 35.152344 -20.5625 C 35.152344 -21.996094 35.527344 -23.738281 36.058594 -25.550781 C 37.871094 -31.902344 40.746094 -38.855469 44.902344 -47.246094 C 45.808594 -48.984375 46.1875 -50.421875 46.1875 -51.554688 C 46.1875 -53.445312 45.054688 -54.351562 43.089844 -54.351562 C 37.871094 -54.351562 34.621094 -46.035156 29.027344 -29.933594 C 26.457031 -23.132812 22.828125 -17.613281 18.21875 -17.613281 C 15.648438 -17.613281 14.515625 -19.578125 14.515625 -22.753906 C 14.515625 -30.84375 21.089844 -43.769531 28.574219 -47.171875 C 31.070312 -53.445312 25.625 -56.242188 16.933594 -56.242188 C -4.007812 -56.242188 -17.160156 -45.734375 -17.160156 -33.414062 C -17.160156 -28.273438 -13.910156 -23.585938 -7.710938 -23.585938 C -0.378906 -23.585938 3.554688 -30.085938 2.191406 -33.414062 C 0.527344 -33.414062 -0.679688 -35.074219 -0.679688 -37.265625 C -0.679688 -43.84375 7.105469 -47.246094 19.730469 -46.792969 C 10.582031 -41.804688 1.210938 -24.191406 1.210938 -12.625 C 1.210938 -5.292969 4.535156 0.0742188 10.808594 0.0742188 Z M 10.808594 0.0742188 "/></g></g></g><g fill="#2b0806" fill-opacity="1"><g transform="translate(321.323829, 112.778075)"><g><path d="M 17.160156 3.175781 C 28.273438 3.175781 36.210938 -4.914062 36.210938 -16.175781 C 36.210938 -25.703125 26.609375 -32.355469 26.835938 -39.082031 C 26.835938 -42.863281 29.027344 -44.375 31.523438 -44.375 C 35.832031 -44.375 35.378906 -39.007812 33.941406 -37.191406 C 32.882812 -35.832031 36.210938 -33.335938 37.117188 -34.621094 C 41.199219 -36.738281 43.84375 -40.972656 43.84375 -45.507812 C 43.84375 -50.949219 40.441406 -56.242188 31.597656 -56.242188 C 21.542969 -56.242188 17.007812 -49.589844 17.007812 -42.632812 C 17.007812 -33.488281 24.644531 -27.894531 24.644531 -22.074219 C 24.644531 -18.371094 22.074219 -15.800781 18.445312 -15.800781 C 14.515625 -15.800781 12.171875 -18.371094 12.171875 -22.453125 C 12.171875 -26.609375 14.816406 -26.761719 14.816406 -28.5 C 14.816406 -29.632812 13.605469 -30.386719 11.71875 -30.386719 C 7.257812 -30.386719 -0.300781 -26.457031 -0.300781 -14.589844 C -0.300781 -2.949219 7.257812 3.175781 17.160156 3.175781 Z M 17.160156 3.175781 "/></g></g></g></svg>