<svg xmlns="http://www.w3.org/2000/svg" xmlns:xlink="http://www.w3.org/1999/xlink" width="70" zoomAndPan="magnify" viewBox="0 0 375 374.999991" height="100" preserveAspectRatio="xMidYMid meet" version="1.0"><defs><g/></defs><g fill="#2b0806" fill-opacity="1"><g transform="translate(34.303065, 200.484865)"><g><path d="M 58.707031 -18.34375 C 57.433594 -16.402344 55.226562 -15.597656 53.21875 -15.597656 C 50.675781 -15.597656 49.804688 -17.539062 49.804688 -20.28125 C 49.804688 -22.828125 50.742188 -26.175781 51.542969 -28.984375 C 53.21875 -34.472656 54.890625 -36.617188 56.230469 -36.617188 C 57.167969 -36.683594 57.835938 -35.949219 58.707031 -35.949219 C 61.519531 -35.949219 63.726562 -39.496094 63.792969 -43.78125 C 63.792969 -47.460938 61.585938 -50.339844 56.898438 -50.339844 C 49.535156 -50.339844 40.765625 -45.453125 30.59375 -27.109375 C 29.988281 -26.039062 29.386719 -25.035156 28.785156 -24.03125 C 26.308594 -26.105469 25.035156 -28.917969 25.035156 -32.332031 C 25.035156 -37.21875 28.046875 -38.492188 30.660156 -38.222656 C 31.664062 -38.089844 32.199219 -38.824219 32.132812 -39.828125 C 32.132812 -42.976562 29.855469 -46.121094 24.769531 -46.121094 C 19.078125 -46.121094 13.992188 -42.238281 13.992188 -35.210938 C 13.992188 -28.515625 18.273438 -22.761719 25.167969 -19.277344 C 22.15625 -15.796875 18.609375 -13.589844 14.460938 -13.589844 C 10.777344 -13.589844 7.898438 -15.597656 7.898438 -18.542969 C 7.898438 -19.011719 7.429688 -19.347656 6.894531 -19.347656 C 1.539062 -19.347656 -2.007812 -13.921875 -2.007812 -8.433594 C -2.007812 -2.878906 1.671875 2.8125 10.84375 2.8125 C 18.074219 2.8125 24.835938 -4.417969 29.453125 -12.382812 C 30.257812 -13.789062 31.0625 -15.328125 31.863281 -16.734375 C 34.40625 -16.132812 37.152344 -15.730469 40.03125 -15.597656 C 39.695312 -13.523438 39.496094 -11.648438 39.496094 -9.972656 C 39.496094 -4.484375 41.234375 0 45.988281 0 C 55.027344 0 59.578125 -12.988281 61.71875 -16.667969 C 62.457031 -17.941406 59.777344 -19.949219 58.707031 -18.34375 Z M 41.035156 -20.148438 C 38.492188 -20.28125 36.214844 -20.617188 34.273438 -21.21875 C 36.683594 -25.570312 39.09375 -29.789062 41.769531 -33.269531 C 43.710938 -35.546875 44.515625 -36.015625 45.386719 -36.015625 C 45.855469 -36.015625 46.1875 -35.746094 46.1875 -35.078125 C 46.1875 -32.332031 43.710938 -29.519531 41.035156 -20.148438 Z M 41.035156 -20.148438 "/></g></g></g><g fill="#2b0806" fill-opacity="1"><g transform="translate(102.715834, 200.484865)"><g><path d="M 8.234375 2.8125 C 19.414062 2.8125 29.386719 -5.289062 33.671875 -26.710938 C 34.007812 -28.382812 35.878906 -28.382812 35.679688 -26.507812 C 35.144531 -21.355469 34.875 -15.933594 34.875 -11.445312 C 34.875 -4.21875 36.484375 0 41.234375 0 C 44.382812 0 47.058594 -2.140625 48.0625 -7.363281 C 51.34375 -25.101562 56.632812 -37.488281 63.996094 -37.488281 C 65.734375 -37.488281 65.46875 -36.148438 67.675781 -36.148438 C 72.496094 -36.148438 74.773438 -38.824219 74.773438 -42.910156 C 74.773438 -46.390625 72.027344 -49.871094 65.335938 -49.871094 C 52.75 -49.871094 46.859375 -36.953125 45.453125 -24.367188 C 45.253906 -22.691406 43.378906 -22.292969 43.378906 -24.367188 C 43.378906 -43.175781 36.953125 -49.804688 26.507812 -49.804688 C 13.523438 -49.804688 6.425781 -41.703125 6.425781 -32.867188 C 6.425781 -26.375 10.308594 -22.222656 15.597656 -22.222656 C 21.554688 -22.222656 24.769531 -27.511719 23.5625 -30.257812 C 21.621094 -30.257812 20.148438 -32.066406 20.148438 -34.40625 C 20.148438 -37.421875 22.492188 -39.160156 25.101562 -39.160156 C 27.914062 -39.160156 29.585938 -37.21875 29.585938 -33.605469 C 29.585938 -26.375 22.691406 -13.589844 13.320312 -13.589844 C 9.4375 -13.589844 6.558594 -15.597656 6.558594 -18.542969 C 6.558594 -19.011719 6.089844 -19.347656 5.554688 -19.347656 C 0.199219 -19.347656 -3.347656 -13.921875 -3.347656 -8.433594 C -3.347656 -2.878906 0.46875 2.8125 8.234375 2.8125 Z M 8.234375 2.8125 "/></g></g></g><g fill="#2b0806" fill-opacity="1"><g transform="translate(168.451032, 200.484865)"><g><path d="M 11.914062 0.804688 C 17.136719 0.804688 21.355469 -2.746094 23.496094 -9.371094 C 26.105469 -17.070312 30.125 -30.992188 32.066406 -39.027344 C 33.804688 -45.855469 32.867188 -49.804688 23.160156 -49.804688 C 8.234375 -49.804688 -1.070312 -40.832031 -1.070312 -30.257812 C -1.070312 -25.707031 1.808594 -21.554688 7.296875 -21.554688 C 13.789062 -21.554688 17.269531 -27.3125 16.066406 -30.257812 C 14.59375 -30.257812 13.523438 -31.730469 13.523438 -33.671875 C 13.523438 -38.222656 18.675781 -40.367188 24.566406 -39.09375 C 20.75 -29.722656 18.140625 -23.363281 12.71875 -17.269531 C 8.300781 -12.316406 4.417969 -9.90625 4.417969 -5.621094 C 4.417969 -1.742188 7.496094 0.804688 11.914062 0.804688 Z M 11.914062 0.804688 "/></g></g></g><g fill="#2b0806" fill-opacity="1"><g transform="translate(208.14681, 200.484865)"><g><path d="M 18.808594 0.804688 C 29.121094 0.804688 36.148438 -5.355469 41.769531 -16.667969 C 42.441406 -17.941406 39.828125 -19.949219 38.757812 -18.34375 C 36.484375 -14.996094 31.597656 -13.992188 27.445312 -13.992188 C 18.609375 -13.992188 14.324219 -18.945312 14.324219 -24.96875 C 14.324219 -31.597656 18.945312 -38.023438 25.035156 -38.023438 C 28.785156 -38.023438 30.390625 -35.277344 26.910156 -28.652344 C 26.175781 -27.179688 27.246094 -25.90625 29.121094 -25.90625 C 34.074219 -25.90625 41.101562 -31.664062 41.101562 -39.496094 C 41.101562 -45.253906 36.882812 -49.066406 28.382812 -49.066406 C 14.59375 -49.066406 2.210938 -34.675781 2.210938 -18.410156 C 2.210938 -5.019531 9.304688 0.804688 18.808594 0.804688 Z M 18.808594 0.804688 "/></g></g></g><g fill="#2b0806" fill-opacity="1"><g transform="translate(256.611653, 200.484865)"><g><path d="M 9.574219 0.0664062 C 14.324219 0.0664062 17.941406 -4.21875 20.75 -9.371094 C 20.683594 -8.5 20.617188 -7.699219 20.617188 -6.894531 C 20.617188 -2.945312 22.222656 0 26.976562 0 C 36.015625 0 40.566406 -12.988281 42.707031 -16.667969 C 43.242188 -17.605469 41.972656 -18.945312 40.765625 -18.945312 C 40.367188 -18.945312 39.964844 -18.742188 39.695312 -18.34375 C 38.289062 -16.199219 36.617188 -14.929688 34.273438 -14.929688 C 31.863281 -14.929688 31.128906 -16.265625 31.128906 -18.207031 C 31.128906 -19.480469 31.460938 -21.019531 31.929688 -22.625 C 33.539062 -28.25 36.082031 -34.40625 39.761719 -41.839844 C 40.566406 -43.378906 40.902344 -44.648438 40.902344 -45.652344 C 40.902344 -47.328125 39.898438 -48.128906 38.15625 -48.128906 C 33.539062 -48.128906 30.660156 -40.765625 25.707031 -26.507812 C 23.429688 -20.484375 20.214844 -15.597656 16.132812 -15.597656 C 13.855469 -15.597656 12.851562 -17.335938 12.851562 -20.148438 C 12.851562 -27.3125 18.675781 -38.757812 25.304688 -41.769531 C 27.511719 -47.328125 22.691406 -49.804688 14.996094 -49.804688 C -3.546875 -49.804688 -15.195312 -40.5 -15.195312 -29.585938 C -15.195312 -25.035156 -12.316406 -20.886719 -6.828125 -20.886719 C -0.335938 -20.886719 3.144531 -26.640625 1.941406 -29.585938 C 0.46875 -29.585938 -0.601562 -31.0625 -0.601562 -33 C -0.601562 -38.824219 6.292969 -41.839844 17.472656 -41.4375 C 9.371094 -37.019531 1.070312 -21.421875 1.070312 -11.179688 C 1.070312 -4.6875 4.015625 0.0664062 9.574219 0.0664062 Z M 9.574219 0.0664062 "/></g></g></g><g fill="#2b0806" fill-opacity="1"><g transform="translate(306.013634, 200.484865)"><g><path d="M 15.195312 2.8125 C 25.035156 2.8125 32.066406 -4.351562 32.066406 -14.324219 C 32.066406 -22.761719 23.5625 -28.652344 23.765625 -34.609375 C 23.765625 -37.957031 25.707031 -39.292969 27.914062 -39.292969 C 31.730469 -39.292969 31.328125 -34.542969 30.054688 -32.933594 C 29.121094 -31.730469 32.066406 -29.519531 32.867188 -30.660156 C 36.484375 -32.535156 38.824219 -36.28125 38.824219 -40.296875 C 38.824219 -45.117188 35.8125 -49.804688 27.980469 -49.804688 C 19.078125 -49.804688 15.0625 -43.914062 15.0625 -37.753906 C 15.0625 -29.65625 21.824219 -24.703125 21.824219 -19.546875 C 21.824219 -16.265625 19.546875 -13.992188 16.332031 -13.992188 C 12.851562 -13.992188 10.777344 -16.265625 10.777344 -19.882812 C 10.777344 -23.5625 13.121094 -23.695312 13.121094 -25.238281 C 13.121094 -26.242188 12.050781 -26.910156 10.375 -26.910156 C 6.425781 -26.910156 -0.269531 -23.429688 -0.269531 -12.917969 C -0.269531 -2.609375 6.425781 2.8125 15.195312 2.8125 Z M 15.195312 2.8125 "/></g></g></g></svg>